SplineFontDB: 3.2
FontName: KoreeneSans-Italic
FullName: Koreene Sans Italic
FamilyName: Koreene Sans
Weight: Book
Copyright: (C) Copyright HanYang I&C Co.,Ltd. All rights reserved.
Version: 2.50; ttfautohint (v1.8.4.7-5d5b-dirty)
ItalicAngle: 0
UnderlinePosition: -122
UnderlineWidth: 45
Ascent: 819
Descent: 205
InvalidEm: 0
sfntRevision: 0x00020147
LayerCount: 2
Layer: 0 1 "Back" 1
Layer: 1 1 "Fore" 0
XUID: [1021 531 -1996577725 13374065]
StyleMap: 0x0001
FSType: 0
OS2Version: 4
OS2_WeightWidthSlopeOnly: 0
OS2_UseTypoMetrics: 1
CreationTime: 1068260456
ModificationTime: 1706915299
PfmFamily: 81
TTFWeight: 400
TTFWidth: 5
LineGap: 256
VLineGap: 0
Panose: 0 0 0 0 0 0 0 0 0 0
OS2TypoAscent: 970
OS2TypoAOffset: 0
OS2TypoDescent: -235
OS2TypoDOffset: 0
OS2TypoLinegap: 256
OS2WinAscent: 1098
OS2WinAOffset: 0
OS2WinDescent: 363
OS2WinDOffset: 0
HheadAscent: 970
HheadAOffset: 0
HheadDescent: -235
HheadDOffset: 0
OS2SubXSize: 205
OS2SubYSize: 205
OS2SubXOff: 0
OS2SubYOff: 287
OS2SupXSize: 205
OS2SupYSize: 205
OS2SupXOff: 0
OS2SupYOff: 963
OS2StrikeYSize: 102
OS2StrikeYPos: 512
OS2CapHeight: 735
OS2XHeight: 528
OS2Vendor: 'HY  '
OS2CodePages: 2000019f.00000000
OS2UnicodeRanges: e10002ff.4000001b.00000000.00000000
Lookup: 1 0 0 "'aalt' Access All Alternates lookup 0" { "'aalt' Access All Alternates lookup 0 subtable"  } ['aalt' ('DFLT' <'dflt' > 'cyrl' <'dflt' > 'grek' <'dflt' > 'hang' <'dflt' > 'jamo' <'dflt' > 'latn' <'dflt' > ) ]
Lookup: 3 0 0 "'aalt' Access All Alternates lookup 1" { "'aalt' Access All Alternates lookup 1 subtable"  } ['aalt' ('DFLT' <'dflt' > 'cyrl' <'dflt' > 'grek' <'dflt' > 'hang' <'dflt' > 'jamo' <'dflt' > 'latn' <'dflt' > ) ]
Lookup: 1 0 0 "'locl' Localized Forms in Latin lookup 2" { "'locl' Localized Forms in Latin lookup 2 subtable"  } ['locl' ('latn' <'MOL ' > ) ]
Lookup: 1 0 0 "'locl' Localized Forms in Latin lookup 3" { "'locl' Localized Forms in Latin lookup 3 subtable"  } ['locl' ('latn' <'ROM ' > ) ]

StartChar: exclam
Encoding: 33 33 4
Width: 290
GlyphClass: 2
Flags: W
LayerCount: 2
Fore
SplineSet
36 -10 m 1,0,-1
 55 103 l 1,1,-1
 176 103 l 1,2,-1
 157 -10 l 1,3,-1
 36 -10 l 1,0,-1
166 204 m 1,4,-1
 99 204 l 1,5,-1
 178 736 l 1,6,-1
 263 736 l 1,7,-1
 166 204 l 1,4,-1
EndSplineSet
EndChar

StartChar: quotedbl
Encoding: 34 34 5
Width: 471
GlyphClass: 2
Flags: W
LayerCount: 2
Fore
SplineSet
300 537 m 1,0,-1
 426 824 l 1,1,-1
 533 824 l 1,2,-1
 361 537 l 1,3,-1
 300 537 l 1,0,-1
103 537 m 1,4,-1
 229 824 l 1,5,-1
 336 824 l 1,6,-1
 164 537 l 1,7,-1
 103 537 l 1,4,-1
EndSplineSet
EndChar

StartChar: numbersign
Encoding: 35 35 6
Width: 687
GlyphClass: 2
Flags: W
LayerCount: 2
Fore
SplineSet
30 202 m 1,0,-1
 40 261 l 1,1,-1
 165 261 l 1,2,-1
 223 453 l 1,3,-1
 102 453 l 1,4,-1
 112 511 l 1,5,-1
 240 511 l 1,6,-1
 298 710 l 1,7,-1
 366 710 l 1,8,-1
 308 511 l 1,9,-1
 498 511 l 1,10,-1
 556 710 l 1,11,-1
 624 710 l 1,12,-1
 565 511 l 1,13,-1
 682 511 l 1,14,-1
 672 453 l 1,15,-1
 548 453 l 1,16,-1
 492 261 l 1,17,-1
 610 261 l 1,18,-1
 600 202 l 1,19,-1
 474 202 l 1,20,-1
 415 2 l 1,21,-1
 345 2 l 1,22,-1
 405 202 l 1,23,-1
 216 202 l 1,24,-1
 158 2 l 1,25,-1
 87 2 l 1,26,-1
 148 202 l 1,27,-1
 30 202 l 1,0,-1
234 261 m 1,28,-1
 423 261 l 1,29,-1
 480 453 l 1,30,-1
 290 453 l 1,31,-1
 234 261 l 1,28,-1
EndSplineSet
EndChar

StartChar: dollar
Encoding: 36 36 7
Width: 566
GlyphClass: 2
Flags: W
LayerCount: 2
Fore
SplineSet
32 134 m 1,0,-1
 94 164 l 1,1,2
 115 119 115 119 158 92 c 128,-1,3
 201 65 201 65 250 65 c 0,4,5
 312 65 312 65 358 96 c 128,-1,6
 404 127 404 127 414 189 c 0,7,8
 417 208 417 208 415 224 c 128,-1,9
 413 240 413 240 408.5 252 c 128,-1,10
 404 264 404 264 392 276.5 c 128,-1,11
 380 289 380 289 371 296 c 128,-1,12
 362 303 362 303 341 315 c 128,-1,13
 320 327 320 327 309 332 c 128,-1,14
 298 337 298 337 270.5 349 c 128,-1,15
 243 361 243 361 232 367 c 0,16,17
 166 398 166 398 136.5 440.5 c 128,-1,18
 107 483 107 483 118 552 c 0,19,20
 129 617 129 617 185 669.5 c 128,-1,21
 241 722 241 722 323 731 c 1,22,-1
 337 813 l 1,23,-1
 408 813 l 1,24,-1
 394 730 l 1,25,26
 446 727 446 727 488 692.5 c 128,-1,27
 530 658 530 658 541 616 c 1,28,-1
 479 588 l 1,29,30
 436 670 436 670 348 670 c 0,31,32
 287 670 287 670 245 636.5 c 128,-1,33
 203 603 203 603 195 551 c 0,34,35
 190 521 190 521 197.5 498.5 c 128,-1,36
 205 476 205 476 230.5 456.5 c 128,-1,37
 256 437 256 437 276.5 427 c 128,-1,38
 297 417 297 417 344 395 c 0,39,40
 381 380 381 380 405 365 c 128,-1,41
 429 350 429 350 454.5 326.5 c 128,-1,42
 480 303 480 303 489 270 c 128,-1,43
 498 237 498 237 492 196 c 0,44,45
 478 110 478 110 416.5 60 c 128,-1,46
 355 10 355 10 273 1 c 1,47,-1
 260 -76 l 1,48,-1
 190 -76 l 1,49,-1
 203 3 l 1,50,51
 148 7 148 7 99.5 42.5 c 128,-1,52
 51 78 51 78 32 134 c 1,0,-1
EndSplineSet
EndChar

StartChar: percent
Encoding: 37 37 8
Width: 942
GlyphClass: 2
Flags: W
LayerCount: 2
Fore
SplineSet
491 160 m 0,0,1
 504 238 504 238 564 287.5 c 128,-1,2
 624 337 624 337 704 337 c 0,3,4
 784 337 784 337 827.5 287.5 c 128,-1,5
 871 238 871 238 858 160 c 0,6,7
 845 80 845 80 784.5 31 c 128,-1,8
 724 -18 724 -18 645 -18 c 0,9,10
 567 -18 567 -18 522.5 31.5 c 128,-1,11
 478 81 478 81 491 160 c 0,0,1
563 160 m 256,12,13
 554 107 554 107 581.5 75 c 128,-1,14
 609 43 609 43 655 43 c 256,15,16
 701 43 701 43 739.5 75.5 c 128,-1,17
 778 108 778 108 787 160 c 0,18,19
 796 213 796 213 768.5 244.5 c 128,-1,20
 741 276 741 276 693 276 c 0,21,22
 646 276 646 276 609 244.5 c 128,-1,23
 572 213 572 213 563 160 c 256,12,13
113 576 m 0,24,25
 126 655 126 655 186 704 c 128,-1,26
 246 753 246 753 326 753 c 0,27,28
 406 753 406 753 450 704 c 128,-1,29
 494 655 494 655 480 576 c 0,30,31
 467 498 467 498 406.5 448.5 c 128,-1,32
 346 399 346 399 267 399 c 0,33,34
 189 399 189 399 144.5 448.5 c 128,-1,35
 100 498 100 498 113 576 c 0,24,25
184 576 m 256,36,37
 175 523 175 523 203 491 c 128,-1,38
 231 459 231 459 277 459 c 256,39,40
 323 459 323 459 361.5 491.5 c 128,-1,41
 400 524 400 524 409 576 c 0,42,43
 418 629 418 629 391 661 c 128,-1,44
 364 693 364 693 316 693 c 0,45,46
 270 693 270 693 231.5 661 c 128,-1,47
 193 629 193 629 184 576 c 256,36,37
127 0 m 1,48,-1
 765 735 l 1,49,-1
 843 735 l 1,50,-1
 204 0 l 1,51,-1
 127 0 l 1,48,-1
EndSplineSet
EndChar

StartChar: ampersand
Encoding: 38 38 9
Width: 623
GlyphClass: 2
Flags: W
LayerCount: 2
Fore
SplineSet
115 185 m 256,0,1
 105 122 105 122 139.5 84.5 c 128,-1,2
 174 47 174 47 239 47 c 0,3,4
 326 47 326 47 411 134 c 1,5,-1
 275 381 l 1,6,7
 212 341 212 341 168.5 294.5 c 128,-1,8
 125 248 125 248 115 185 c 256,0,1
38 184 m 0,9,10
 62 330 62 330 244 436 c 1,11,12
 242 441 242 441 237 449 c 0,13,14
 218 484 218 484 211 500.5 c 128,-1,15
 204 517 204 517 199 541.5 c 128,-1,16
 194 566 194 566 199 594 c 0,17,18
 209 656 209 656 263 700.5 c 128,-1,19
 317 745 317 745 401 745 c 0,20,21
 528 745 528 745 568 621 c 1,22,-1
 505 595 l 1,23,24
 493 629 493 629 463.5 655 c 128,-1,25
 434 681 434 681 396 681 c 0,26,27
 346 681 346 681 314 655 c 128,-1,28
 282 629 282 629 276 591 c 0,29,30
 269 551 269 551 311 464.5 c 128,-1,31
 353 378 353 378 460 196 c 1,32,33
 499 257 499 257 528 340 c 1,34,-1
 595 327 l 1,35,36
 562 221 562 221 498 134 c 1,37,-1
 577 0 l 1,38,-1
 489 0 l 1,39,-1
 445 76 l 1,40,41
 344 -18 344 -18 225 -18 c 0,42,43
 120 -18 120 -18 72 40 c 128,-1,44
 24 98 24 98 38 184 c 0,9,10
EndSplineSet
EndChar

StartChar: quotesingle
Encoding: 39 39 10
Width: 287
GlyphClass: 2
Flags: W
LayerCount: 2
Fore
SplineSet
112 537 m 1,0,-1
 238 824 l 1,1,-1
 345 824 l 1,2,-1
 172 537 l 1,3,-1
 112 537 l 1,0,-1
EndSplineSet
EndChar

StartChar: parenleft
Encoding: 40 40 11
Width: 421
GlyphClass: 2
Flags: W
LayerCount: 2
Fore
SplineSet
148 352 m 0,0,1
 195 636 195 636 398 852 c 1,2,-1
 447 821 l 1,3,4
 409 774 409 774 395.5 756.5 c 128,-1,5
 382 739 382 739 347.5 686.5 c 128,-1,6
 313 634 313 634 295 593.5 c 128,-1,7
 277 553 277 553 256 488 c 128,-1,8
 235 423 235 423 223 352 c 0,9,10
 209 266 209 266 209 194 c 128,-1,11
 209 122 209 122 225 61.5 c 128,-1,12
 241 1 241 1 253.5 -32 c 128,-1,13
 266 -65 266 -65 292 -117 c 1,14,-1
 233 -147 l 1,15,16
 175 -49 175 -49 148 69 c 128,-1,17
 121 187 121 187 148 352 c 0,0,1
EndSplineSet
Substitution2: "'sups' Superscript lookup 5 subtable" uni207D
Substitution2: "'aalt' Access All Alternates lookup 0 subtable" uni207D
EndChar

StartChar: parenright
Encoding: 41 41 12
Width: 421
GlyphClass: 2
Flags: W
LayerCount: 2
Fore
SplineSet
-3 -117 m 1,0,1
 86 -9 86 -9 141 97 c 128,-1,2
 196 203 196 203 221 352 c 0,3,4
 235 437 235 437 235 507.5 c 128,-1,5
 235 578 235 578 220 638 c 128,-1,6
 205 698 205 698 191.5 733 c 128,-1,7
 178 768 178 768 153 821 c 1,8,-1
 212 852 l 1,9,10
 343 635 343 635 295 352 c 0,11,12
 268 189 268 189 202.5 70.5 c 128,-1,13
 137 -48 137 -48 46 -147 c 1,14,-1
 -3 -117 l 1,0,1
EndSplineSet
Substitution2: "'sups' Superscript lookup 5 subtable" uni207E
Substitution2: "'aalt' Access All Alternates lookup 0 subtable" uni207E
EndChar

StartChar: asterisk
Encoding: 42 42 13
Width: 543
GlyphClass: 2
Flags: W
LayerCount: 2
Fore
SplineSet
44 417 m 1,0,-1
 81 480 l 1,1,-1
 262 403 l 1,2,-1
 287 600 l 1,3,-1
 360 600 l 1,4,-1
 320 403 l 1,5,-1
 527 480 l 1,6,-1
 544 417 l 1,7,-1
 330 344 l 1,8,-1
 452 175 l 1,9,-1
 389 132 l 1,10,-1
 276 312 l 1,11,-1
 104 132 l 1,12,-1
 56 175 l 1,13,-1
 234 344 l 1,14,-1
 44 417 l 1,0,-1
EndSplineSet
EndChar

StartChar: plus
Encoding: 43 43 14
Width: 542
GlyphClass: 2
Flags: W
LayerCount: 2
Fore
SplineSet
32 331 m 1,0,-1
 43 397 l 1,1,-1
 253 397 l 1,2,-1
 288 608 l 1,3,-1
 361 608 l 1,4,-1
 327 397 l 1,5,-1
 536 397 l 1,6,-1
 525 331 l 1,7,-1
 316 331 l 1,8,-1
 279 112 l 1,9,-1
 206 112 l 1,10,-1
 242 331 l 1,11,-1
 32 331 l 1,0,-1
EndSplineSet
Substitution2: "'sups' Superscript lookup 5 subtable" uni207A
Substitution2: "'aalt' Access All Alternates lookup 0 subtable" uni207A
EndChar

StartChar: comma
Encoding: 44 44 15
Width: 275
GlyphClass: 2
Flags: W
LayerCount: 2
Fore
SplineSet
-57 -171 m 1,0,-1
 70 117 l 1,1,-1
 176 117 l 1,2,-1
 4 -171 l 1,3,-1
 -57 -171 l 1,0,-1
EndSplineSet
EndChar

StartChar: hyphen
Encoding: 45 45 16
Width: 378
GlyphClass: 2
Flags: W
LayerCount: 2
Fore
SplineSet
38 331 m 1,0,-1
 49 397 l 1,1,-1
 366 397 l 1,2,-1
 355 331 l 1,3,-1
 38 331 l 1,0,-1
EndSplineSet
EndChar

StartChar: period
Encoding: 46 46 17
Width: 275
GlyphClass: 2
Flags: W
LayerCount: 2
Fore
SplineSet
28 0 m 1,0,-1
 48 117 l 1,1,-1
 169 117 l 1,2,-1
 150 0 l 1,3,-1
 28 0 l 1,0,-1
EndSplineSet
EndChar

StartChar: slash
Encoding: 47 47 18
Width: 332
GlyphClass: 2
Flags: W
LayerCount: 2
Fore
SplineSet
-68 -56 m 1,0,-1
 348 781 l 1,1,-1
 426 781 l 1,2,-1
 11 -56 l 1,3,-1
 -68 -56 l 1,0,-1
EndSplineSet
EndChar

StartChar: zero
Encoding: 48 48 19
Width: 550
GlyphClass: 2
Flags: W
LayerCount: 2
Fore
SplineSet
143 367 m 0,0,1
 119 220 119 220 141 133.5 c 128,-1,2
 163 47 163 47 238 47 c 0,3,4
 278 47 278 47 311.5 73 c 128,-1,5
 345 99 345 99 368 145 c 128,-1,6
 391 191 391 191 407.5 245.5 c 128,-1,7
 424 300 424 300 435 367 c 0,8,9
 459 514 459 514 437.5 601.5 c 128,-1,10
 416 689 416 689 342 689 c 256,11,12
 268 689 268 689 218 602.5 c 128,-1,13
 168 516 168 516 143 367 c 0,0,1
64 367 m 0,14,15
 97 567 97 567 177 660 c 128,-1,16
 257 753 257 753 353 753 c 0,17,18
 459 753 459 753 501.5 653.5 c 128,-1,19
 544 554 544 554 514 367 c 0,20,21
 495 255 495 255 458.5 170.5 c 128,-1,22
 422 86 422 86 362.5 34 c 128,-1,23
 303 -18 303 -18 227 -18 c 0,24,25
 130 -18 130 -18 81 77.5 c 128,-1,26
 32 173 32 173 64 367 c 0,14,15
EndSplineSet
EndChar

StartChar: one
Encoding: 49 49 20
Width: 550
GlyphClass: 2
Flags: W
LayerCount: 2
Fore
SplineSet
143 562 m 1,0,-1
 153 622 l 1,1,-1
 183 622 l 2,2,3
 265 622 265 622 299 647.5 c 128,-1,4
 333 673 333 673 341 721 c 2,5,-1
 345 744 l 1,6,-1
 410 744 l 1,7,-1
 285 -10 l 1,8,-1
 206 -10 l 1,9,-1
 301 562 l 1,10,-1
 143 562 l 1,0,-1
EndSplineSet
Substitution2: "'subs' Subscript lookup 6 subtable" uni2081
Substitution2: "'sups' Superscript lookup 5 subtable" onesuperior
Substitution2: "'sinf' Scientific Inferiors lookup 4 subtable" uni2081
AlternateSubs2: "'aalt' Access All Alternates lookup 1 subtable" uni2081 onesuperior
EndChar

StartChar: two
Encoding: 50 50 21
Width: 550
GlyphClass: 2
Flags: W
LayerCount: 2
Fore
SplineSet
99 569 m 1,0,1
 135 655 135 655 198 704 c 128,-1,2
 261 753 261 753 351 753 c 0,3,4
 443 753 443 753 493 699 c 128,-1,5
 543 645 543 645 527 550 c 0,6,7
 509 440 509 440 379 331 c 0,8,9
 229 205 229 205 189 165 c 0,10,11
 137 113 137 113 112 65 c 1,12,-1
 447 65 l 1,13,-1
 436 0 l 1,14,-1
 9 0 l 1,15,16
 15 37 15 37 37.5 78 c 128,-1,17
 60 119 60 119 83.5 148.5 c 128,-1,18
 107 178 107 178 156.5 224.5 c 128,-1,19
 206 271 206 271 232.5 293 c 128,-1,20
 259 315 259 315 323 368 c 0,21,22
 432 459 432 459 448 551 c 0,23,24
 459 616 459 616 429 652.5 c 128,-1,25
 399 689 399 689 338 689 c 0,26,27
 278 689 278 689 233.5 651.5 c 128,-1,28
 189 614 189 614 164 551 c 1,29,-1
 99 569 l 1,0,1
EndSplineSet
Substitution2: "'subs' Subscript lookup 6 subtable" uni2082
Substitution2: "'sups' Superscript lookup 5 subtable" twosuperior
Substitution2: "'sinf' Scientific Inferiors lookup 4 subtable" uni2082
AlternateSubs2: "'aalt' Access All Alternates lookup 1 subtable" uni2082 twosuperior
EndChar

StartChar: three
Encoding: 51 51 22
Width: 550
GlyphClass: 2
Flags: W
LayerCount: 2
Fore
SplineSet
13 127 m 1,0,-1
 81 152 l 1,1,2
 118 47 118 47 225 47 c 0,3,4
 293 47 293 47 344.5 87.5 c 128,-1,5
 396 128 396 128 409 204 c 0,6,7
 421 276 421 276 377.5 315.5 c 128,-1,8
 334 355 334 355 262 355 c 0,9,10
 227 355 227 355 204 353 c 1,11,-1
 215 418 l 1,12,13
 235 416 235 416 269 416 c 0,14,15
 333 416 333 416 380 454 c 128,-1,16
 427 492 427 492 438 556 c 0,17,18
 448 614 448 614 417 651.5 c 128,-1,19
 386 689 386 689 328 689 c 0,20,21
 236 689 236 689 171 577 c 1,22,-1
 111 599 l 1,23,24
 144 666 144 666 203 709.5 c 128,-1,25
 262 753 262 753 342 753 c 0,26,27
 437 753 437 753 484.5 699 c 128,-1,28
 532 645 532 645 518 563 c 0,29,30
 507 499 507 499 466 454 c 128,-1,31
 425 409 425 409 374 391 c 1,32,33
 429 375 429 375 464.5 328 c 128,-1,34
 500 281 500 281 487 204 c 0,35,36
 469 98 469 98 395 40 c 128,-1,37
 321 -18 321 -18 214 -18 c 0,38,39
 131 -18 131 -18 79.5 23.5 c 128,-1,40
 28 65 28 65 13 127 c 1,0,-1
EndSplineSet
Substitution2: "'subs' Subscript lookup 6 subtable" uni2083
Substitution2: "'sups' Superscript lookup 5 subtable" threesuperior
Substitution2: "'sinf' Scientific Inferiors lookup 4 subtable" uni2083
AlternateSubs2: "'aalt' Access All Alternates lookup 1 subtable" uni2083 threesuperior
EndChar

StartChar: four
Encoding: 52 52 23
Width: 550
GlyphClass: 2
Flags: W
LayerCount: 2
Fore
SplineSet
18 229 m 1,0,-1
 435 745 l 1,1,-1
 504 745 l 1,2,-1
 419 231 l 1,3,-1
 523 231 l 1,4,-1
 512 166 l 1,5,-1
 409 166 l 1,6,-1
 379 -10 l 1,7,-1
 302 -10 l 1,8,-1
 331 166 l 1,9,-1
 8 166 l 1,10,-1
 18 229 l 1,0,-1
93 231 m 1,11,-1
 342 231 l 1,12,-1
 388 511 l 2,13,14
 398 573 398 573 412 629 c 1,15,-1
 408 629 l 1,16,-1
 326 523 l 1,17,-1
 93 231 l 1,11,-1
EndSplineSet
Substitution2: "'subs' Subscript lookup 6 subtable" uni2084
Substitution2: "'sups' Superscript lookup 5 subtable" uni2074
Substitution2: "'sinf' Scientific Inferiors lookup 4 subtable" uni2084
AlternateSubs2: "'aalt' Access All Alternates lookup 1 subtable" uni2084 uni2074
EndChar

StartChar: five
Encoding: 53 53 24
Width: 550
GlyphClass: 2
Flags: W
LayerCount: 2
Fore
SplineSet
21 119 m 1,0,-1
 89 143 l 1,1,2
 102 99 102 99 137 73 c 128,-1,3
 172 47 172 47 219 47 c 0,4,5
 292 47 292 47 339 95 c 128,-1,6
 386 143 386 143 399 220 c 256,7,8
 412 297 412 297 377 345.5 c 128,-1,9
 342 394 342 394 272 394 c 0,10,11
 194 394 194 394 123 329 c 1,12,-1
 80 347 l 1,13,-1
 181 735 l 1,14,-1
 521 735 l 1,15,-1
 510 670 l 1,16,-1
 241 670 l 1,17,-1
 172 418 l 1,18,19
 235 458 235 458 310 458 c 0,20,21
 401 458 401 458 449 394 c 128,-1,22
 497 330 497 330 479 222 c 0,23,24
 462 122 462 122 392 52 c 128,-1,25
 322 -18 322 -18 208 -18 c 0,26,27
 62 -18 62 -18 21 119 c 1,0,-1
EndSplineSet
EndChar

StartChar: six
Encoding: 54 54 25
Width: 550
GlyphClass: 2
Flags: W
LayerCount: 2
Fore
SplineSet
125 229 m 0,0,1
 112 149 112 149 144.5 98 c 128,-1,2
 177 47 177 47 244 47 c 0,3,4
 307 47 307 47 357 97.5 c 128,-1,5
 407 148 407 148 420 229 c 0,6,7
 434 311 434 311 400 361.5 c 128,-1,8
 366 412 366 412 302 412 c 0,9,10
 239 412 239 412 188.5 359 c 128,-1,11
 138 306 138 306 125 229 c 0,0,1
59 328 m 0,12,13
 70 392 70 392 88 450.5 c 128,-1,14
 106 509 106 509 134 565 c 128,-1,15
 162 621 162 621 198 662 c 128,-1,16
 234 703 234 703 282 728 c 128,-1,17
 330 753 330 753 385 753 c 0,18,19
 512 753 512 753 553 621 c 1,20,-1
 489 599 l 1,21,22
 454 689 454 689 375 689 c 0,23,24
 334 689 334 689 298 667 c 128,-1,25
 262 645 262 645 237.5 607 c 128,-1,26
 213 569 213 569 196 532 c 128,-1,27
 179 495 179 495 166 451 c 0,28,29
 154 412 154 412 142 363 c 1,30,31
 169 414 169 414 218 445.5 c 128,-1,32
 267 477 267 477 324 477 c 0,33,34
 419 477 419 477 466.5 406.5 c 128,-1,35
 514 336 514 336 497 230 c 256,36,37
 479 124 479 124 408.5 53 c 128,-1,38
 338 -18 338 -18 236 -18 c 0,39,40
 130 -18 130 -18 80 60 c 0,41,42
 28 140 28 140 59 328 c 0,12,13
EndSplineSet
EndChar

StartChar: seven
Encoding: 55 55 26
Width: 550
GlyphClass: 2
Flags: W
LayerCount: 2
Fore
SplineSet
106 668 m 1,0,-1
 117 735 l 1,1,-1
 562 735 l 1,2,-1
 553 681 l 1,3,4
 310 364 310 364 167 -10 c 1,5,-1
 88 -10 l 1,6,7
 160 184 160 184 251.5 343.5 c 128,-1,8
 343 503 343 503 462 668 c 1,9,-1
 106 668 l 1,0,-1
EndSplineSet
EndChar

StartChar: eight
Encoding: 56 56 27
Width: 550
GlyphClass: 2
Flags: W
LayerCount: 2
Fore
SplineSet
189 555 m 0,0,1
 179 496 179 496 211.5 459.5 c 128,-1,2
 244 423 244 423 299 423 c 0,3,4
 355 423 355 423 398.5 460.5 c 128,-1,5
 442 498 442 498 451 555 c 0,6,7
 461 613 461 613 430.5 651 c 128,-1,8
 400 689 400 689 343 689 c 0,9,10
 284 689 284 689 241 650 c 128,-1,11
 198 611 198 611 189 555 c 0,0,1
28 196 m 0,12,13
 41 275 41 275 90 324 c 128,-1,14
 139 373 139 373 200 393 c 1,15,16
 92 442 92 442 112 559 c 0,17,18
 126 641 126 641 193.5 697 c 128,-1,19
 261 753 261 753 354 753 c 0,20,21
 443 753 443 753 494 698 c 128,-1,22
 545 643 545 643 531 559 c 0,23,24
 520 495 520 495 479.5 452.5 c 128,-1,25
 439 410 439 410 388 393 c 1,26,27
 445 374 445 374 476.5 324 c 128,-1,28
 508 274 508 274 495 195 c 0,29,30
 480 102 480 102 404.5 42 c 128,-1,31
 329 -18 329 -18 226 -18 c 0,32,33
 127 -18 127 -18 69.5 40 c 128,-1,34
 12 98 12 98 28 196 c 0,12,13
108 200 m 0,35,36
 97 133 97 133 133.5 90 c 128,-1,37
 170 47 170 47 237 47 c 0,38,39
 303 47 303 47 355 90.5 c 128,-1,40
 407 134 407 134 418 200 c 0,41,42
 429 267 429 267 391 313 c 128,-1,43
 353 359 353 359 288 359 c 256,44,45
 223 359 223 359 171 314 c 128,-1,46
 119 269 119 269 108 200 c 0,35,36
EndSplineSet
EndChar

StartChar: nine
Encoding: 57 57 28
Width: 550
GlyphClass: 2
Flags: W
LayerCount: 2
Fore
SplineSet
157 507 m 256,0,1
 144 426 144 426 179 376 c 128,-1,2
 214 326 214 326 273 326 c 0,3,4
 335 326 335 326 385.5 377.5 c 128,-1,5
 436 429 436 429 449 506 c 256,6,7
 462 583 462 583 430 636 c 128,-1,8
 398 689 398 689 333 689 c 0,9,10
 271 689 271 689 220.5 638.5 c 128,-1,11
 170 588 170 588 157 507 c 256,0,1
21 118 m 1,12,-1
 88 140 l 1,13,14
 101 99 101 99 132 73 c 128,-1,15
 163 47 163 47 207 47 c 0,16,17
 254 47 254 47 292.5 72.5 c 128,-1,18
 331 98 331 98 357.5 144 c 128,-1,19
 384 190 384 190 401.5 244 c 128,-1,20
 419 298 419 298 431 364 c 1,21,22
 406 323 406 323 358.5 292.5 c 128,-1,23
 311 262 311 262 253 262 c 0,24,25
 166 262 166 262 113.5 328 c 128,-1,26
 61 394 61 394 79 506 c 0,27,28
 97 615 97 615 173 684 c 128,-1,29
 249 753 249 753 344 753 c 0,30,31
 425 753 425 753 472.5 699.5 c 128,-1,32
 520 646 520 646 526 561 c 0,33,34
 529 500 529 500 512 404 c 0,35,36
 496 309 496 309 470.5 234 c 128,-1,37
 445 159 445 159 406.5 101.5 c 128,-1,38
 368 44 368 44 314.5 13 c 128,-1,39
 261 -18 261 -18 195 -18 c 0,40,41
 125 -18 125 -18 80.5 23 c 128,-1,42
 36 64 36 64 21 118 c 1,12,-1
EndSplineSet
EndChar

StartChar: colon
Encoding: 58 58 29
Width: 275
GlyphClass: 2
Flags: W
LayerCount: 2
Fore
SplineSet
28 0 m 1,0,-1
 48 117 l 1,1,-1
 169 117 l 1,2,-1
 150 0 l 1,3,-1
 28 0 l 1,0,-1
93 389 m 1,4,-1
 112 506 l 1,5,-1
 233 506 l 1,6,-1
 214 389 l 1,7,-1
 93 389 l 1,4,-1
EndSplineSet
EndChar

StartChar: semicolon
Encoding: 59 59 30
Width: 275
GlyphClass: 2
Flags: W
LayerCount: 2
Fore
SplineSet
-57 -171 m 1,0,-1
 70 116 l 1,1,-1
 176 116 l 1,2,-1
 4 -171 l 1,3,-1
 -57 -171 l 1,0,-1
97 388 m 1,4,-1
 116 505 l 1,5,-1
 238 505 l 1,6,-1
 218 388 l 1,7,-1
 97 388 l 1,4,-1
EndSplineSet
EndChar

StartChar: less
Encoding: 60 60 31
Width: 539
GlyphClass: 2
Flags: W
LayerCount: 2
Fore
SplineSet
54 321 m 1,0,-1
 66 391 l 1,1,-1
 523 699 l 1,2,-1
 553 642 l 1,3,-1
 133 355 l 1,4,-1
 459 69 l 1,5,-1
 409 12 l 1,6,-1
 54 321 l 1,0,-1
EndSplineSet
EndChar

StartChar: equal
Encoding: 61 61 32
Width: 540
GlyphClass: 2
Flags: W
LayerCount: 2
Fore
SplineSet
35 234 m 1,0,-1
 45 300 l 1,1,-1
 499 300 l 1,2,-1
 488 234 l 1,3,-1
 35 234 l 1,0,-1
67 428 m 1,4,-1
 78 495 l 1,5,-1
 531 495 l 1,6,-1
 520 428 l 1,7,-1
 67 428 l 1,4,-1
EndSplineSet
Substitution2: "'sups' Superscript lookup 5 subtable" uni207C
Substitution2: "'aalt' Access All Alternates lookup 0 subtable" uni207C
EndChar

StartChar: greater
Encoding: 62 62 33
Width: 539
GlyphClass: 2
Flags: W
LayerCount: 2
Fore
SplineSet
40 12 m 1,0,-1
 11 69 l 1,1,-1
 430 355 l 1,2,-1
 106 642 l 1,3,-1
 153 699 l 1,4,-1
 510 391 l 1,5,-1
 498 321 l 1,6,-1
 40 12 l 1,0,-1
EndSplineSet
EndChar

StartChar: question
Encoding: 63 63 34
Width: 532
GlyphClass: 2
Flags: W
LayerCount: 2
Fore
SplineSet
109 593 m 1,0,1
 145 665 145 665 208 709 c 128,-1,2
 271 753 271 753 345 753 c 0,3,4
 436 753 436 753 481.5 699 c 128,-1,5
 527 645 527 645 512 554 c 0,6,7
 505 509 505 509 481 473 c 128,-1,8
 457 437 457 437 427.5 411.5 c 128,-1,9
 398 386 398 386 368.5 361.5 c 128,-1,10
 339 337 339 337 315 302 c 128,-1,11
 291 267 291 267 284 224 c 2,12,-1
 279 197 l 1,13,-1
 203 197 l 1,14,-1
 208 229 l 2,15,16
 216 277 216 277 240 315.5 c 128,-1,17
 264 354 264 354 293.5 380.5 c 128,-1,18
 323 407 323 407 352 431 c 128,-1,19
 381 455 381 455 404 487 c 128,-1,20
 427 519 427 519 433 556 c 0,21,22
 443 615 443 615 417 651 c 128,-1,23
 391 687 391 687 335 687 c 0,24,25
 239 687 239 687 171 569 c 1,26,-1
 109 593 l 1,0,1
146 -10 m 1,27,-1
 165 103 l 1,28,-1
 286 103 l 1,29,-1
 267 -10 l 1,30,-1
 146 -10 l 1,27,-1
EndSplineSet
EndChar

StartChar: at
Encoding: 64 64 35
Width: 917
GlyphClass: 2
Flags: W
LayerCount: 2
Fore
SplineSet
63 345 m 0,0,1
 93 529 93 529 231 645 c 128,-1,2
 369 761 369 761 559 761 c 0,3,4
 730 761 730 761 820.5 659.5 c 128,-1,5
 911 558 911 558 884 397 c 0,6,7
 872 324 872 324 846 267.5 c 128,-1,8
 820 211 820 211 787 179.5 c 128,-1,9
 754 148 754 148 720.5 132.5 c 128,-1,10
 687 117 687 117 653 117 c 0,11,12
 610 117 610 117 583 148 c 128,-1,13
 556 179 556 179 560 225 c 1,14,-1
 559 225 l 1,15,16
 537 184 537 184 491 151 c 128,-1,17
 445 118 445 118 391 118 c 0,18,19
 321 118 321 118 284 171 c 128,-1,20
 247 224 247 224 261 312 c 0,21,22
 281 430 281 430 352.5 497.5 c 128,-1,23
 424 565 424 565 507 565 c 0,24,25
 551 565 551 565 576 545 c 128,-1,26
 601 525 601 525 610 501 c 1,27,-1
 623 556 l 1,28,-1
 682 556 l 1,29,-1
 622 275 l 2,30,31
 621 270 621 270 620 265 c 0,32,33
 613 224 613 224 625.5 200 c 128,-1,34
 638 176 638 176 668 176 c 0,35,36
 718 176 718 176 759 233 c 128,-1,37
 800 290 800 290 817 393 c 0,38,39
 840 532 840 532 768 618.5 c 128,-1,40
 696 705 696 705 549 705 c 0,41,42
 392 705 392 705 274.5 605 c 128,-1,43
 157 505 157 505 131 345 c 0,44,45
 104 180 104 180 184 83.5 c 128,-1,46
 264 -13 264 -13 418 -13 c 0,47,48
 532 -13 532 -13 638 18 c 1,49,-1
 641 -35 l 1,50,51
 532 -70 532 -70 409 -70 c 0,52,53
 221 -70 221 -70 127 46 c 128,-1,54
 33 162 33 162 63 345 c 0,0,1
332 313 m 0,55,56
 322 254 322 254 343.5 217 c 128,-1,57
 365 180 365 180 409 180 c 0,58,59
 431 180 431 180 454 190 c 128,-1,60
 477 200 477 200 503 222.5 c 128,-1,61
 529 245 529 245 550 291 c 128,-1,62
 571 337 571 337 581 398 c 0,63,64
 588 443 588 443 569 475 c 128,-1,65
 550 507 550 507 500 507 c 0,66,67
 448 507 448 507 397.5 454.5 c 128,-1,68
 347 402 347 402 332 313 c 0,55,56
EndSplineSet
EndChar

StartChar: A
Encoding: 65 65 36
Width: 625
GlyphClass: 2
Flags: W
LayerCount: 2
Fore
SplineSet
176 275 m 1,0,-1
 447 275 l 1,1,-1
 403 522 l 2,2,3
 399 545 399 545 390.5 594.5 c 128,-1,4
 382 644 382 644 379 663 c 1,5,-1
 373 663 l 1,6,7
 313 543 313 543 302 522 c 2,8,-1
 176 275 l 1,0,-1
-51 0 m 1,9,-1
 341 735 l 1,10,-1
 435 735 l 1,11,-1
 582 0 l 1,12,-1
 497 0 l 1,13,-1
 460 212 l 1,14,-1
 142 212 l 1,15,-1
 34 0 l 1,16,-1
 -51 0 l 1,9,-1
EndSplineSet
Substitution2: "Single Substitution lookup 12 subtable" ordfeminine
EndChar

StartChar: B
Encoding: 66 66 37
Width: 643
GlyphClass: 2
Flags: W
LayerCount: 2
Fore
SplineSet
46 0 m 1,0,-1
 167 735 l 1,1,-1
 433 735 l 2,2,3
 538 735 538 735 584 684 c 128,-1,4
 630 633 630 633 616 547 c 0,5,6
 606 488 606 488 569.5 447 c 128,-1,7
 533 406 533 406 485 386 c 1,8,9
 537 369 537 369 567 321 c 128,-1,10
 597 273 597 273 585 205 c 0,11,12
 571 121 571 121 507 60.5 c 128,-1,13
 443 0 443 0 346 0 c 2,14,-1
 46 0 l 1,0,-1
134 67 m 1,15,-1
 338 67 l 2,16,17
 400 67 400 67 448 103.5 c 128,-1,18
 496 140 496 140 507 204 c 0,19,20
 517 265 517 265 482.5 305 c 128,-1,21
 448 345 448 345 380 345 c 2,22,-1
 180 345 l 1,23,-1
 134 67 l 1,15,-1
191 411 m 1,24,-1
 366 411 l 2,25,26
 431 411 431 411 477.5 443.5 c 128,-1,27
 524 476 524 476 535 541 c 0,28,29
 544 598 544 598 516.5 633 c 128,-1,30
 489 668 489 668 412 668 c 2,31,-1
 234 668 l 1,32,-1
 191 411 l 1,24,-1
EndSplineSet
EndChar

StartChar: C
Encoding: 67 67 38
Width: 631
GlyphClass: 2
Flags: W
LayerCount: 2
Fore
SplineSet
60 367 m 256,0,1
 90 547 90 547 193 650 c 128,-1,2
 296 753 296 753 432 753 c 0,3,4
 516 753 516 753 567.5 705 c 128,-1,5
 619 657 619 657 638 592 c 1,6,-1
 569 568 l 1,7,8
 524 686 524 686 419 686 c 0,9,10
 315 686 315 686 239 599 c 128,-1,11
 163 512 163 512 139 367 c 0,12,13
 115 220 115 220 163.5 135 c 128,-1,14
 212 50 212 50 313 50 c 0,15,16
 378 50 378 50 432 87 c 128,-1,17
 486 124 486 124 519 178 c 1,18,-1
 585 155 l 1,19,20
 541 83 541 83 469.5 32.5 c 128,-1,21
 398 -18 398 -18 304 -18 c 0,22,23
 169 -18 169 -18 99.5 84.5 c 128,-1,24
 30 187 30 187 60 367 c 256,0,1
EndSplineSet
EndChar

StartChar: D
Encoding: 68 68 39
Width: 663
GlyphClass: 2
Flags: W
LayerCount: 2
Fore
SplineSet
46 0 m 1,0,-1
 167 735 l 1,1,-1
 362 735 l 2,2,3
 518 735 518 735 592 641.5 c 128,-1,4
 666 548 666 548 636 367 c 0,5,6
 608 195 608 195 505 97.5 c 128,-1,7
 402 0 402 0 238 0 c 2,8,-1
 46 0 l 1,0,-1
134 67 m 1,9,-1
 238 67 l 2,10,11
 362 67 362 67 446.5 139 c 128,-1,12
 531 211 531 211 556 367 c 0,13,14
 582 525 582 525 522 596.5 c 128,-1,15
 462 668 462 668 340 668 c 2,16,-1
 234 668 l 1,17,-1
 134 67 l 1,9,-1
EndSplineSet
EndChar

StartChar: E
Encoding: 69 69 40
Width: 585
GlyphClass: 2
Flags: W
LayerCount: 2
Fore
SplineSet
46 0 m 1,0,-1
 167 735 l 1,1,-1
 617 735 l 1,2,-1
 606 668 l 1,3,-1
 234 668 l 1,4,-1
 192 413 l 1,5,-1
 528 413 l 1,6,-1
 517 347 l 1,7,-1
 181 347 l 1,8,-1
 134 67 l 1,9,-1
 515 67 l 1,10,-1
 503 0 l 1,11,-1
 46 0 l 1,0,-1
EndSplineSet
EndChar

StartChar: F
Encoding: 70 70 41
Width: 541
GlyphClass: 2
Flags: W
LayerCount: 2
Fore
SplineSet
46 0 m 1,0,-1
 167 735 l 1,1,-1
 605 735 l 1,2,-1
 593 668 l 1,3,-1
 234 668 l 1,4,-1
 190 403 l 1,5,-1
 512 403 l 1,6,-1
 502 338 l 1,7,-1
 179 338 l 1,8,-1
 123 0 l 1,9,-1
 46 0 l 1,0,-1
EndSplineSet
EndChar

StartChar: G
Encoding: 71 71 42
Width: 689
GlyphClass: 2
Flags: W
LayerCount: 2
Fore
SplineSet
60 367 m 0,0,1
 88 538 88 538 190.5 645.5 c 128,-1,2
 293 753 293 753 438 753 c 0,3,4
 487 753 487 753 526.5 737.5 c 128,-1,5
 566 722 566 722 590 696.5 c 128,-1,6
 614 671 614 671 629 647 c 128,-1,7
 644 623 644 623 652 597 c 1,8,-1
 583 573 l 1,9,10
 533 686 533 686 427 686 c 0,11,12
 316 686 316 686 239 598 c 128,-1,13
 162 510 162 510 139 367 c 0,14,15
 114 218 114 218 163.5 134 c 128,-1,16
 213 50 213 50 317 50 c 0,17,18
 411 50 411 50 472.5 113 c 128,-1,19
 534 176 534 176 548 261 c 2,20,-1
 560 330 l 1,21,-1
 356 330 l 1,22,-1
 367 396 l 1,23,-1
 646 396 l 1,24,-1
 581 0 l 1,25,-1
 525 0 l 1,26,-1
 537 108 l 1,27,28
 459 -18 459 -18 304 -18 c 0,29,30
 167 -18 167 -18 98.5 85 c 128,-1,31
 30 188 30 188 60 367 c 0,0,1
EndSplineSet
EndChar

StartChar: H
Encoding: 72 72 43
Width: 693
GlyphClass: 2
Flags: W
LayerCount: 2
Fore
SplineSet
46 0 m 1,0,-1
 167 735 l 1,1,-1
 245 735 l 1,2,-1
 191 411 l 1,3,-1
 545 411 l 1,4,-1
 599 735 l 1,5,-1
 675 735 l 1,6,-1
 553 0 l 1,7,-1
 477 0 l 1,8,-1
 534 345 l 1,9,-1
 180 345 l 1,10,-1
 123 0 l 1,11,-1
 46 0 l 1,0,-1
EndSplineSet
EndChar

StartChar: I
Encoding: 73 73 44
Width: 262
GlyphClass: 2
Flags: W
LayerCount: 2
Fore
SplineSet
46 0 m 1,0,-1
 167 735 l 1,1,-1
 245 735 l 1,2,-1
 123 0 l 1,3,-1
 46 0 l 1,0,-1
EndSplineSet
EndChar

StartChar: J
Encoding: 74 74 45
Width: 479
GlyphClass: 2
Flags: W
LayerCount: 2
Fore
SplineSet
-17 118 m 1,0,-1
 56 144 l 1,1,2
 62 100 62 100 88.5 75 c 128,-1,3
 115 50 115 50 156 50 c 0,4,5
 270 50 270 50 297 214 c 2,6,-1
 384 735 l 1,7,-1
 460 735 l 1,8,-1
 372 201 l 2,9,10
 354 93 354 93 296 37.5 c 128,-1,11
 238 -18 238 -18 147 -18 c 0,12,13
 4 -18 4 -18 -17 118 c 1,0,-1
EndSplineSet
EndChar

StartChar: K
Encoding: 75 75 46
Width: 617
GlyphClass: 2
Flags: W
LayerCount: 2
Fore
SplineSet
46 0 m 1,0,-1
 167 735 l 1,1,-1
 245 735 l 1,2,-1
 181 346 l 1,3,-1
 182 346 l 1,4,-1
 573 735 l 1,5,-1
 675 735 l 1,6,-1
 349 417 l 1,7,-1
 569 0 l 1,8,-1
 473 0 l 1,9,-1
 290 360 l 1,10,-1
 162 235 l 1,11,-1
 123 0 l 1,12,-1
 46 0 l 1,0,-1
EndSplineSet
EndChar

StartChar: L
Encoding: 76 76 47
Width: 519
GlyphClass: 2
Flags: W
LayerCount: 2
Fore
SplineSet
46 0 m 1,0,-1
 167 735 l 1,1,-1
 245 735 l 1,2,-1
 134 67 l 1,3,-1
 476 67 l 1,4,-1
 465 0 l 1,5,-1
 46 0 l 1,0,-1
EndSplineSet
EndChar

StartChar: M
Encoding: 77 77 48
Width: 844
GlyphClass: 2
Flags: W
LayerCount: 2
Fore
SplineSet
46 0 m 1,0,-1
 167 735 l 1,1,-1
 267 735 l 1,2,-1
 360 340 l 2,3,4
 369 298 369 298 383.5 227 c 128,-1,5
 398 156 398 156 398 153 c 2,6,-1
 402 153 l 1,7,8
 410 168 410 168 503 340 c 1,9,-1
 725 735 l 1,10,-1
 827 735 l 1,11,-1
 705 0 l 1,12,-1
 629 0 l 1,13,-1
 698 415 l 2,14,15
 711 495 711 495 744 638 c 1,16,-1
 740 638 l 1,17,-1
 419 55 l 1,18,-1
 351 55 l 1,19,-1
 221 638 l 1,20,-1
 217 638 l 1,21,22
 203 480 203 480 192 415 c 2,23,-1
 123 0 l 1,24,-1
 46 0 l 1,0,-1
EndSplineSet
EndChar

StartChar: N
Encoding: 78 78 49
Width: 697
GlyphClass: 2
Flags: W
LayerCount: 2
Fore
SplineSet
46 0 m 1,0,-1
 167 735 l 1,1,-1
 256 735 l 1,2,-1
 444 266 l 1,3,-1
 504 111 l 1,4,-1
 510 111 l 1,5,6
 514 202 514 202 534 319 c 2,7,-1
 603 735 l 1,8,-1
 679 735 l 1,9,-1
 557 0 l 1,10,-1
 469 0 l 1,11,-1
 220 623 l 1,12,-1
 217 623 l 1,13,14
 211 525 211 525 192 416 c 2,15,-1
 123 0 l 1,16,-1
 46 0 l 1,0,-1
EndSplineSet
EndChar

StartChar: O
Encoding: 79 79 50
Width: 690
GlyphClass: 2
Flags: W
LayerCount: 2
Fore
SplineSet
60 367 m 0,0,1
 89 540 89 540 188.5 646.5 c 128,-1,2
 288 753 288 753 424 753 c 0,3,4
 562 753 562 753 624.5 647 c 128,-1,5
 687 541 687 541 658 366 c 0,6,7
 629 189 629 189 531 85.5 c 128,-1,8
 433 -18 433 -18 296 -18 c 256,9,10
 160 -18 160 -18 95.5 86.5 c 128,-1,11
 31 191 31 191 60 367 c 0,0,1
139 367 m 0,12,13
 115 222 115 222 160.5 136 c 128,-1,14
 206 50 206 50 308 50 c 0,15,16
 408 50 408 50 481.5 134.5 c 128,-1,17
 555 219 555 219 579 366 c 0,18,19
 603 511 603 511 560 598.5 c 128,-1,20
 517 686 517 686 413 686 c 0,21,22
 311 686 311 686 237 599.5 c 128,-1,23
 163 513 163 513 139 367 c 0,12,13
EndSplineSet
Substitution2: "Single Substitution lookup 12 subtable" ordmasculine
EndChar

StartChar: P
Encoding: 80 80 51
Width: 627
GlyphClass: 2
Flags: W
LayerCount: 2
Fore
SplineSet
46 0 m 1,0,-1
 167 735 l 1,1,-1
 439 735 l 2,2,3
 544 735 544 735 595 676 c 128,-1,4
 646 617 646 617 630 520 c 0,5,6
 613 420 613 420 541.5 362 c 128,-1,7
 470 304 470 304 368 304 c 2,8,-1
 174 304 l 1,9,-1
 123 0 l 1,10,-1
 46 0 l 1,0,-1
184 370 m 1,11,-1
 367 370 l 2,12,13
 443 370 443 370 491 408 c 128,-1,14
 539 446 539 446 551 520 c 0,15,16
 563 593 563 593 528 630.5 c 128,-1,17
 493 668 493 668 414 668 c 2,18,-1
 234 668 l 1,19,-1
 184 370 l 1,11,-1
EndSplineSet
EndChar

StartChar: Q
Encoding: 81 81 52
Width: 690
GlyphClass: 2
Flags: W
LayerCount: 2
Fore
SplineSet
60 366 m 0,0,1
 89 542 89 542 189 647.5 c 128,-1,2
 289 753 289 753 424 753 c 0,3,4
 561 753 561 753 624 647 c 128,-1,5
 687 541 687 541 658 366 c 0,6,7
 629 193 629 193 532 88 c 0,8,9
 530 85 530 85 527 82 c 2,10,-1
 596 -5 l 1,11,-1
 539 -50 l 1,12,-1
 472 35 l 1,13,14
 395 -18 395 -18 296 -18 c 0,15,16
 159 -18 159 -18 95 87.5 c 128,-1,17
 31 193 31 193 60 366 c 0,0,1
321 224 m 1,18,-1
 379 270 l 1,19,-1
 484 137 l 1,20,21
 556 222 556 222 579 366 c 0,22,23
 604 517 604 517 558.5 601.5 c 128,-1,24
 513 686 513 686 413 686 c 0,25,26
 312 686 312 686 237.5 600 c 128,-1,27
 163 514 163 514 138 366 c 0,28,29
 114 221 114 221 160.5 135.5 c 128,-1,30
 207 50 207 50 308 50 c 0,31,32
 375 50 375 50 429 87 c 1,33,-1
 321 224 l 1,18,-1
EndSplineSet
EndChar

StartChar: R
Encoding: 82 82 53
Width: 641
GlyphClass: 2
Flags: W
LayerCount: 2
Fore
SplineSet
187 385 m 1,0,-1
 381 385 l 2,1,2
 453 385 453 385 498.5 424 c 128,-1,3
 544 463 544 463 555 528 c 0,4,5
 565 591 565 591 530 629.5 c 128,-1,6
 495 668 495 668 420 668 c 2,7,-1
 234 668 l 1,8,-1
 187 385 l 1,0,-1
46 0 m 1,9,-1
 167 735 l 1,10,-1
 449 735 l 2,11,12
 555 735 555 735 601.5 676.5 c 128,-1,13
 648 618 648 618 634 533 c 0,14,15
 621 455 621 455 575 407 c 128,-1,16
 529 359 529 359 480 346 c 1,17,18
 517 325 517 325 530 293.5 c 128,-1,19
 543 262 543 262 545 206 c 0,20,21
 549 151 549 151 551 131 c 128,-1,22
 553 111 553 111 560.5 73.5 c 128,-1,23
 568 36 568 36 583 0 c 1,24,-1
 496 0 l 1,25,26
 485 31 485 31 478 67 c 128,-1,27
 471 103 471 103 468.5 126 c 128,-1,28
 466 149 466 149 464 200 c 0,29,30
 460 255 460 255 440 286.5 c 128,-1,31
 420 318 420 318 364 318 c 2,32,-1
 176 318 l 1,33,-1
 123 0 l 1,34,-1
 46 0 l 1,9,-1
EndSplineSet
EndChar

StartChar: S
Encoding: 83 83 54
Width: 591
GlyphClass: 2
Flags: W
LayerCount: 2
Fore
SplineSet
11 138 m 1,0,-1
 87 164 l 1,1,2
 133 50 133 50 268 50 c 0,3,4
 343 50 343 50 396.5 87.5 c 128,-1,5
 450 125 450 125 461 189 c 0,6,7
 466 222 466 222 456.5 247 c 128,-1,8
 447 272 447 272 420.5 290.5 c 128,-1,9
 394 309 394 309 371 320 c 128,-1,10
 348 331 348 331 307 345 c 0,11,12
 275 357 275 357 261 362 c 128,-1,13
 247 367 247 367 218.5 380 c 128,-1,14
 190 393 190 393 176.5 402.5 c 128,-1,15
 163 412 163 412 143.5 429 c 128,-1,16
 124 446 124 446 116.5 464 c 128,-1,17
 109 482 109 482 105.5 507 c 128,-1,18
 102 532 102 532 107 560 c 0,19,20
 122 648 122 648 195.5 700.5 c 128,-1,21
 269 753 269 753 379 753 c 0,22,23
 462 753 462 753 517.5 713.5 c 128,-1,24
 573 674 573 674 591 615 c 1,25,-1
 522 592 l 1,26,27
 481 686 481 686 366 686 c 0,28,29
 292 686 292 686 243.5 651.5 c 128,-1,30
 195 617 195 617 185 560 c 0,31,32
 181 535 181 535 189 513 c 128,-1,33
 197 491 197 491 208.5 477.5 c 128,-1,34
 220 464 220 464 249 449 c 128,-1,35
 278 434 278 434 294.5 427.5 c 128,-1,36
 311 421 311 421 350 407 c 0,37,38
 358 404 358 404 363 402 c 0,39,40
 408 387 408 387 437 372 c 128,-1,41
 466 357 466 357 496 332.5 c 128,-1,42
 526 308 526 308 536.5 273 c 128,-1,43
 547 238 547 238 540 192 c 0,44,45
 524 93 524 93 447 37.5 c 128,-1,46
 370 -18 370 -18 255 -18 c 0,47,48
 157 -18 157 -18 96 24.5 c 128,-1,49
 35 67 35 67 11 138 c 1,0,-1
EndSplineSet
EndChar

StartChar: T
Encoding: 84 84 55
Width: 535
GlyphClass: 2
Flags: W
LayerCount: 2
Fore
SplineSet
75 668 m 1,0,-1
 86 735 l 1,1,-1
 601 735 l 1,2,-1
 590 668 l 1,3,-1
 370 668 l 1,4,-1
 260 0 l 1,5,-1
 183 0 l 1,6,-1
 294 668 l 1,7,-1
 75 668 l 1,0,-1
EndSplineSet
EndChar

StartChar: U
Encoding: 85 85 56
Width: 690
GlyphClass: 2
Flags: W
LayerCount: 2
Fore
SplineSet
88 266 m 2,0,-1
 166 735 l 1,1,-1
 243 735 l 1,2,-1
 166 268 l 2,3,4
 148 158 148 158 188.5 104 c 128,-1,5
 229 50 229 50 306 50 c 0,6,7
 386 50 386 50 445 105.5 c 128,-1,8
 504 161 504 161 522 268 c 2,9,-1
 599 735 l 1,10,-1
 675 735 l 1,11,-1
 598 266 l 2,12,13
 576 132 576 132 497 57 c 128,-1,14
 418 -18 418 -18 295 -18 c 0,15,16
 174 -18 174 -18 119.5 56 c 128,-1,17
 65 130 65 130 88 266 c 2,0,-1
EndSplineSet
EndChar

StartChar: V
Encoding: 86 86 57
Width: 574
GlyphClass: 2
Flags: W
LayerCount: 2
Fore
SplineSet
73 735 m 1,0,-1
 157 735 l 1,1,-1
 230 230 l 2,2,3
 234 204 234 204 240.5 155.5 c 128,-1,4
 247 107 247 107 250 78 c 1,5,-1
 254 78 l 1,6,7
 268 108 268 108 290.5 155.5 c 128,-1,8
 313 203 313 203 325 230 c 2,9,-1
 567 735 l 1,10,-1
 652 735 l 1,11,-1
 287 0 l 1,12,-1
 193 0 l 1,13,-1
 73 735 l 1,0,-1
EndSplineSet
EndChar

StartChar: W
Encoding: 87 87 58
Width: 832
GlyphClass: 2
Flags: W
LayerCount: 2
Fore
SplineSet
85 735 m 1,0,-1
 169 735 l 1,1,-1
 189 238 l 2,2,3
 190 133 190 133 189 88 c 1,4,-1
 195 88 l 1,5,6
 238 206 238 206 250 238 c 2,7,-1
 449 735 l 1,8,-1
 532 735 l 1,9,-1
 568 238 l 2,10,11
 572 177 572 177 573 88 c 1,12,-1
 577 88 l 1,13,14
 580 98 580 98 629 238 c 2,15,-1
 814 735 l 1,16,-1
 898 735 l 1,17,-1
 607 0 l 1,18,-1
 517 0 l 1,19,-1
 481 491 l 1,20,21
 477 619 477 619 477 635 c 1,22,-1
 473 635 l 1,23,24
 464 608 464 608 443.5 556 c 128,-1,25
 423 504 423 504 419 491 c 2,26,-1
 223 0 l 1,27,-1
 133 0 l 1,28,-1
 85 735 l 1,0,-1
EndSplineSet
EndChar

StartChar: X
Encoding: 88 88 59
Width: 566
GlyphClass: 2
Flags: W
LayerCount: 2
Fore
SplineSet
-49 0 m 1,0,-1
 250 378 l 1,1,-1
 85 735 l 1,2,-1
 181 735 l 1,3,-1
 257 557 l 2,4,5
 267 535 267 535 285 490.5 c 128,-1,6
 303 446 303 446 307 438 c 1,7,-1
 310 438 l 1,8,9
 326 460 326 460 357.5 501 c 128,-1,10
 389 542 389 542 401 557 c 2,11,-1
 536 735 l 1,12,-1
 632 735 l 1,13,-1
 347 378 l 1,14,-1
 523 0 l 1,15,-1
 428 0 l 1,16,-1
 345 184 l 2,17,18
 335 207 335 207 315 254.5 c 128,-1,19
 295 302 295 302 289 315 c 1,20,-1
 287 315 l 1,21,22
 235 245 235 245 188 184 c 2,23,-1
 45 0 l 1,24,-1
 -49 0 l 1,0,-1
EndSplineSet
EndChar

StartChar: Y
Encoding: 89 89 60
Width: 580
GlyphClass: 2
Flags: W
LayerCount: 2
Fore
SplineSet
71 735 m 1,0,-1
 163 735 l 1,1,-1
 250 510 l 2,2,3
 280 432 280 432 303 372 c 1,4,-1
 305 372 l 1,5,6
 324 398 324 398 362.5 451 c 128,-1,7
 401 504 401 504 405 510 c 2,8,-1
 565 735 l 1,9,-1
 658 735 l 1,10,-1
 333 302 l 1,11,-1
 283 0 l 1,12,-1
 205 0 l 1,13,-1
 255 302 l 1,14,-1
 71 735 l 1,0,-1
EndSplineSet
EndChar

StartChar: Z
Encoding: 90 90 61
Width: 589
GlyphClass: 2
Flags: W
LayerCount: 2
Fore
SplineSet
4 58 m 1,0,-1
 510 668 l 1,1,-1
 136 668 l 1,2,-1
 147 735 l 1,3,-1
 615 735 l 1,4,-1
 606 676 l 1,5,-1
 97 67 l 1,6,-1
 515 67 l 1,7,-1
 504 0 l 1,8,-1
 -6 0 l 1,9,-1
 4 58 l 1,0,-1
EndSplineSet
EndChar

StartChar: bracketleft
Encoding: 91 91 62
Width: 420
GlyphClass: 2
Flags: W
LayerCount: 2
Fore
SplineSet
66 -128 m 1,0,-1
 225 832 l 1,1,-1
 426 832 l 1,2,-1
 416 769 l 1,3,-1
 290 769 l 1,4,-1
 151 -66 l 1,5,-1
 278 -66 l 1,6,-1
 267 -128 l 1,7,-1
 66 -128 l 1,0,-1
EndSplineSet
EndChar

StartChar: backslash
Encoding: 92 92 63
Width: 315
GlyphClass: 2
Flags: W
LayerCount: 2
Fore
SplineSet
70 781 m 1,0,-1
 148 781 l 1,1,-1
 273 -56 l 1,2,-1
 196 -56 l 1,3,-1
 70 781 l 1,0,-1
EndSplineSet
EndChar

StartChar: bracketright
Encoding: 93 93 64
Width: 420
GlyphClass: 2
Flags: W
LayerCount: 2
Fore
SplineSet
26 -66 m 1,0,-1
 153 -66 l 1,1,-1
 291 769 l 1,2,-1
 164 769 l 1,3,-1
 174 832 l 1,4,-1
 376 832 l 1,5,-1
 217 -128 l 1,6,-1
 16 -128 l 1,7,-1
 26 -66 l 1,0,-1
EndSplineSet
EndChar

StartChar: asciicircum
Encoding: 94 94 65
Width: 485
GlyphClass: 2
Flags: W
LayerCount: 2
Fore
SplineSet
47 477 m 1,0,-1
 293 808 l 1,1,-1
 366 808 l 1,2,-1
 503 477 l 1,3,-1
 425 477 l 1,4,-1
 320 747 l 1,5,-1
 124 477 l 1,6,-1
 47 477 l 1,0,-1
EndSplineSet
EndChar

StartChar: underscore
Encoding: 95 95 66
Width: 440
GlyphClass: 2
Flags: W
LayerCount: 2
Fore
SplineSet
-44 -17 m 1,0,-1
 387 -17 l 1,1,-1
 377 -79 l 1,2,-1
 -55 -79 l 1,3,-1
 -44 -17 l 1,0,-1
EndSplineSet
EndChar

StartChar: grave
Encoding: 96 96 67
Width: 287
GlyphClass: 2
Flags: W
LayerCount: 2
Fore
SplineSet
199 537 m 1,0,-1
 121 824 l 1,1,-1
 228 824 l 1,2,-1
 260 537 l 1,3,-1
 199 537 l 1,0,-1
EndSplineSet
EndChar

StartChar: a
Encoding: 97 97 68
Width: 518
GlyphClass: 2
Flags: W
LayerCount: 2
Fore
SplineSet
85 135 m 0,0,1
 79 98 79 98 104.5 72 c 128,-1,2
 130 46 130 46 182 46 c 0,3,4
 248 46 248 46 302.5 91 c 128,-1,5
 357 136 357 136 368 206 c 2,6,-1
 381 280 l 1,7,8
 338 269 338 269 246 254 c 0,9,10
 171 240 171 240 132 212 c 128,-1,11
 93 184 93 184 85 135 c 0,0,1
12 130 m 0,12,13
 36 277 36 277 258 312 c 0,14,15
 357 329 357 329 391 340 c 1,16,-1
 396 370 l 2,17,18
 404 419 404 419 376 451.5 c 128,-1,19
 348 484 348 484 286 484 c 0,20,21
 241 484 241 484 196 462 c 128,-1,22
 151 440 151 440 116 402 c 1,23,-1
 77 444 l 1,24,25
 121 489 121 489 178.5 517.5 c 128,-1,26
 236 546 236 546 295 546 c 0,27,28
 496 546 496 546 461 339 c 2,29,-1
 405 0 l 1,30,-1
 336 0 l 1,31,-1
 351 86 l 1,32,33
 330 44 330 44 277.5 13 c 128,-1,34
 225 -18 225 -18 163 -18 c 0,35,36
 80 -18 80 -18 40.5 23.5 c 128,-1,37
 1 65 1 65 12 130 c 0,12,13
EndSplineSet
Substitution2: "Single Substitution lookup 12 subtable" ordfeminine
EndChar

StartChar: b
Encoding: 98 98 69
Width: 549
GlyphClass: 2
Flags: W
LayerCount: 2
Fore
SplineSet
29 0 m 1,0,-1
 156 762 l 1,1,-1
 226 762 l 1,2,-1
 172 434 l 1,3,4
 192 475 192 475 239.5 510.5 c 128,-1,5
 287 546 287 546 343 546 c 0,6,7
 436 546 436 546 482 470.5 c 128,-1,8
 528 395 528 395 507 265 c 0,9,10
 495 192 495 192 466 135.5 c 128,-1,11
 437 79 437 79 401 47 c 128,-1,12
 365 15 365 15 326.5 -1.5 c 128,-1,13
 288 -18 288 -18 250 -18 c 0,14,15
 197 -18 197 -18 161.5 15 c 128,-1,16
 126 48 126 48 116 94 c 1,17,-1
 100 0 l 1,18,-1
 29 0 l 1,0,-1
142 265 m 0,19,20
 125 165 125 165 157.5 105.5 c 128,-1,21
 190 46 190 46 251 46 c 0,22,23
 316 46 316 46 367 104.5 c 128,-1,24
 418 163 418 163 435 265 c 0,25,26
 451 364 451 364 420 423 c 128,-1,27
 389 482 389 482 323 482 c 0,28,29
 262 482 262 482 210 423 c 128,-1,30
 158 364 158 364 142 265 c 0,19,20
EndSplineSet
EndChar

StartChar: c
Encoding: 99 99 70
Width: 475
GlyphClass: 2
Flags: W
LayerCount: 2
Fore
SplineSet
36 264 m 0,0,1
 57 390 57 390 130.5 468 c 128,-1,2
 204 546 204 546 306 546 c 0,3,4
 372 546 372 546 413.5 505 c 128,-1,5
 455 464 455 464 462 408 c 1,6,-1
 397 390 l 1,7,8
 390 429 390 429 363 455.5 c 128,-1,9
 336 482 336 482 295 482 c 0,10,11
 226 482 226 482 175 420 c 128,-1,12
 124 358 124 358 108 264 c 0,13,14
 91 164 91 164 124.5 105 c 128,-1,15
 158 46 158 46 223 46 c 0,16,17
 267 46 267 46 307.5 76 c 128,-1,18
 348 106 348 106 370 145 c 1,19,-1
 428 125 l 1,20,21
 398 66 398 66 339.5 24 c 128,-1,22
 281 -18 281 -18 213 -18 c 0,23,24
 113 -18 113 -18 64 58.5 c 128,-1,25
 15 135 15 135 36 264 c 0,0,1
EndSplineSet
EndChar

StartChar: d
Encoding: 100 100 71
Width: 549
GlyphClass: 2
Flags: W
LayerCount: 2
Fore
SplineSet
36 265 m 0,0,1
 58 395 58 395 130 470.5 c 128,-1,2
 202 546 202 546 293 546 c 0,3,4
 348 546 348 546 382.5 512.5 c 128,-1,5
 417 479 417 479 427 436 c 1,6,-1
 481 762 l 1,7,-1
 551 762 l 1,8,-1
 425 0 l 1,9,-1
 357 0 l 1,10,-1
 373 95 l 1,11,12
 345 46 345 46 299.5 14 c 128,-1,13
 254 -18 254 -18 200 -18 c 0,14,15
 162 -18 162 -18 128.5 -1.5 c 128,-1,16
 95 15 95 15 69 47 c 128,-1,17
 43 79 43 79 33.5 135 c 128,-1,18
 24 191 24 191 36 265 c 0,0,1
108 265 m 0,19,20
 92 166 92 166 123 106 c 128,-1,21
 154 46 154 46 219 46 c 0,22,23
 280 46 280 46 332 105.5 c 128,-1,24
 384 165 384 165 401 265 c 0,25,26
 417 364 417 364 384.5 423 c 128,-1,27
 352 482 352 482 292 482 c 0,28,29
 226 482 226 482 175 422.5 c 128,-1,30
 124 363 124 363 108 265 c 0,19,20
EndSplineSet
EndChar

StartChar: e
Encoding: 101 101 72
Width: 522
GlyphClass: 2
Flags: W
LayerCount: 2
Fore
SplineSet
36 268 m 0,0,1
 57 392 57 392 133 469 c 128,-1,2
 209 546 209 546 310 546 c 0,3,4
 412 546 412 546 457.5 470.5 c 128,-1,5
 503 395 503 395 484 279 c 0,6,7
 482 265 482 265 476 239 c 1,8,-1
 104 239 l 1,9,10
 91 160 91 160 123.5 103 c 128,-1,11
 156 46 156 46 231 46 c 0,12,13
 279 46 279 46 320 70 c 128,-1,14
 361 94 361 94 389 134 c 1,15,-1
 446 115 l 1,16,17
 414 57 414 57 355.5 19.5 c 128,-1,18
 297 -18 297 -18 220 -18 c 0,19,20
 116 -18 116 -18 65.5 60.5 c 128,-1,21
 15 139 15 139 36 268 c 0,0,1
116 297 m 1,22,-1
 416 297 l 1,23,24
 429 375 429 375 397.5 428.5 c 128,-1,25
 366 482 366 482 299 482 c 0,26,27
 231 482 231 482 180.5 427 c 128,-1,28
 130 372 130 372 116 297 c 1,22,-1
EndSplineSet
EndChar

StartChar: f
Encoding: 102 102 73
Width: 317
GlyphClass: 2
Flags: W
LayerCount: 2
Fore
SplineSet
52 464 m 1,0,-1
 62 528 l 1,1,-1
 148 528 l 1,2,-1
 161 609 l 2,3,4
 174 687 174 687 217 724.5 c 128,-1,5
 260 762 260 762 326 762 c 2,6,-1
 391 762 l 1,7,-1
 381 700 l 1,8,-1
 325 700 l 2,9,10
 248 700 248 700 231 602 c 2,11,-1
 219 528 l 1,12,-1
 339 528 l 1,13,-1
 328 464 l 1,14,-1
 209 464 l 1,15,-1
 132 0 l 1,16,-1
 60 0 l 1,17,-1
 137 464 l 1,18,-1
 52 464 l 1,0,-1
EndSplineSet
EndChar

StartChar: g
Encoding: 103 103 74
Width: 536
GlyphClass: 2
Flags: W
LayerCount: 2
Fore
SplineSet
110 274 m 0,0,1
 95 181 95 181 124 123.5 c 128,-1,2
 153 66 153 66 217 66 c 0,3,4
 282 66 282 66 328.5 121 c 128,-1,5
 375 176 375 176 391 275 c 0,6,7
 407 371 407 371 378 426.5 c 128,-1,8
 349 482 349 482 288 482 c 0,9,10
 222 482 222 482 173.5 423.5 c 128,-1,11
 125 365 125 365 110 274 c 0,0,1
37 273 m 0,12,13
 57 395 57 395 127.5 470.5 c 128,-1,14
 198 546 198 546 289 546 c 0,15,16
 347 546 347 546 378.5 514.5 c 128,-1,17
 410 483 410 483 419 442 c 1,18,-1
 433 528 l 1,19,-1
 504 528 l 1,20,-1
 426 62 l 2,21,22
 401 -88 401 -88 338.5 -161.5 c 128,-1,23
 276 -235 276 -235 165 -235 c 0,24,25
 45 -235 45 -235 -4 -138 c 1,26,-1
 51 -104 l 1,27,28
 97 -173 97 -173 177 -173 c 0,29,30
 243 -173 243 -173 289 -118.5 c 128,-1,31
 335 -64 335 -64 350 27 c 2,32,-1
 363 103 l 1,33,34
 336 59 336 59 294.5 30.5 c 128,-1,35
 253 2 253 2 201 2 c 0,36,37
 106 2 106 2 61.5 78 c 128,-1,38
 17 154 17 154 37 273 c 0,12,13
EndSplineSet
EndChar

StartChar: h
Encoding: 104 104 75
Width: 531
GlyphClass: 2
Flags: W
LayerCount: 2
Fore
SplineSet
29 0 m 1,0,-1
 156 762 l 1,1,-1
 226 762 l 1,2,-1
 173 443 l 1,3,-1
 175 443 l 1,4,5
 201 485 201 485 247.5 515.5 c 128,-1,6
 294 546 294 546 347 546 c 0,7,8
 509 546 509 546 475 341 c 2,9,-1
 418 0 l 1,10,-1
 348 0 l 1,11,-1
 402 329 l 2,12,13
 427 482 427 482 323 482 c 0,14,15
 265 482 265 482 214 432 c 128,-1,16
 163 382 163 382 152 313 c 2,17,-1
 100 0 l 1,18,-1
 29 0 l 1,0,-1
EndSplineSet
Substitution2: "'sups' Superscript lookup 5 subtable" uni02B0
Substitution2: "'aalt' Access All Alternates lookup 0 subtable" uni02B0
EndChar

StartChar: i
Encoding: 105 105 76
Width: 248
GlyphClass: 2
Flags: W
LayerCount: 2
Fore
SplineSet
138 647 m 1,0,-1
 155 746 l 1,1,-1
 246 746 l 1,2,-1
 230 647 l 1,3,-1
 138 647 l 1,0,-1
43 0 m 1,4,-1
 130 528 l 1,5,-1
 200 528 l 1,6,-1
 113 0 l 1,7,-1
 43 0 l 1,4,-1
EndSplineSet
EndChar

StartChar: j
Encoding: 106 106 77
Width: 257
GlyphClass: 2
Flags: W
LayerCount: 2
Fore
SplineSet
146 647 m 1,0,-1
 162 746 l 1,1,-1
 255 746 l 1,2,-1
 238 647 l 1,3,-1
 146 647 l 1,0,-1
-83 -160 m 1,4,-1
 -60 -160 l 2,5,6
 24 -160 24 -160 44 -38 c 2,7,-1
 138 528 l 1,8,-1
 208 528 l 1,9,-1
 114 -42 l 2,10,11
 99 -131 99 -131 54 -177.5 c 128,-1,12
 9 -224 9 -224 -59 -224 c 2,13,-1
 -93 -224 l 1,14,-1
 -83 -160 l 1,4,-1
EndSplineSet
Substitution2: "'sups' Superscript lookup 5 subtable" uni02B2
Substitution2: "'aalt' Access All Alternates lookup 0 subtable" uni02B2
EndChar

StartChar: k
Encoding: 107 107 78
Width: 478
GlyphClass: 2
Flags: W
LayerCount: 2
Fore
SplineSet
31 0 m 1,0,-1
 157 762 l 1,1,-1
 230 762 l 1,2,-1
 147 263 l 1,3,-1
 410 528 l 1,4,-1
 505 528 l 1,5,-1
 290 317 l 1,6,-1
 437 0 l 1,7,-1
 350 0 l 1,8,-1
 235 264 l 1,9,-1
 130 161 l 1,10,-1
 104 0 l 1,11,-1
 31 0 l 1,0,-1
EndSplineSet
EndChar

StartChar: l
Encoding: 108 108 79
Width: 234
GlyphClass: 2
Flags: W
LayerCount: 2
Fore
SplineSet
35 0 m 1,0,-1
 161 762 l 1,1,-1
 232 762 l 1,2,-1
 105 0 l 1,3,-1
 35 0 l 1,0,-1
EndSplineSet
Substitution2: "'sups' Superscript lookup 5 subtable" uni02E1
Substitution2: "'aalt' Access All Alternates lookup 0 subtable" uni02E1
EndChar

StartChar: m
Encoding: 109 109 80
Width: 783
GlyphClass: 2
Flags: W
LayerCount: 2
Fore
SplineSet
25 0 m 1,0,-1
 112 528 l 1,1,-1
 182 528 l 1,2,-1
 169 448 l 1,3,4
 188 485 188 485 229 515.5 c 128,-1,5
 270 546 270 546 326 546 c 0,6,7
 381 546 381 546 404.5 513 c 128,-1,8
 428 480 428 480 435 428 c 1,9,10
 442 441 442 441 455 457.5 c 128,-1,11
 468 474 468 474 490 495.5 c 128,-1,12
 512 517 512 517 545.5 531.5 c 128,-1,13
 579 546 579 546 616 546 c 0,14,15
 761 546 761 546 727 341 c 2,16,-1
 671 0 l 1,17,-1
 599 0 l 1,18,-1
 655 336 l 2,19,20
 667 408 667 408 654.5 445 c 128,-1,21
 642 482 642 482 590 482 c 0,22,23
 536 482 536 482 491.5 434.5 c 128,-1,24
 447 387 447 387 434 314 c 2,25,-1
 382 0 l 1,26,-1
 313 0 l 1,27,-1
 369 337 l 2,28,29
 393 482 393 482 302 482 c 0,30,31
 245 482 245 482 203 437 c 128,-1,32
 161 392 161 392 149 319 c 2,33,-1
 96 0 l 1,34,-1
 25 0 l 1,0,-1
EndSplineSet
EndChar

StartChar: n
Encoding: 110 110 81
Width: 527
GlyphClass: 2
Flags: W
LayerCount: 2
Fore
SplineSet
25 0 m 1,0,-1
 112 528 l 1,1,-1
 182 528 l 1,2,-1
 167 438 l 1,3,-1
 168 438 l 1,4,5
 186 477 186 477 235 511.5 c 128,-1,6
 284 546 284 546 345 546 c 0,7,8
 414 546 414 546 452 499.5 c 128,-1,9
 490 453 490 453 471 341 c 2,10,-1
 415 0 l 1,11,-1
 342 0 l 1,12,-1
 397 329 l 2,13,14
 422 482 422 482 318 482 c 0,15,16
 260 482 260 482 210 433 c 128,-1,17
 160 384 160 384 148 315 c 2,18,-1
 96 0 l 1,19,-1
 25 0 l 1,0,-1
EndSplineSet
Substitution2: "'sups' Superscript lookup 5 subtable" uni207F
Substitution2: "'aalt' Access All Alternates lookup 0 subtable" uni207F
EndChar

StartChar: o
Encoding: 111 111 82
Width: 527
GlyphClass: 2
Flags: W
LayerCount: 2
Fore
SplineSet
108 264 m 0,0,1
 91 164 91 164 125.5 105 c 128,-1,2
 160 46 160 46 225 46 c 0,3,4
 289 46 289 46 343.5 105 c 128,-1,5
 398 164 398 164 414 264 c 0,6,7
 431 366 431 366 395.5 424 c 128,-1,8
 360 482 360 482 297 482 c 0,9,10
 232 482 232 482 178.5 424 c 128,-1,11
 125 366 125 366 108 264 c 0,0,1
36 264 m 0,12,13
 56 385 56 385 128.5 465.5 c 128,-1,14
 201 546 201 546 308 546 c 0,15,16
 414 546 414 546 460 465.5 c 128,-1,17
 506 385 506 385 486 264 c 0,18,19
 478 213 478 213 457.5 165 c 128,-1,20
 437 117 437 117 404.5 75 c 128,-1,21
 372 33 372 33 322 7.5 c 128,-1,22
 272 -18 272 -18 214 -18 c 256,23,24
 156 -18 156 -18 115.5 7 c 128,-1,25
 75 32 75 32 56.5 74 c 128,-1,26
 38 116 38 116 32.5 164 c 128,-1,27
 27 212 27 212 36 264 c 0,12,13
EndSplineSet
Substitution2: "Single Substitution lookup 12 subtable" ordmasculine
EndChar

StartChar: p
Encoding: 112 112 83
Width: 549
GlyphClass: 2
Flags: W
LayerCount: 2
Fore
SplineSet
144 265 m 0,0,1
 128 167 128 167 156 106.5 c 128,-1,2
 184 46 184 46 251 46 c 0,3,4
 315 46 315 46 366.5 105 c 128,-1,5
 418 164 418 164 435 265 c 0,6,7
 451 360 451 360 421.5 421 c 128,-1,8
 392 482 392 482 323 482 c 0,9,10
 259 482 259 482 209.5 420.5 c 128,-1,11
 160 359 160 359 144 265 c 0,0,1
-9 -231 m 1,12,-1
 117 528 l 1,13,-1
 185 528 l 1,14,-1
 170 433 l 1,15,16
 200 484 200 484 245.5 515 c 128,-1,17
 291 546 291 546 343 546 c 0,18,19
 434 546 434 546 481 469.5 c 128,-1,20
 528 393 528 393 507 265 c 0,21,22
 484 129 484 129 409.5 55.5 c 128,-1,23
 335 -18 335 -18 250 -18 c 0,24,25
 194 -18 194 -18 160 13 c 128,-1,26
 126 44 126 44 115 91 c 1,27,-1
 62 -231 l 1,28,-1
 -9 -231 l 1,12,-1
EndSplineSet
EndChar

StartChar: q
Encoding: 113 113 84
Width: 547
GlyphClass: 2
Flags: W
LayerCount: 2
Fore
SplineSet
108 265 m 0,0,1
 91 165 91 165 123 105.5 c 128,-1,2
 155 46 155 46 219 46 c 256,3,4
 284 46 284 46 333.5 106.5 c 128,-1,5
 383 167 383 167 399 265 c 0,6,7
 415 361 415 361 384.5 421.5 c 128,-1,8
 354 482 354 482 292 482 c 0,9,10
 222 482 222 482 173 421 c 128,-1,11
 124 360 124 360 108 265 c 0,0,1
36 265 m 0,12,13
 57 394 57 394 129 470 c 128,-1,14
 201 546 201 546 293 546 c 0,15,16
 344 546 344 546 379.5 515.5 c 128,-1,17
 415 485 415 485 429 433 c 1,18,-1
 445 528 l 1,19,-1
 512 528 l 1,20,-1
 387 -231 l 1,21,-1
 317 -231 l 1,22,-1
 370 91 l 1,23,24
 343 44 343 44 298.5 13 c 128,-1,25
 254 -18 254 -18 200 -18 c 0,26,27
 115 -18 115 -18 64 55.5 c 128,-1,28
 13 129 13 129 36 265 c 0,12,13
EndSplineSet
EndChar

StartChar: r
Encoding: 114 114 85
Width: 345
GlyphClass: 2
Flags: W
LayerCount: 2
Fore
SplineSet
25 0 m 1,0,-1
 112 528 l 1,1,-1
 180 528 l 1,2,-1
 167 451 l 1,3,4
 188 487 188 487 227.5 516.5 c 128,-1,5
 267 546 267 546 321 546 c 0,6,7
 362 546 362 546 390 532 c 1,8,-1
 378 463 l 1,9,10
 347 477 347 477 309 477 c 0,11,12
 246 477 246 477 202.5 427 c 128,-1,13
 159 377 159 377 145 294 c 2,14,-1
 96 0 l 1,15,-1
 25 0 l 1,0,-1
EndSplineSet
Substitution2: "'sups' Superscript lookup 5 subtable" uni02B3
Substitution2: "'aalt' Access All Alternates lookup 0 subtable" uni02B3
EndChar

StartChar: s
Encoding: 115 115 86
Width: 463
GlyphClass: 2
Flags: W
LayerCount: 2
Fore
SplineSet
2 104 m 1,0,-1
 61 137 l 1,1,2
 101 46 101 46 195 46 c 0,3,4
 252 46 252 46 290 67.5 c 128,-1,5
 328 89 328 89 334 131 c 0,6,7
 337 148 337 148 331 162.5 c 128,-1,8
 325 177 325 177 316.5 186 c 128,-1,9
 308 195 308 195 285 206.5 c 128,-1,10
 262 218 262 218 246.5 223.5 c 128,-1,11
 231 229 231 229 196 241 c 0,12,13
 166 252 166 252 144 263 c 128,-1,14
 122 274 122 274 100 292 c 128,-1,15
 78 310 78 310 69 336.5 c 128,-1,16
 60 363 60 363 66 397 c 0,17,18
 77 463 77 463 134 504.5 c 128,-1,19
 191 546 191 546 278 546 c 0,20,21
 340 546 340 546 385 511.5 c 128,-1,22
 430 477 430 477 445 431 c 1,23,-1
 391 397 l 1,24,25
 378 432 378 432 345 457 c 128,-1,26
 312 482 312 482 267 482 c 0,27,28
 210 482 210 482 177.5 459 c 128,-1,29
 145 436 145 436 138 396 c 0,30,31
 134 374 134 374 142 356 c 128,-1,32
 150 338 150 338 170.5 324.5 c 128,-1,33
 191 311 191 311 209 303.5 c 128,-1,34
 227 296 227 296 257 286 c 0,35,36
 282 277 282 277 301.5 269 c 128,-1,37
 321 261 321 261 344 247.5 c 128,-1,38
 367 234 367 234 381.5 218.5 c 128,-1,39
 396 203 396 203 403 180 c 128,-1,40
 410 157 410 157 406 131 c 0,41,42
 396 68 396 68 336 25 c 128,-1,43
 276 -18 276 -18 184 -18 c 0,44,45
 118 -18 118 -18 71.5 14 c 128,-1,46
 25 46 25 46 2 104 c 1,0,-1
EndSplineSet
Substitution2: "'hist' Historical Forms lookup 11 subtable" longs
Substitution2: "'sups' Superscript lookup 5 subtable" uni02E2
AlternateSubs2: "'aalt' Access All Alternates lookup 1 subtable" uni02E2 longs
EndChar

StartChar: t
Encoding: 116 116 87
Width: 337
GlyphClass: 2
Flags: W
LayerCount: 2
Fore
SplineSet
48 464 m 1,0,-1
 59 528 l 1,1,-1
 146 528 l 1,2,-1
 174 697 l 1,3,-1
 245 697 l 1,4,-1
 217 528 l 1,5,-1
 350 528 l 1,6,-1
 340 464 l 1,7,-1
 207 464 l 1,8,-1
 156 155 l 2,9,10
 148 106 148 106 162.5 85.5 c 128,-1,11
 177 65 177 65 216 65 c 2,12,-1
 274 65 l 1,13,-1
 263 0 l 1,14,-1
 196 0 l 2,15,16
 59 0 59 0 83 148 c 2,17,-1
 135 464 l 1,18,-1
 48 464 l 1,0,-1
EndSplineSet
EndChar

StartChar: u
Encoding: 117 117 88
Width: 524
GlyphClass: 2
Flags: W
LayerCount: 2
Fore
SplineSet
50 185 m 2,0,-1
 107 528 l 1,1,-1
 178 528 l 1,2,-1
 124 201 l 2,3,4
 98 46 98 46 207 46 c 0,5,6
 273 46 273 46 317 100 c 128,-1,7
 361 154 361 154 373 228 c 2,8,-1
 422 528 l 1,9,-1
 493 528 l 1,10,-1
 406 0 l 1,11,-1
 337 0 l 1,12,-1
 351 85 l 1,13,14
 338 53 338 53 294 17.5 c 128,-1,15
 250 -18 250 -18 179 -18 c 0,16,17
 108 -18 108 -18 70.5 33.5 c 128,-1,18
 33 85 33 85 50 185 c 2,0,-1
EndSplineSet
EndChar

StartChar: v
Encoding: 118 118 89
Width: 471
GlyphClass: 2
Flags: W
LayerCount: 2
Fore
SplineSet
48 528 m 1,0,-1
 127 528 l 1,1,-1
 181 197 l 2,2,3
 185 173 185 173 190.5 128.5 c 128,-1,4
 196 84 196 84 198 66 c 1,5,-1
 200 66 l 1,6,7
 210 88 210 88 231.5 131.5 c 128,-1,8
 253 175 253 175 263 197 c 2,9,-1
 424 528 l 1,10,-1
 505 528 l 1,11,-1
 232 0 l 1,12,-1
 145 0 l 1,13,-1
 48 528 l 1,0,-1
EndSplineSet
EndChar

StartChar: w
Encoding: 119 119 90
Width: 677
GlyphClass: 2
Flags: W
LayerCount: 2
Fore
SplineSet
48 528 m 1,0,-1
 127 528 l 1,1,-1
 147 200 l 2,2,3
 151 87 151 87 152 70 c 1,4,-1
 156 70 l 1,5,6
 165 93 165 93 182.5 137.5 c 128,-1,7
 200 182 200 182 207 200 c 2,8,-1
 337 528 l 1,9,-1
 423 528 l 1,10,-1
 446 196 l 2,11,12
 447 180 447 180 449 138.5 c 128,-1,13
 451 97 451 97 453 70 c 1,14,-1
 456 70 l 1,15,16
 461 81 461 81 505 200 c 2,17,-1
 633 528 l 1,18,-1
 712 528 l 1,19,-1
 488 0 l 1,20,-1
 397 0 l 1,21,-1
 375 318 l 2,22,23
 369 438 369 438 369 447 c 1,24,-1
 365 447 l 1,25,26
 325 337 325 337 317 318 c 2,27,-1
 188 0 l 1,28,-1
 98 0 l 1,29,-1
 48 528 l 1,0,-1
EndSplineSet
Substitution2: "'sups' Superscript lookup 5 subtable" uni02B7
Substitution2: "'aalt' Access All Alternates lookup 0 subtable" uni02B7
EndChar

StartChar: x
Encoding: 120 120 91
Width: 457
GlyphClass: 2
Flags: W
LayerCount: 2
Fore
SplineSet
-43 0 m 1,0,-1
 183 274 l 1,1,-1
 54 528 l 1,2,-1
 139 528 l 1,3,-1
 204 392 l 2,4,5
 209 379 209 379 219 358 c 128,-1,6
 229 337 229 337 232 329 c 1,7,-1
 236 329 l 1,8,9
 244 340 244 340 261 361.5 c 128,-1,10
 278 383 278 383 286 392 c 2,11,-1
 395 528 l 1,12,-1
 480 528 l 1,13,-1
 269 274 l 1,14,-1
 404 0 l 1,15,-1
 319 0 l 1,16,-1
 247 157 l 2,17,18
 228 193 228 193 218 217 c 1,19,-1
 214 217 l 1,20,21
 209 208 209 208 167 157 c 2,22,-1
 42 0 l 1,23,-1
 -43 0 l 1,0,-1
EndSplineSet
Substitution2: "'sups' Superscript lookup 5 subtable" uni02E3
Substitution2: "'aalt' Access All Alternates lookup 0 subtable" uni02E3
EndChar

StartChar: y
Encoding: 121 121 92
Width: 468
GlyphClass: 2
Flags: W
LayerCount: 2
Fore
SplineSet
48 528 m 1,0,-1
 131 528 l 1,1,-1
 184 219 l 2,2,3
 196 150 196 150 203 85 c 1,4,-1
 207 85 l 1,5,6
 229 133 229 133 270 219 c 2,7,-1
 420 528 l 1,8,-1
 503 528 l 1,9,-1
 184 -88 l 2,10,11
 143 -167 143 -167 101 -199 c 128,-1,12
 59 -231 59 -231 6 -231 c 2,13,-1
 -22 -231 l 1,14,-1
 -11 -168 l 1,15,-1
 5 -168 l 2,16,17
 41 -168 41 -168 69 -146.5 c 128,-1,18
 97 -125 97 -125 126 -69 c 2,19,-1
 155 -7 l 1,20,-1
 48 528 l 1,0,-1
EndSplineSet
Substitution2: "'sups' Superscript lookup 5 subtable" uni02B8
Substitution2: "'aalt' Access All Alternates lookup 0 subtable" uni02B8
EndChar

StartChar: z
Encoding: 122 122 93
Width: 450
GlyphClass: 2
Flags: W
LayerCount: 2
Fore
SplineSet
-19 0 m 1,0,-1
 -10 51 l 1,1,-1
 352 464 l 1,2,-1
 85 464 l 1,3,-1
 95 528 l 1,4,-1
 455 528 l 1,5,-1
 447 480 l 1,6,-1
 84 64 l 1,7,-1
 386 64 l 1,8,-1
 375 0 l 1,9,-1
 -19 0 l 1,0,-1
EndSplineSet
EndChar

StartChar: braceleft
Encoding: 123 123 94
Width: 426
GlyphClass: 2
Flags: W
LayerCount: 2
Fore
SplineSet
66 319 m 1,0,-1
 76 378 l 1,1,-1
 102 378 l 2,2,3
 174 378 174 378 196 512 c 2,4,-1
 228 704 l 2,5,6
 238 764 238 764 276 798 c 128,-1,7
 314 832 314 832 364 832 c 2,8,-1
 440 832 l 1,9,-1
 429 769 l 1,10,-1
 366 769 l 2,11,12
 343 769 343 769 324 749.5 c 128,-1,13
 305 730 305 730 299 694 c 2,14,-1
 267 499 l 2,15,16
 257 437 257 437 233 404 c 128,-1,17
 209 371 209 371 171 348 c 1,18,19
 236 310 236 310 219 210 c 2,20,-1
 187 17 l 2,21,22
 180 -25 180 -25 192.5 -45.5 c 128,-1,23
 205 -66 205 -66 229 -66 c 2,24,-1
 291 -66 l 1,25,-1
 281 -128 l 1,26,-1
 206 -128 l 2,27,28
 157 -128 157 -128 128.5 -96.5 c 128,-1,29
 100 -65 100 -65 111 -1 c 2,30,-1
 144 197 l 2,31,32
 154 255 154 255 139 287 c 128,-1,33
 124 319 124 319 92 319 c 2,34,-1
 66 319 l 1,0,-1
EndSplineSet
EndChar

StartChar: bar
Encoding: 124 124 95
Width: 249
GlyphClass: 2
Flags: W
LayerCount: 2
Fore
SplineSet
13 -166 m 1,0,-1
 184 866 l 1,1,-1
 259 866 l 1,2,-1
 88 -166 l 1,3,-1
 13 -166 l 1,0,-1
EndSplineSet
EndChar

StartChar: braceright
Encoding: 125 125 96
Width: 426
GlyphClass: 2
Flags: W
LayerCount: 2
Fore
SplineSet
19 -66 m 1,0,-1
 80 -66 l 2,1,2
 105 -66 105 -66 124 -45.5 c 128,-1,3
 143 -25 143 -25 150 17 c 2,4,-1
 182 210 l 2,5,6
 199 310 199 310 277 348 c 1,7,8
 246 371 246 371 232.5 404 c 128,-1,9
 219 437 219 437 230 499 c 2,10,-1
 262 694 l 2,11,12
 268 730 268 730 256.5 749.5 c 128,-1,13
 245 769 245 769 220 769 c 2,14,-1
 157 769 l 1,15,-1
 167 832 l 1,16,-1
 244 832 l 2,17,18
 294 832 294 832 321 798 c 128,-1,19
 348 764 348 764 338 704 c 2,20,-1
 306 512 l 2,21,22
 284 378 284 378 355 378 c 2,23,-1
 382 378 l 1,24,-1
 372 319 l 1,25,-1
 345 319 l 2,26,27
 314 319 314 319 289 286.5 c 128,-1,28
 264 254 264 254 254 197 c 2,29,-1
 221 -1 l 2,30,31
 210 -65 210 -65 172 -96.5 c 128,-1,32
 134 -128 134 -128 85 -128 c 2,33,-1
 8 -128 l 1,34,-1
 19 -66 l 1,0,-1
EndSplineSet
EndChar

StartChar: asciitilde
Encoding: 126 126 97
Width: 734
GlyphClass: 2
Flags: W
LayerCount: 2
Fore
SplineSet
67 308 m 1,0,1
 154 449 154 449 276 449 c 0,2,3
 313 449 313 449 345 429 c 128,-1,4
 377 409 377 409 395.5 385 c 128,-1,5
 414 361 414 361 439.5 341 c 128,-1,6
 465 321 465 321 491 321 c 0,7,8
 506 321 506 321 520.5 324.5 c 128,-1,9
 535 328 535 328 545 333 c 128,-1,10
 555 338 555 338 566 347 c 128,-1,11
 577 356 577 356 584 362.5 c 128,-1,12
 591 369 591 369 600 381.5 c 128,-1,13
 609 394 609 394 613 399 c 128,-1,14
 617 404 617 404 625 417 c 128,-1,15
 633 430 633 430 634 432 c 1,16,-1
 691 400 l 1,17,18
 599 258 599 258 483 258 c 0,19,20
 444 258 444 258 412 278 c 128,-1,21
 380 298 380 298 361.5 322 c 128,-1,22
 343 346 343 346 318 366.5 c 128,-1,23
 293 387 293 387 266 387 c 0,24,25
 192 387 192 387 122 276 c 1,26,-1
 67 308 l 1,0,1
EndSplineSet
EndChar

StartChar: exclamdown
Encoding: 161 161 99
Width: 290
GlyphClass: 2
Flags: W
LayerCount: 2
Fore
SplineSet
21 -211 m 1,0,-1
 118 318 l 1,1,-1
 185 318 l 1,2,-1
 107 -211 l 1,3,-1
 21 -211 l 1,0,-1
107 419 m 1,4,-1
 126 532 l 1,5,-1
 247 532 l 1,6,-1
 229 419 l 1,7,-1
 107 419 l 1,4,-1
EndSplineSet
EndChar

StartChar: cent
Encoding: 162 162 100
Width: 488
GlyphClass: 2
Flags: W
LayerCount: 2
Fore
SplineSet
36 264 m 0,0,1
 54 375 54 375 119.5 454 c 128,-1,2
 185 533 185 533 279 543 c 1,3,-1
 292 620 l 1,4,-1
 360 620 l 1,5,-1
 348 543 l 1,6,7
 405 532 405 532 436 494 c 128,-1,8
 467 456 467 456 474 409 c 1,9,-1
 409 390 l 1,10,11
 400 428 400 428 373.5 455 c 128,-1,12
 347 482 347 482 306 482 c 0,13,14
 232 482 232 482 179.5 420.5 c 128,-1,15
 127 359 127 359 111 264 c 0,16,17
 95 166 95 166 128 106 c 128,-1,18
 161 46 161 46 233 46 c 0,19,20
 276 46 276 46 316.5 75.5 c 128,-1,21
 357 105 357 105 381 145 c 1,22,-1
 441 125 l 1,23,24
 414 75 414 75 366.5 36.5 c 128,-1,25
 319 -2 319 -2 255 -15 c 1,26,-1
 242 -96 l 1,27,-1
 173 -96 l 1,28,-1
 187 -15 l 1,29,30
 101 -6 101 -6 58.5 69.5 c 128,-1,31
 16 145 16 145 36 264 c 0,0,1
EndSplineSet
EndChar

StartChar: sterling
Encoding: 163 163 101
Width: 568
GlyphClass: 2
Flags: W
LayerCount: 2
Fore
SplineSet
43 332 m 1,0,-1
 53 398 l 1,1,-1
 160 398 l 1,2,-1
 189 569 l 2,3,4
 203 656 203 656 265.5 704.5 c 128,-1,5
 328 753 328 753 419 753 c 0,6,7
 482 753 482 753 522.5 721 c 128,-1,8
 563 689 563 689 578 646 c 1,9,-1
 520 612 l 1,10,11
 506 643 506 643 477 664.5 c 128,-1,12
 448 686 448 686 409 686 c 0,13,14
 352 686 352 686 313 654.5 c 128,-1,15
 274 623 274 623 264 562 c 2,16,-1
 237 398 l 1,17,-1
 457 398 l 1,18,-1
 446 332 l 1,19,-1
 226 332 l 1,20,-1
 206 211 l 2,21,22
 189 108 189 108 135 70 c 1,23,24
 189 79 189 79 222 79 c 0,25,26
 250 79 250 79 296.5 64 c 128,-1,27
 343 49 343 49 375 49 c 0,28,29
 445 49 445 49 504 80 c 1,30,-1
 516 18 l 1,31,32
 440 -18 440 -18 362 -18 c 0,33,34
 332 -18 332 -18 275 -1.5 c 128,-1,35
 218 15 218 15 188 15 c 0,36,37
 156 15 156 15 110.5 8 c 128,-1,38
 65 1 65 1 36 -6 c 2,39,-1
 8 -13 l 1,40,-1
 -4 44 l 1,41,42
 51 58 51 58 85 102 c 128,-1,43
 119 146 119 146 129 207 c 2,44,-1
 149 332 l 1,45,-1
 43 332 l 1,0,-1
EndSplineSet
EndChar

StartChar: currency
Encoding: 164 164 102
Width: 616
GlyphClass: 2
Flags: W
LayerCount: 2
Fore
SplineSet
0 144 m 1,0,-1
 125 246 l 1,1,2
 93 297 93 297 105 368 c 0,3,4
 117 442 117 442 165 491 c 1,5,-1
 75 592 l 1,6,-1
 135 641 l 1,7,-1
 221 540 l 1,8,9
 288 584 288 584 359 584 c 0,10,11
 432 584 432 584 482 540 c 1,12,-1
 600 640 l 1,13,-1
 643 591 l 1,14,-1
 521 491 l 1,15,16
 553 443 553 443 541 368 c 0,17,18
 529 297 529 297 481 246 c 1,19,-1
 569 144 l 1,20,-1
 511 95 l 1,21,-1
 424 196 l 1,22,23
 362 152 362 152 287 152 c 0,24,25
 213 152 213 152 164 196 c 1,26,-1
 44 96 l 1,27,-1
 0 144 l 1,0,-1
174 368 m 256,28,29
 164 306 164 306 198 262 c 128,-1,30
 232 218 232 218 298 218 c 256,31,32
 364 218 364 218 413 262 c 128,-1,33
 462 306 462 306 473 368 c 0,34,35
 483 431 483 431 447.5 474 c 128,-1,36
 412 517 412 517 347 517 c 256,37,38
 282 517 282 517 233 473.5 c 128,-1,39
 184 430 184 430 174 368 c 256,28,29
EndSplineSet
EndChar

StartChar: yen
Encoding: 165 165 103
Width: 579
GlyphClass: 2
Flags: W
LayerCount: 2
Fore
SplineSet
71 735 m 1,0,-1
 163 735 l 1,1,-1
 252 550 l 2,2,3
 291 465 291 465 310 416 c 1,4,-1
 312 416 l 1,5,6
 374 497 374 497 415 550 c 2,7,-1
 565 735 l 1,8,-1
 658 735 l 1,9,-1
 387 404 l 1,10,-1
 538 404 l 1,11,-1
 528 347 l 1,12,-1
 339 347 l 1,13,-1
 320 233 l 1,14,-1
 509 233 l 1,15,-1
 500 176 l 1,16,-1
 311 176 l 1,17,-1
 282 0 l 1,18,-1
 204 0 l 1,19,-1
 233 176 l 1,20,-1
 43 176 l 1,21,-1
 53 233 l 1,22,-1
 243 233 l 1,23,-1
 262 347 l 1,24,-1
 71 347 l 1,25,-1
 81 404 l 1,26,-1
 233 404 l 1,27,-1
 71 735 l 1,0,-1
EndSplineSet
EndChar

StartChar: brokenbar
Encoding: 166 166 104
Width: 249
GlyphClass: 2
Flags: W
LayerCount: 2
Fore
SplineSet
117 462 m 1,0,-1
 184 866 l 1,1,-1
 259 866 l 1,2,-1
 192 462 l 1,3,-1
 117 462 l 1,0,-1
13 -166 m 1,4,-1
 80 237 l 1,5,-1
 155 237 l 1,6,-1
 88 -166 l 1,7,-1
 13 -166 l 1,4,-1
EndSplineSet
EndChar

StartChar: section
Encoding: 167 167 105
Width: 539
GlyphClass: 2
Flags: W
LayerCount: 2
Fore
SplineSet
13 46 m 1,0,-1
 71 84 l 1,1,2
 87 52 87 52 122.5 31.5 c 128,-1,3
 158 11 158 11 205 11 c 0,4,5
 323 11 323 11 334 84 c 0,6,7
 339 112 339 112 324.5 127.5 c 128,-1,8
 310 143 310 143 273 163 c 2,9,-1
 176 211 l 2,10,11
 118 239 118 239 94 272.5 c 128,-1,12
 70 306 70 306 78 354 c 0,13,14
 84 389 84 389 106 419.5 c 128,-1,15
 128 450 128 450 148 466.5 c 128,-1,16
 168 483 168 483 198 502 c 1,17,18
 140 554 140 554 149 610 c 0,19,20
 160 674 160 674 216 713.5 c 128,-1,21
 272 753 272 753 368 753 c 0,22,23
 432 753 432 753 478.5 724.5 c 128,-1,24
 525 696 525 696 546 651 c 1,25,-1
 489 612 l 1,26,27
 440 686 440 686 355 686 c 0,28,29
 295 686 295 686 263.5 665 c 128,-1,30
 232 644 232 644 226 610 c 0,31,32
 224 598 224 598 226 587 c 128,-1,33
 228 576 228 576 236.5 565.5 c 128,-1,34
 245 555 245 555 252.5 548 c 128,-1,35
 260 541 260 541 276 531.5 c 128,-1,36
 292 522 292 522 301.5 516.5 c 128,-1,37
 311 511 311 511 332.5 501 c 128,-1,38
 354 491 354 491 363 486 c 0,39,40
 399 466 399 466 418.5 454 c 128,-1,41
 438 442 438 442 460 421.5 c 128,-1,42
 482 401 482 401 489 376.5 c 128,-1,43
 496 352 496 352 491 321 c 0,44,45
 478 244 478 244 386 176 c 1,46,47
 420 138 420 138 411 84 c 0,48,49
 401 22 401 22 346.5 -17 c 128,-1,50
 292 -56 292 -56 194 -56 c 0,51,52
 126 -56 126 -56 79 -25.5 c 128,-1,53
 32 5 32 5 13 46 c 1,0,-1
156 358 m 0,54,55
 150 322 150 322 166.5 305 c 128,-1,56
 183 288 183 288 232 262 c 2,57,-1
 332 213 l 1,58,59
 404 265 404 265 414 321 c 0,60,61
 419 352 419 352 399 373 c 128,-1,62
 379 394 379 394 328 422 c 2,63,-1
 250 467 l 1,64,65
 208 440 208 440 185 416 c 128,-1,66
 162 392 162 392 156 358 c 0,54,55
EndSplineSet
EndChar

StartChar: dieresis
Encoding: 168 168 106
Width: 453
GlyphClass: 2
Flags: W
LayerCount: 2
Fore
SplineSet
148 635 m 1,0,-1
 165 735 l 1,1,-1
 263 735 l 1,2,-1
 246 635 l 1,3,-1
 148 635 l 1,0,-1
325 635 m 1,4,-1
 341 735 l 1,5,-1
 438 735 l 1,6,-1
 422 635 l 1,7,-1
 325 635 l 1,4,-1
EndSplineSet
EndChar

StartChar: copyright
Encoding: 169 169 107
Width: 850
GlyphClass: 2
Flags: W
LayerCount: 2
Fore
SplineSet
258 372 m 0,0,1
 276 478 276 478 339.5 543 c 128,-1,2
 403 608 403 608 492 608 c 0,3,4
 595 608 595 608 628 496 c 1,5,-1
 568 476 l 1,6,7
 540 548 540 548 481 548 c 0,8,9
 423 548 423 548 381 499.5 c 128,-1,10
 339 451 339 451 326 372 c 0,11,12
 312 290 312 290 338.5 242.5 c 128,-1,13
 365 195 365 195 423 195 c 0,14,15
 460 195 460 195 492.5 217.5 c 128,-1,16
 525 240 525 240 543 274 c 1,17,-1
 600 255 l 1,18,19
 575 207 575 207 525.5 171 c 128,-1,20
 476 135 476 135 413 135 c 0,21,22
 327 135 327 135 283.5 199.5 c 128,-1,23
 240 264 240 264 258 372 c 0,0,1
58 373 m 0,24,25
 87 547 87 547 214 656.5 c 128,-1,26
 341 766 341 766 506 766 c 0,27,28
 672 766 672 766 762.5 656 c 128,-1,29
 853 546 853 546 824 373 c 0,30,31
 796 203 796 203 669 91.5 c 128,-1,32
 542 -20 542 -20 376 -20 c 0,33,34
 211 -20 211 -20 120 90 c 128,-1,35
 29 200 29 200 58 373 c 0,24,25
113 373 m 0,36,37
 89 226 89 226 163.5 129.5 c 128,-1,38
 238 33 238 33 384 33 c 0,39,40
 528 33 528 33 635.5 128 c 128,-1,41
 743 223 743 223 768 373 c 0,42,43
 793 521 793 521 717 617 c 128,-1,44
 641 713 641 713 497 713 c 256,45,46
 353 713 353 713 245.5 618 c 128,-1,47
 138 523 138 523 113 373 c 0,36,37
EndSplineSet
EndChar

StartChar: ordfeminine
Encoding: 170 170 108
Width: 375
GlyphClass: 2
Flags: W
LayerCount: 2
Fore
SplineSet
45 330 m 1,0,-1
 53 383 l 1,1,-1
 354 383 l 1,2,-1
 346 330 l 1,3,-1
 45 330 l 1,0,-1
131 547 m 0,4,5
 127 523 127 523 143.5 506.5 c 128,-1,6
 160 490 160 490 196 490 c 0,7,8
 240 490 240 490 277 519.5 c 128,-1,9
 314 549 314 549 322 595 c 2,10,-1
 329 640 l 1,11,12
 313 636 313 636 283 631.5 c 128,-1,13
 253 627 253 627 231.5 622.5 c 128,-1,14
 210 618 210 618 186.5 609.5 c 128,-1,15
 163 601 163 601 149 585 c 128,-1,16
 135 569 135 569 131 547 c 0,4,5
71 543 m 0,17,18
 77 579 77 579 98 604.5 c 128,-1,19
 119 630 119 630 151.5 643 c 128,-1,20
 184 656 184 656 212.5 663.5 c 128,-1,21
 241 671 241 671 280 677.5 c 128,-1,22
 319 684 319 684 337 689 c 1,23,-1
 340 707 l 2,24,25
 345 738 345 738 326 759 c 128,-1,26
 307 780 307 780 265 780 c 0,27,28
 229 780 229 780 196 761 c 128,-1,29
 163 742 163 742 148 723 c 1,30,-1
 114 756 l 1,31,32
 133 778 133 778 178 803.5 c 128,-1,33
 223 829 223 829 272 829 c 0,34,35
 418 829 418 829 394 685 c 2,36,-1
 356 450 l 1,37,-1
 300 450 l 1,38,-1
 308 498 l 1,39,40
 288 472 288 472 254 455.5 c 128,-1,41
 220 439 220 439 181 439 c 0,42,43
 121 439 121 439 92 468 c 128,-1,44
 63 497 63 497 71 543 c 0,17,18
EndSplineSet
EndChar

StartChar: guillemotleft
Encoding: 171 171 109
Width: 447
GlyphClass: 2
Flags: W
LayerCount: 2
Fore
SplineSet
29 249 m 1,0,-1
 222 474 l 1,1,-1
 271 437 l 1,2,-1
 111 249 l 1,3,-1
 208 63 l 1,4,-1
 148 25 l 1,5,-1
 29 249 l 1,0,-1
201 249 m 1,6,-1
 393 467 l 1,7,-1
 439 427 l 1,8,-1
 283 249 l 1,9,-1
 381 71 l 1,10,-1
 321 31 l 1,11,-1
 201 249 l 1,6,-1
EndSplineSet
EndChar

StartChar: logicalnot
Encoding: 172 172 110
Width: 528
GlyphClass: 2
Flags: W
LayerCount: 2
Fore
SplineSet
49 316 m 1,0,-1
 60 383 l 1,1,-1
 502 383 l 1,2,-1
 459 124 l 1,3,-1
 388 124 l 1,4,-1
 419 316 l 1,5,-1
 49 316 l 1,0,-1
EndSplineSet
EndChar

StartChar: uni00AD
Encoding: 173 173 111
Width: 538
GlyphClass: 2
Flags: W
LayerCount: 2
Fore
SplineSet
60 331 m 1,0,-1
 71 397 l 1,1,-1
 505 397 l 1,2,-1
 494 331 l 1,3,-1
 60 331 l 1,0,-1
EndSplineSet
EndChar

StartChar: registered
Encoding: 174 174 112
Width: 850
GlyphClass: 2
Flags: W
LayerCount: 2
Fore
SplineSet
267 146 m 1,0,-1
 341 595 l 1,1,-1
 512 595 l 2,2,3
 576 595 576 595 603.5 558.5 c 128,-1,4
 631 522 631 522 622 468 c 0,5,6
 609 389 609 389 537 358 c 1,7,8
 567 336 567 336 569 274 c 0,9,10
 572 213 572 213 594 146 c 1,11,-1
 522 146 l 1,12,13
 506 188 506 188 503 267 c 0,14,15
 503 289 503 289 500 300.5 c 128,-1,16
 497 312 497 312 487 323.5 c 128,-1,17
 477 335 477 335 457 335 c 2,18,-1
 364 335 l 1,19,-1
 333 146 l 1,20,-1
 267 146 l 1,0,-1
373 390 m 1,21,-1
 467 390 l 2,22,23
 503 390 503 390 527 409.5 c 128,-1,24
 551 429 551 429 557 463 c 0,25,26
 562 494 562 494 545 514 c 128,-1,27
 528 534 528 534 491 534 c 2,28,-1
 397 534 l 1,29,-1
 373 390 l 1,21,-1
58 374 m 256,30,31
 87 548 87 548 214 657 c 128,-1,32
 341 766 341 766 506 766 c 0,33,34
 672 766 672 766 762.5 656.5 c 128,-1,35
 853 547 853 547 824 374 c 0,36,37
 796 204 796 204 669.5 92 c 128,-1,38
 543 -20 543 -20 376 -20 c 0,39,40
 211 -20 211 -20 120 90 c 128,-1,41
 29 200 29 200 58 374 c 256,30,31
114 374 m 0,42,43
 89 226 89 226 163.5 129.5 c 128,-1,44
 238 33 238 33 384 33 c 0,45,46
 528 33 528 33 636 129.5 c 128,-1,47
 744 226 744 226 768 374 c 0,48,49
 793 523 793 523 716.5 618 c 128,-1,50
 640 713 640 713 497 713 c 0,51,52
 353 713 353 713 246 618.5 c 128,-1,53
 139 524 139 524 114 374 c 0,42,43
EndSplineSet
EndChar

StartChar: macron
Encoding: 175 175 113
Width: 494
GlyphClass: 2
Flags: W
LayerCount: 2
Fore
SplineSet
76 743 m 1,0,-1
 87 809 l 1,1,-1
 583 809 l 1,2,-1
 572 743 l 1,3,-1
 76 743 l 1,0,-1
EndSplineSet
EndChar

StartChar: degree
Encoding: 176 176 114
Width: 398
GlyphClass: 2
Flags: W
LayerCount: 2
Fore
SplineSet
132 620 m 0,0,1
 140 670 140 670 181 706 c 128,-1,2
 222 742 222 742 276 742 c 0,3,4
 327 742 327 742 357 707.5 c 128,-1,5
 387 673 387 673 378 620 c 256,6,7
 369 567 369 567 327.5 533 c 128,-1,8
 286 499 286 499 236 499 c 0,9,10
 184 499 184 499 153.5 533.5 c 128,-1,11
 123 568 123 568 132 620 c 0,0,1
182 620 m 0,12,13
 177 588 177 588 194.5 567.5 c 128,-1,14
 212 547 212 547 243 547 c 0,15,16
 272 547 272 547 297 567.5 c 128,-1,17
 322 588 322 588 327 620 c 0,18,19
 332 651 332 651 315.5 672.5 c 128,-1,20
 299 694 299 694 268 694 c 0,21,22
 236 694 236 694 211.5 672 c 128,-1,23
 187 650 187 650 182 620 c 0,12,13
EndSplineSet
EndChar

StartChar: plusminus
Encoding: 177 177 115
Width: 540
GlyphClass: 2
Flags: W
LayerCount: 2
Fore
SplineSet
61 403 m 1,0,-1
 72 470 l 1,1,-1
 264 470 l 1,2,-1
 293 646 l 1,3,-1
 366 646 l 1,4,-1
 337 470 l 1,5,-1
 530 470 l 1,6,-1
 519 403 l 1,7,-1
 326 403 l 1,8,-1
 298 231 l 1,9,-1
 224 231 l 1,10,-1
 253 403 l 1,11,-1
 61 403 l 1,0,-1
10 96 m 1,12,-1
 21 163 l 1,13,-1
 480 163 l 1,14,-1
 468 96 l 1,15,-1
 10 96 l 1,12,-1
EndSplineSet
EndChar

StartChar: twosuperior
Encoding: 178 178 116
Width: 312
GlyphClass: 2
Flags: W
LayerCount: 2
Fore
SplineSet
97 714 m 1,0,1
 103 729 103 729 106 735.5 c 128,-1,2
 109 742 109 742 123 762.5 c 128,-1,3
 137 783 137 783 151 794.5 c 128,-1,4
 165 806 165 806 190.5 816.5 c 128,-1,5
 216 827 216 827 246 827 c 0,6,7
 300 827 300 827 329.5 795 c 128,-1,8
 359 763 359 763 350 708 c 0,9,10
 340 647 340 647 255 573 c 0,11,12
 245 564 245 564 219.5 543 c 128,-1,13
 194 522 194 522 181 510.5 c 128,-1,14
 168 499 168 499 151 480.5 c 128,-1,15
 134 462 134 462 124 446 c 1,16,-1
 306 446 l 1,17,-1
 298 396 l 1,18,-1
 47 396 l 1,19,20
 55 446 55 446 90.5 487.5 c 128,-1,21
 126 529 126 529 226 612 c 0,22,23
 285 660 285 660 293 708 c 0,24,25
 299 742 299 742 283.5 760 c 128,-1,26
 268 778 268 778 237 778 c 0,27,28
 214 778 214 778 197 769.5 c 128,-1,29
 180 761 180 761 168 743.5 c 128,-1,30
 156 726 156 726 153 720 c 128,-1,31
 150 714 150 714 145 701 c 1,32,-1
 97 714 l 1,0,1
EndSplineSet
EndChar

StartChar: threesuperior
Encoding: 179 179 117
Width: 313
GlyphClass: 2
Flags: W
LayerCount: 2
Fore
SplineSet
51 479 m 1,0,-1
 101 498 l 1,1,2
 121 437 121 437 177 437 c 0,3,4
 211 437 211 437 238 457.5 c 128,-1,5
 265 478 265 478 272 518 c 0,6,7
 278 554 278 554 255 574.5 c 128,-1,8
 232 595 232 595 195 595 c 0,9,10
 180 595 180 595 158 593 c 1,11,-1
 166 644 l 1,12,13
 194 642 194 642 201 642 c 0,14,15
 234 642 234 642 258.5 661 c 128,-1,16
 283 680 283 680 288 713 c 0,17,18
 293 743 293 743 277 761.5 c 128,-1,19
 261 780 261 780 232 780 c 0,20,21
 184 780 184 780 147 716 c 1,22,-1
 104 732 l 1,23,24
 153 828 153 828 241 828 c 0,25,26
 297 828 297 828 325.5 796.5 c 128,-1,27
 354 765 354 765 346 717 c 0,28,29
 335 653 335 653 277 622 c 1,30,31
 341 593 341 593 328 518 c 0,32,33
 318 457 318 457 274 422.5 c 128,-1,34
 230 388 230 388 169 388 c 0,35,36
 73 388 73 388 51 479 c 1,0,-1
EndSplineSet
EndChar

StartChar: acute
Encoding: 180 180 118
Width: 318
GlyphClass: 2
Flags: W
LayerCount: 2
Fore
SplineSet
127 653 m 1,0,-1
 264 824 l 1,1,-1
 361 824 l 1,2,-1
 191 653 l 1,3,-1
 127 653 l 1,0,-1
EndSplineSet
EndChar

StartChar: uni00B5
Encoding: 181 181 119
Width: 535
GlyphClass: 2
Flags: W
LayerCount: 2
Fore
SplineSet
-9 -231 m 1,0,-1
 117 528 l 1,1,-1
 188 528 l 1,2,-1
 134 201 l 2,3,4
 108 46 108 46 216 46 c 0,5,6
 282 46 282 46 326.5 100 c 128,-1,7
 371 154 371 154 383 228 c 2,8,-1
 432 528 l 1,9,-1
 504 528 l 1,10,-1
 416 0 l 1,11,-1
 348 0 l 1,12,-1
 362 85 l 1,13,-1
 361 85 l 1,14,15
 340 41 340 41 295 11.5 c 128,-1,16
 250 -18 250 -18 192 -18 c 0,17,18
 129 -18 129 -18 107 35 c 1,19,-1
 63 -231 l 1,20,-1
 -9 -231 l 1,0,-1
EndSplineSet
EndChar

StartChar: paragraph
Encoding: 182 182 120
Width: 607
GlyphClass: 2
Flags: W
LayerCount: 2
Fore
SplineSet
96 544 m 0,0,1
 113 644 113 644 174 705 c 128,-1,2
 235 766 235 766 331 766 c 2,3,-1
 607 766 l 1,4,-1
 468 -72 l 1,5,-1
 405 -72 l 1,6,-1
 533 697 l 1,7,-1
 432 697 l 1,8,-1
 305 -72 l 1,9,-1
 242 -72 l 1,10,-1
 308 325 l 1,11,12
 276 315 276 315 243 315 c 0,13,14
 165 315 165 315 121.5 375 c 128,-1,15
 78 435 78 435 96 544 c 0,0,1
EndSplineSet
EndChar

StartChar: periodcentered
Encoding: 183 183 121
Width: 316
GlyphClass: 2
Flags: W
LayerCount: 2
Fore
SplineSet
99 294 m 1,0,-1
 118 411 l 1,1,-1
 240 411 l 1,2,-1
 221 294 l 1,3,-1
 99 294 l 1,0,-1
EndSplineSet
EndChar

StartChar: cedilla
Encoding: 184 184 122
Width: 283
GlyphClass: 2
Flags: W
LayerCount: 2
Fore
SplineSet
-34 -166 m 1,0,1
 5 -176 5 -176 27 -176 c 0,2,3
 94 -176 94 -176 100 -133 c 256,4,5
 107 -90 107 -90 15 -81 c 1,6,-1
 77 14 l 1,7,-1
 142 14 l 1,8,-1
 105 -45 l 1,9,10
 180 -66 180 -66 169 -134 c 0,11,12
 162 -178 162 -178 126.5 -205 c 128,-1,13
 91 -232 91 -232 23 -232 c 0,14,15
 -16 -232 -16 -232 -44 -222 c 1,16,-1
 -34 -166 l 1,0,1
EndSplineSet
EndChar

StartChar: onesuperior
Encoding: 185 185 123
Width: 304
GlyphClass: 2
Flags: W
LayerCount: 2
Fore
SplineSet
120 713 m 1,0,-1
 128 760 l 1,1,-1
 151 760 l 2,2,3
 193 760 193 760 210 772 c 128,-1,4
 227 784 227 784 231 809 c 2,5,-1
 234 827 l 1,6,-1
 284 827 l 1,7,-1
 213 396 l 1,8,-1
 156 396 l 1,9,-1
 208 713 l 1,10,-1
 120 713 l 1,0,-1
EndSplineSet
EndChar

StartChar: ordmasculine
Encoding: 186 186 124
Width: 376
GlyphClass: 2
Flags: W
LayerCount: 2
Fore
SplineSet
142 634 m 0,0,1
 131 567 131 567 154.5 528.5 c 128,-1,2
 178 490 178 490 221 490 c 256,3,4
 264 490 264 490 301 528.5 c 128,-1,5
 338 567 338 567 349 634 c 0,6,7
 360 702 360 702 336 740 c 128,-1,8
 312 778 312 778 269 778 c 256,9,10
 226 778 226 778 189.5 740 c 128,-1,11
 153 702 153 702 142 634 c 0,0,1
83 634 m 0,12,13
 97 717 97 717 149 773 c 128,-1,14
 201 829 201 829 277 829 c 256,15,16
 353 829 353 829 387.5 773 c 128,-1,17
 422 717 422 717 408 634 c 0,18,19
 395 556 395 556 344.5 497.5 c 128,-1,20
 294 439 294 439 213 439 c 0,21,22
 158 439 158 439 125 469 c 128,-1,23
 92 499 92 499 83.5 542 c 128,-1,24
 75 585 75 585 83 634 c 0,12,13
45 330 m 1,25,-1
 54 383 l 1,26,-1
 355 383 l 1,27,-1
 346 330 l 1,28,-1
 45 330 l 1,25,-1
EndSplineSet
EndChar

StartChar: guillemotright
Encoding: 187 187 125
Width: 446
GlyphClass: 2
Flags: W
LayerCount: 2
Fore
SplineSet
56 427 m 1,0,-1
 116 467 l 1,1,-1
 235 249 l 1,2,-1
 44 31 l 1,3,-1
 -2 71 l 1,4,-1
 154 249 l 1,5,-1
 56 427 l 1,0,-1
167 64 m 1,6,-1
 326 249 l 1,7,-1
 228 437 l 1,8,-1
 290 474 l 1,9,-1
 407 249 l 1,10,-1
 215 25 l 1,11,-1
 167 64 l 1,6,-1
EndSplineSet
EndChar

StartChar: onequarter
Encoding: 188 188 126
Width: 935
GlyphClass: 3
Flags: W
LayerCount: 2
Fore
SplineSet
575 129 m 1,0,-1
 706 129 l 1,1,-1
 740 336 l 1,2,-1
 707 293 l 1,3,-1
 575 129 l 1,0,-1
138 659 m 1,4,-1
 147 717 l 1,5,-1
 176 717 l 2,6,7
 223 717 223 717 241 730 c 128,-1,8
 259 743 259 743 264 769 c 2,9,-1
 268 794 l 1,10,-1
 329 794 l 1,11,-1
 247 299 l 1,12,-1
 177 299 l 1,13,-1
 237 659 l 1,14,-1
 138 659 l 1,4,-1
92 -50 m 1,15,-1
 695 781 l 1,16,-1
 768 781 l 1,17,-1
 167 -50 l 1,18,-1
 92 -50 l 1,15,-1
499 121 m 1,19,-1
 768 452 l 1,20,-1
 826 452 l 1,21,-1
 772 129 l 1,22,-1
 838 129 l 1,23,-1
 828 68 l 1,24,-1
 762 68 l 1,25,-1
 744 -42 l 1,26,-1
 677 -42 l 1,27,-1
 695 68 l 1,28,-1
 491 68 l 1,29,-1
 499 121 l 1,19,-1
EndSplineSet
Ligature2: "'frac' Diagonal Fractions lookup 7 subtable" one fraction four
Ligature2: "'frac' Diagonal Fractions lookup 7 subtable" one slash four
EndChar

StartChar: onehalf
Encoding: 189 189 127
Width: 933
GlyphClass: 3
Flags: W
LayerCount: 2
Fore
SplineSet
555 317 m 1,0,1
 562 333 562 333 566.5 341.5 c 128,-1,2
 571 350 571 350 586.5 373.5 c 128,-1,3
 602 397 602 397 618.5 411 c 128,-1,4
 635 425 635 425 664.5 437 c 128,-1,5
 694 449 694 449 728 449 c 0,6,7
 791 449 791 449 824.5 412 c 128,-1,8
 858 375 858 375 847 311 c 0,9,10
 835 238 835 238 750 167 c 0,11,12
 674 104 674 104 642 74.5 c 128,-1,13
 610 45 610 45 593 16 c 1,14,-1
 799 16 l 1,15,-1
 789 -44 l 1,16,-1
 499 -44 l 1,17,18
 508 13 508 13 547 60 c 128,-1,19
 586 107 586 107 704 204 c 0,20,21
 769 257 769 257 778 312 c 0,22,23
 784 349 784 349 768 369.5 c 128,-1,24
 752 390 752 390 716 390 c 0,25,26
 648 390 648 390 613 300 c 1,27,-1
 555 317 l 1,0,1
138 659 m 1,28,-1
 147 717 l 1,29,-1
 176 717 l 2,30,31
 223 717 223 717 241 730 c 128,-1,32
 259 743 259 743 264 769 c 2,33,-1
 268 794 l 1,34,-1
 329 794 l 1,35,-1
 247 299 l 1,36,-1
 177 299 l 1,37,-1
 237 659 l 1,38,-1
 138 659 l 1,28,-1
89 -50 m 1,39,-1
 692 781 l 1,40,-1
 765 781 l 1,41,-1
 164 -50 l 1,42,-1
 89 -50 l 1,39,-1
EndSplineSet
Ligature2: "'frac' Diagonal Fractions lookup 7 subtable" one fraction two
Ligature2: "'frac' Diagonal Fractions lookup 7 subtable" one slash two
EndChar

StartChar: threequarters
Encoding: 190 190 128
Width: 937
GlyphClass: 3
Flags: W
LayerCount: 2
Fore
SplineSet
586 129 m 1,0,-1
 716 129 l 1,1,-1
 750 335 l 1,2,-1
 719 294 l 1,3,-1
 586 129 l 1,0,-1
167 -50 m 1,4,-1
 770 781 l 1,5,-1
 842 781 l 1,6,-1
 241 -50 l 1,7,-1
 167 -50 l 1,4,-1
509 121 m 1,8,-1
 778 452 l 1,9,-1
 837 452 l 1,10,-1
 783 129 l 1,11,-1
 849 129 l 1,12,-1
 839 68 l 1,13,-1
 773 68 l 1,14,-1
 755 -42 l 1,15,-1
 687 -42 l 1,16,-1
 705 68 l 1,17,-1
 501 68 l 1,18,-1
 509 121 l 1,8,-1
80 409 m 1,19,-1
 141 432 l 1,20,21
 165 363 165 363 226 363 c 0,22,23
 264 363 264 363 294 385.5 c 128,-1,24
 324 408 324 408 331 452 c 0,25,26
 338 493 338 493 313 515.5 c 128,-1,27
 288 538 288 538 247 538 c 0,28,29
 223 538 223 538 201 536 c 1,30,-1
 211 598 l 1,31,32
 227 596 227 596 254 596 c 0,33,34
 289 596 289 596 316 616.5 c 128,-1,35
 343 637 343 637 349 674 c 0,36,37
 354 707 354 707 337 727.5 c 128,-1,38
 320 748 320 748 288 748 c 0,39,40
 264 748 264 748 245 735 c 128,-1,41
 226 722 226 722 216 709 c 128,-1,42
 206 696 206 696 193 675 c 1,43,-1
 140 695 l 1,44,45
 196 808 196 808 300 808 c 0,46,47
 365 808 365 808 396.5 771 c 128,-1,48
 428 734 428 734 418 678 c 0,49,50
 406 607 406 607 343 571 c 1,51,52
 414 536 414 536 400 452 c 0,53,54
 388 382 388 382 337.5 342.5 c 128,-1,55
 287 303 287 303 216 303 c 0,56,57
 107 303 107 303 80 409 c 1,19,-1
EndSplineSet
Ligature2: "'frac' Diagonal Fractions lookup 7 subtable" three fraction four
Ligature2: "'frac' Diagonal Fractions lookup 7 subtable" three slash four
EndChar

StartChar: questiondown
Encoding: 191 191 129
Width: 532
GlyphClass: 2
Flags: W
LayerCount: 2
Fore
SplineSet
15 -29 m 0,0,1
 23 17 23 17 46 53 c 128,-1,2
 69 89 69 89 99 113.5 c 128,-1,3
 129 138 129 138 158.5 163 c 128,-1,4
 188 188 188 188 211.5 223 c 128,-1,5
 235 258 235 258 242 302 c 2,6,-1
 246 325 l 1,7,-1
 323 325 l 1,8,-1
 318 297 l 2,9,10
 310 247 310 247 285.5 208 c 128,-1,11
 261 169 261 169 232 143.5 c 128,-1,12
 203 118 203 118 174 94.5 c 128,-1,13
 145 71 145 71 122 39 c 128,-1,14
 99 7 99 7 93 -31 c 0,15,16
 83 -91 83 -91 109 -126.5 c 128,-1,17
 135 -162 135 -162 192 -162 c 0,18,19
 288 -162 288 -162 354 -45 c 1,20,-1
 418 -69 l 1,21,22
 381 -141 381 -141 318 -185 c 128,-1,23
 255 -229 255 -229 181 -229 c 0,24,25
 90 -229 90 -229 45 -175 c 128,-1,26
 0 -121 0 -121 15 -29 c 0,0,1
240 420 m 1,27,-1
 258 532 l 1,28,-1
 379 532 l 1,29,-1
 360 420 l 1,30,-1
 240 420 l 1,27,-1
EndSplineSet
EndChar

StartChar: AE
Encoding: 198 198 136
Width: 915
GlyphClass: 2
Flags: W
LayerCount: 2
Fore
SplineSet
234 275 m 1,0,-1
 463 275 l 1,1,-1
 527 661 l 1,2,-1
 518 661 l 1,3,-1
 234 275 l 1,0,-1
-51 0 m 1,4,-1
 491 735 l 1,5,-1
 946 735 l 1,6,-1
 935 668 l 1,7,-1
 604 668 l 1,8,-1
 562 413 l 1,9,-1
 858 413 l 1,10,-1
 847 347 l 1,11,-1
 548 347 l 1,12,-1
 501 67 l 1,13,-1
 844 67 l 1,14,-1
 833 0 l 1,15,-1
 418 0 l 1,16,-1
 453 212 l 1,17,-1
 187 212 l 1,18,-1
 35 0 l 1,19,-1
 -51 0 l 1,4,-1
EndSplineSet
EndChar

StartChar: multiply
Encoding: 215 215 153
Width: 540
GlyphClass: 2
Flags: W
LayerCount: 2
Fore
SplineSet
25 187 m 1,0,-1
 239 364 l 1,1,-1
 84 542 l 1,2,-1
 137 588 l 1,3,-1
 291 407 l 1,4,-1
 505 588 l 1,5,-1
 542 543 l 1,6,-1
 330 364 l 1,7,-1
 483 186 l 1,8,-1
 430 141 l 1,9,-1
 276 321 l 1,10,-1
 63 141 l 1,11,-1
 25 187 l 1,0,-1
EndSplineSet
EndChar

StartChar: Oslash
Encoding: 216 216 154
Width: 691
GlyphClass: 2
Flags: W
LayerCount: 2
Fore
SplineSet
60 367 m 0,0,1
 89 540 89 540 188.5 646.5 c 128,-1,2
 288 753 288 753 424 753 c 0,3,4
 508 753 508 753 566 711 c 1,5,-1
 621 794 l 1,6,-1
 693 794 l 1,7,-1
 609 669 l 1,8,9
 691 562 691 562 659 366 c 0,10,11
 630 189 630 189 531.5 85.5 c 128,-1,12
 433 -18 433 -18 296 -18 c 0,13,14
 224 -18 224 -18 168 15 c 1,15,-1
 112 -70 l 1,16,-1
 40 -70 l 1,17,-1
 122 52 l 1,18,19
 25 155 25 155 60 367 c 0,0,1
561 598 m 1,20,-1
 211 78 l 1,21,22
 251 50 251 50 308 50 c 0,23,24
 409 50 409 50 482.5 134.5 c 128,-1,25
 556 219 556 219 580 366 c 0,26,27
 604 511 604 511 561 598 c 1,20,-1
523 648 m 1,28,29
 480 686 480 686 413 686 c 0,30,31
 311 686 311 686 237 599.5 c 128,-1,32
 163 513 163 513 139 367 c 0,33,34
 113 207 113 207 169 122 c 1,35,-1
 523 648 l 1,28,29
EndSplineSet
EndChar

StartChar: Thorn
Encoding: 222 222 160
Width: 578
GlyphClass: 2
Flags: W
LayerCount: 2
Fore
SplineSet
46 0 m 1,0,-1
 167 735 l 1,1,-1
 245 735 l 1,2,-1
 225 612 l 1,3,-1
 341 612 l 2,4,5
 470 612 470 612 522 549 c 128,-1,6
 574 486 574 486 557 382 c 0,7,8
 537 264 537 264 455.5 206 c 128,-1,9
 374 148 374 148 256 148 c 2,10,-1
 148 148 l 1,11,-1
 123 0 l 1,12,-1
 46 0 l 1,0,-1
159 215 m 1,13,-1
 260 215 l 2,14,15
 450 215 450 215 478 382 c 0,16,17
 505 547 505 547 324 547 c 2,18,-1
 214 547 l 1,19,-1
 159 215 l 1,13,-1
EndSplineSet
EndChar

StartChar: germandbls
Encoding: 223 223 161
Width: 613
GlyphClass: 2
Flags: W
LayerCount: 2
Fore
SplineSet
46 0 m 1,0,-1
 137 552 l 2,1,2
 153 648 153 648 221.5 700.5 c 128,-1,3
 290 753 290 753 379 753 c 0,4,5
 473 753 473 753 522 699 c 128,-1,6
 571 645 571 645 556 555 c 0,7,8
 546 494 546 494 515 452.5 c 128,-1,9
 484 411 484 411 445 391 c 1,10,-1
 445 389 l 1,11,12
 500 371 500 371 533 322 c 128,-1,13
 566 273 566 273 552 189 c 0,14,15
 537 97 537 97 472.5 39.5 c 128,-1,16
 408 -18 408 -18 313 -18 c 0,17,18
 243 -18 243 -18 183 4 c 1,19,-1
 200 73 l 1,20,21
 252 50 252 50 322 50 c 0,22,23
 377 50 377 50 422 89 c 128,-1,24
 467 128 467 128 477 189 c 0,25,26
 490 267 490 267 453 307 c 128,-1,27
 416 347 416 347 347 347 c 2,28,-1
 287 347 l 1,29,-1
 298 413 l 1,30,-1
 351 413 l 2,31,32
 398 413 398 413 433.5 452 c 128,-1,33
 469 491 469 491 479 551 c 0,34,35
 489 609 489 609 459.5 647.5 c 128,-1,36
 430 686 430 686 369 686 c 0,37,38
 306 686 306 686 263.5 649 c 128,-1,39
 221 612 221 612 211 548 c 2,40,-1
 120 0 l 1,41,-1
 46 0 l 1,0,-1
EndSplineSet
EndChar

StartChar: ae
Encoding: 230 230 168
Width: 856
GlyphClass: 2
Flags: W
LayerCount: 2
Fore
SplineSet
12 131 m 0,0,1
 36 278 36 278 257 312 c 0,2,3
 372 333 372 333 391 340 c 0,4,5
 391 343 391 343 392.5 355 c 128,-1,6
 394 367 394 367 395 370 c 0,7,8
 403 416 403 416 376.5 450 c 128,-1,9
 350 484 350 484 291 484 c 0,10,11
 194 484 194 484 115 402 c 1,12,-1
 76 444 l 1,13,14
 121 490 121 490 179.5 518 c 128,-1,15
 238 546 238 546 301 546 c 0,16,17
 430 546 430 546 453 433 c 1,18,19
 487 485 487 485 537.5 515.5 c 128,-1,20
 588 546 588 546 647 546 c 0,21,22
 745 546 745 546 791 470 c 128,-1,23
 837 394 837 394 818 279 c 2,24,-1
 811 239 l 1,25,-1
 446 239 l 1,26,-1
 443 219 l 1,27,28
 438 149 438 149 468 97.5 c 128,-1,29
 498 46 498 46 565 46 c 0,30,31
 614 46 614 46 655 71.5 c 128,-1,32
 696 97 696 97 722 134 c 1,33,-1
 779 115 l 1,34,35
 743 55 743 55 686 18.5 c 128,-1,36
 629 -18 629 -18 554 -18 c 0,37,38
 488 -18 488 -18 445.5 19 c 128,-1,39
 403 56 403 56 387 119 c 1,40,41
 300 -18 300 -18 163 -18 c 0,42,43
 82 -18 82 -18 41.5 22.5 c 128,-1,44
 1 63 1 63 12 131 c 0,0,1
85 135 m 0,45,46
 79 97 79 97 104 71.5 c 128,-1,47
 129 46 129 46 181 46 c 0,48,49
 247 46 247 46 301.5 91 c 128,-1,50
 356 136 356 136 368 207 c 2,51,-1
 380 280 l 1,52,53
 345 271 345 271 250 255 c 0,54,55
 101 231 101 231 85 135 c 0,45,46
456 297 m 1,56,-1
 749 297 l 1,57,58
 762 375 762 375 730.5 428.5 c 128,-1,59
 699 482 699 482 637 482 c 0,60,61
 575 482 575 482 528.5 433.5 c 128,-1,62
 482 385 482 385 461 314 c 2,63,-1
 456 297 l 1,56,-1
EndSplineSet
EndChar

StartChar: eth
Encoding: 240 240 178
Width: 526
GlyphClass: 2
Flags: W
LayerCount: 2
Fore
SplineSet
31 237 m 0,0,1
 51 356 51 356 124 425.5 c 128,-1,2
 197 495 197 495 296 495 c 0,3,4
 348 495 348 495 382 469.5 c 128,-1,5
 416 444 416 444 428 409 c 1,6,7
 423 548 423 548 360 623 c 1,8,-1
 228 534 l 1,9,-1
 194 582 l 1,10,-1
 315 663 l 1,11,12
 271 693 271 693 209 704 c 1,13,-1
 243 763 l 1,14,15
 311 752 311 752 362 720 c 0,16,17
 371 714 371 714 380 708 c 1,18,-1
 491 783 l 1,19,-1
 524 734 l 1,20,-1
 424 666 l 1,21,22
 437 650 437 650 450 631 c 0,23,24
 486 574 486 574 495.5 481 c 128,-1,25
 505 388 505 388 485 264 c 256,26,27
 464 140 464 140 392 61 c 128,-1,28
 320 -18 320 -18 212 -18 c 0,29,30
 110 -18 110 -18 61.5 55.5 c 128,-1,31
 13 129 13 129 31 237 c 0,0,1
104 240 m 0,32,33
 90 155 90 155 122 100.5 c 128,-1,34
 154 46 154 46 224 46 c 0,35,36
 290 46 290 46 339.5 99 c 128,-1,37
 389 152 389 152 404 241 c 0,38,39
 418 327 418 327 385.5 378.5 c 128,-1,40
 353 430 353 430 289 430 c 0,41,42
 223 430 223 430 171 380 c 128,-1,43
 119 330 119 330 104 240 c 0,32,33
EndSplineSet
EndChar

StartChar: divide
Encoding: 247 247 185
Width: 542
GlyphClass: 2
Flags: W
LayerCount: 2
Fore
SplineSet
253 496 m 1,0,-1
 270 602 l 1,1,-1
 378 602 l 1,2,-1
 361 496 l 1,3,-1
 253 496 l 1,0,-1
32 331 m 1,4,-1
 43 397 l 1,5,-1
 536 397 l 1,6,-1
 525 331 l 1,7,-1
 32 331 l 1,4,-1
191 126 m 1,8,-1
 209 233 l 1,9,-1
 317 233 l 1,10,-1
 299 126 l 1,11,-1
 191 126 l 1,8,-1
EndSplineSet
EndChar

StartChar: oslash
Encoding: 248 248 186
Width: 527
GlyphClass: 2
Flags: W
LayerCount: 2
Fore
SplineSet
36 264 m 0,0,1
 56 385 56 385 128.5 465.5 c 128,-1,2
 201 546 201 546 308 546 c 0,3,4
 367 546 367 546 407 519 c 1,5,-1
 453 590 l 1,6,-1
 513 590 l 1,7,-1
 445 485 l 1,8,9
 508 407 508 407 485 264 c 0,10,11
 477 213 477 213 456.5 165 c 128,-1,12
 436 117 436 117 403.5 75 c 128,-1,13
 371 33 371 33 321.5 7.5 c 128,-1,14
 272 -18 272 -18 214 -18 c 0,15,16
 162 -18 162 -18 122 4 c 1,17,-1
 79 -61 l 1,18,-1
 19 -61 l 1,19,-1
 81 35 l 1,20,21
 47 74 47 74 36 135 c 128,-1,22
 25 196 25 196 36 264 c 0,0,1
399 416 m 1,23,-1
 162 65 l 1,24,25
 189 46 189 46 225 46 c 0,26,27
 289 46 289 46 343 105 c 128,-1,28
 397 164 397 164 413 264 c 0,29,30
 428 357 428 357 399 416 c 1,23,-1
366 457 m 1,31,32
 337 482 337 482 297 482 c 0,33,34
 232 482 232 482 178.5 424 c 128,-1,35
 125 366 125 366 108 264 c 0,36,37
 91 164 91 164 126 103 c 1,38,-1
 366 457 l 1,31,32
EndSplineSet
EndChar

StartChar: thorn
Encoding: 254 254 192
Width: 551
GlyphClass: 2
Flags: W
LayerCount: 2
Fore
SplineSet
145 264 m 256,0,1
 129 166 129 166 160.5 106 c 128,-1,2
 192 46 192 46 251 46 c 0,3,4
 320 46 320 46 370 104.5 c 128,-1,5
 420 163 420 163 437 264 c 256,6,7
 454 365 454 365 423.5 423.5 c 128,-1,8
 393 482 393 482 324 482 c 0,9,10
 267 482 267 482 214 422 c 128,-1,11
 161 362 161 362 145 264 c 256,0,1
-6 -231 m 1,12,-1
 158 762 l 1,13,-1
 230 762 l 1,14,-1
 175 432 l 1,15,16
 198 482 198 482 248.5 514 c 128,-1,17
 299 546 299 546 343 546 c 0,18,19
 441 546 441 546 486 470 c 128,-1,20
 531 394 531 394 509 264 c 0,21,22
 486 125 486 125 411 53.5 c 128,-1,23
 336 -18 336 -18 249 -18 c 0,24,25
 197 -18 197 -18 162.5 16 c 128,-1,26
 128 50 128 50 119 93 c 1,27,-1
 65 -231 l 1,28,-1
 -6 -231 l 1,12,-1
EndSplineSet
EndChar

StartChar: dcroat
Encoding: 273 273 211
Width: 551
GlyphClass: 2
Flags: W
LayerCount: 2
Fore
SplineSet
36 265 m 0,0,1
 58 396 58 396 130 471 c 128,-1,2
 202 546 202 546 293 546 c 0,3,4
 348 546 348 546 382.5 513 c 128,-1,5
 417 480 417 480 426 436 c 1,6,-1
 457 622 l 1,7,-1
 252 622 l 1,8,-1
 261 679 l 1,9,-1
 467 679 l 1,10,-1
 480 762 l 1,11,-1
 551 762 l 1,12,-1
 537 679 l 1,13,-1
 604 679 l 1,14,-1
 594 622 l 1,15,-1
 528 622 l 1,16,-1
 425 0 l 1,17,-1
 356 0 l 1,18,-1
 372 95 l 1,19,20
 342 44 342 44 298 13 c 128,-1,21
 254 -18 254 -18 199 -18 c 0,22,23
 115 -18 115 -18 64 54 c 128,-1,24
 13 126 13 126 36 265 c 0,0,1
108 265 m 0,25,26
 92 166 92 166 123 106 c 128,-1,27
 154 46 154 46 219 46 c 0,28,29
 281 46 281 46 332.5 106.5 c 128,-1,30
 384 167 384 167 400 265 c 0,31,32
 416 359 416 359 385 420.5 c 128,-1,33
 354 482 354 482 291 482 c 0,34,35
 225 482 225 482 174.5 422.5 c 128,-1,36
 124 363 124 363 108 265 c 0,25,26
EndSplineSet
EndChar

StartChar: uni0123
Encoding: 291 291 229
Width: 536
GlyphClass: 2
Flags: W
LayerCount: 2
Fore
SplineSet
266 629 m 1,0,-1
 375 808 l 1,1,-1
 426 808 l 1,2,-1
 350 629 l 1,3,-1
 266 629 l 1,0,-1
110 274 m 0,4,5
 94 179 94 179 124 122.5 c 128,-1,6
 154 66 154 66 215 66 c 0,7,8
 281 66 281 66 328 121 c 128,-1,9
 375 176 375 176 391 275 c 0,10,11
 407 372 407 372 378 427 c 128,-1,12
 349 482 349 482 285 482 c 0,13,14
 222 482 222 482 173.5 424 c 128,-1,15
 125 366 125 366 110 274 c 0,4,5
37 273 m 0,16,17
 57 394 57 394 127.5 470 c 128,-1,18
 198 546 198 546 287 546 c 0,19,20
 347 546 347 546 378.5 514.5 c 128,-1,21
 410 483 410 483 419 442 c 1,22,-1
 433 528 l 1,23,-1
 504 528 l 1,24,-1
 426 62 l 2,25,26
 401 -88 401 -88 338.5 -161.5 c 128,-1,27
 276 -235 276 -235 163 -235 c 0,28,29
 42 -235 42 -235 -5 -138 c 1,30,-1
 50 -104 l 1,31,32
 96 -173 96 -173 176 -173 c 0,33,34
 246 -173 246 -173 289 -119.5 c 128,-1,35
 332 -66 332 -66 349 24 c 0,36,37
 355 54 355 54 363 103 c 1,38,39
 336 58 336 58 294 30 c 128,-1,40
 252 2 252 2 199 2 c 0,41,42
 107 2 107 2 62 77.5 c 128,-1,43
 17 153 17 153 37 273 c 0,16,17
EndSplineSet
EndChar

StartChar: Hbar
Encoding: 294 294 232
Width: 705
GlyphClass: 2
Flags: W
LayerCount: 2
Fore
SplineSet
62 565 m 1,0,-1
 72 627 l 1,1,-1
 156 627 l 1,2,-1
 173 735 l 1,3,-1
 251 735 l 1,4,-1
 233 627 l 1,5,-1
 587 627 l 1,6,-1
 605 735 l 1,7,-1
 681 735 l 1,8,-1
 663 627 l 1,9,-1
 747 627 l 1,10,-1
 737 565 l 1,11,-1
 653 565 l 1,12,-1
 559 0 l 1,13,-1
 483 0 l 1,14,-1
 540 345 l 1,15,-1
 186 345 l 1,16,-1
 129 0 l 1,17,-1
 52 0 l 1,18,-1
 145 565 l 1,19,-1
 62 565 l 1,0,-1
577 565 m 1,20,-1
 223 565 l 1,21,-1
 197 411 l 1,22,-1
 551 411 l 1,23,-1
 577 565 l 1,20,-1
EndSplineSet
EndChar

StartChar: hbar
Encoding: 295 295 233
Width: 534
GlyphClass: 2
Flags: W
LayerCount: 2
Fore
SplineSet
66 624 m 1,0,-1
 76 682 l 1,1,-1
 144 682 l 1,2,-1
 158 762 l 1,3,-1
 229 762 l 1,4,-1
 216 682 l 1,5,-1
 411 682 l 1,6,-1
 402 624 l 1,7,-1
 206 624 l 1,8,-1
 174 430 l 1,9,-1
 175 430 l 1,10,11
 199 469 199 469 245.5 500.5 c 128,-1,12
 292 532 292 532 345 532 c 0,13,14
 372 532 372 532 396.5 523.5 c 128,-1,15
 421 515 421 515 444.5 494.5 c 128,-1,16
 468 474 468 474 477 431.5 c 128,-1,17
 486 389 486 389 476 328 c 2,18,-1
 421 0 l 1,19,-1
 350 0 l 1,20,-1
 402 316 l 2,21,22
 414 386 414 386 398 427 c 128,-1,23
 382 468 382 468 322 468 c 0,24,25
 265 468 265 468 214 417 c 128,-1,26
 163 366 163 366 153 300 c 2,27,-1
 103 0 l 1,28,-1
 31 0 l 1,29,-1
 135 624 l 1,30,-1
 66 624 l 1,0,-1
EndSplineSet
EndChar

StartChar: dotlessi
Encoding: 305 305 243
Width: 227
GlyphClass: 2
Flags: W
LayerCount: 2
Fore
SplineSet
31 0 m 1,0,-1
 119 528 l 1,1,-1
 190 528 l 1,2,-1
 103 0 l 1,3,-1
 31 0 l 1,0,-1
EndSplineSet
EndChar

StartChar: kgreenlandic
Encoding: 312 312 250
Width: 479
GlyphClass: 2
Flags: W
LayerCount: 2
Fore
SplineSet
29 0 m 1,0,-1
 116 528 l 1,1,-1
 187 528 l 1,2,-1
 149 295 l 1,3,-1
 151 295 l 1,4,-1
 425 528 l 1,5,-1
 517 528 l 1,6,-1
 224 278 l 1,7,-1
 438 0 l 1,8,-1
 350 0 l 1,9,-1
 168 224 l 1,10,-1
 132 192 l 1,11,-1
 100 0 l 1,12,-1
 29 0 l 1,0,-1
EndSplineSet
EndChar

StartChar: Lslash
Encoding: 321 321 259
Width: 529
GlyphClass: 2
Flags: W
LayerCount: 2
Fore
SplineSet
190 347 m 1,0,-1
 144 67 l 1,1,-1
 486 67 l 1,2,-1
 475 0 l 1,3,-1
 55 0 l 1,4,-1
 105 297 l 1,5,-1
 -7 229 l 1,6,-1
 -33 285 l 1,7,-1
 118 377 l 1,8,-1
 177 735 l 1,9,-1
 255 735 l 1,10,-1
 203 426 l 1,11,-1
 312 493 l 1,12,-1
 338 437 l 1,13,-1
 190 347 l 1,0,-1
EndSplineSet
EndChar

StartChar: lslash
Encoding: 322 322 260
Width: 244
GlyphClass: 2
Flags: W
LayerCount: 2
Fore
SplineSet
172 363 m 1,0,-1
 112 0 l 1,1,-1
 40 0 l 1,2,-1
 92 315 l 1,3,-1
 -8 254 l 1,4,-1
 -33 311 l 1,5,-1
 106 395 l 1,6,-1
 166 762 l 1,7,-1
 238 762 l 1,8,-1
 185 445 l 1,9,-1
 284 504 l 1,10,-1
 308 447 l 1,11,-1
 172 363 l 1,0,-1
EndSplineSet
EndChar

StartChar: Eng
Encoding: 330 330 268
Width: 698
GlyphClass: 2
Flags: W
LayerCount: 2
Fore
SplineSet
46 0 m 1,0,-1
 167 735 l 1,1,-1
 256 735 l 1,2,-1
 468 209 l 1,3,-1
 504 111 l 1,4,-1
 510 111 l 1,5,6
 516 205 516 205 534 313 c 2,7,-1
 604 735 l 1,8,-1
 680 735 l 1,9,-1
 560 9 l 2,10,11
 520 -235 520 -235 335 -235 c 0,12,13
 294 -235 294 -235 238 -227 c 1,14,-1
 248 -162 l 1,15,16
 292 -169 292 -169 332 -169 c 0,17,18
 394 -169 394 -169 423.5 -129.5 c 128,-1,19
 453 -90 453 -90 470 0 c 1,20,-1
 261 522 l 1,21,-1
 221 623 l 1,22,-1
 217 623 l 1,23,24
 211 527 211 527 197 445 c 2,25,-1
 123 0 l 1,26,-1
 46 0 l 1,0,-1
EndSplineSet
EndChar

StartChar: eng
Encoding: 331 331 269
Width: 526
GlyphClass: 2
Flags: W
LayerCount: 2
Fore
SplineSet
25 0 m 1,0,-1
 112 528 l 1,1,-1
 181 528 l 1,2,-1
 166 438 l 1,3,-1
 167 438 l 1,4,5
 186 477 186 477 234 511.5 c 128,-1,6
 282 546 282 546 344 546 c 0,7,8
 413 546 413 546 451 499.5 c 128,-1,9
 489 453 489 453 470 341 c 2,10,-1
 415 9 l 2,11,12
 394 -117 394 -117 339 -176 c 128,-1,13
 284 -235 284 -235 208 -235 c 0,14,15
 185 -235 185 -235 124 -226 c 1,16,-1
 134 -161 l 1,17,18
 182 -169 182 -169 209 -169 c 0,19,20
 266 -169 266 -169 297 -127 c 128,-1,21
 328 -85 328 -85 342 0 c 2,22,-1
 397 329 l 2,23,24
 422 482 422 482 318 482 c 0,25,26
 260 482 260 482 209.5 432.5 c 128,-1,27
 159 383 159 383 148 315 c 2,28,-1
 95 0 l 1,29,-1
 25 0 l 1,0,-1
EndSplineSet
EndChar

StartChar: OE
Encoding: 338 338 276
Width: 928
GlyphClass: 2
Flags: W
LayerCount: 2
Fore
SplineSet
60 367 m 0,0,1
 89 543 89 543 193.5 648 c 128,-1,2
 298 753 298 753 434 753 c 0,3,4
 492 753 492 753 533 735 c 1,5,-1
 959 735 l 1,6,-1
 948 668 l 1,7,-1
 596 668 l 1,8,-1
 554 413 l 1,9,-1
 869 413 l 1,10,-1
 858 347 l 1,11,-1
 543 347 l 1,12,-1
 497 67 l 1,13,-1
 857 67 l 1,14,-1
 846 0 l 1,15,-1
 413 0 l 1,16,17
 364 -18 364 -18 306 -18 c 0,18,19
 168 -18 168 -18 99.5 86 c 128,-1,20
 31 190 31 190 60 367 c 0,0,1
139 367 m 0,21,22
 115 221 115 221 165 135 c 128,-1,23
 215 49 215 49 317 49 c 0,24,25
 377 49 377 49 421 77 c 1,26,-1
 517 656 l 1,27,28
 481 686 481 686 423 686 c 0,29,30
 318 686 318 686 240.5 598.5 c 128,-1,31
 163 511 163 511 139 367 c 0,21,22
EndSplineSet
EndChar

StartChar: uni0163
Encoding: 355 355 293
Width: 337
GlyphClass: 2
Flags: W
LayerCount: 2
Fore
SplineSet
48 464 m 1,0,-1
 59 528 l 1,1,-1
 146 528 l 1,2,-1
 174 698 l 1,3,-1
 245 698 l 1,4,-1
 217 528 l 1,5,-1
 349 528 l 1,6,-1
 338 464 l 1,7,-1
 206 464 l 1,8,-1
 155 155 l 2,9,10
 147 107 147 107 162 86 c 128,-1,11
 177 65 177 65 216 65 c 2,12,-1
 273 65 l 1,13,-1
 263 0 l 1,14,-1
 196 0 l 2,15,16
 195 0 l 1,17,-1
 177 -41 l 1,18,19
 217 -48 217 -48 237 -70 c 128,-1,20
 257 -92 257 -92 251 -127 c 0,21,22
 245 -166 245 -166 210.5 -192.5 c 128,-1,23
 176 -219 176 -219 115 -219 c 0,24,25
 70 -219 70 -219 36 -209 c 1,26,-1
 44 -160 l 1,27,28
 81 -170 81 -170 122 -170 c 0,29,30
 149 -170 149 -170 169.5 -157.5 c 128,-1,31
 190 -145 190 -145 193 -123 c 0,32,33
 200 -78 200 -78 101 -71 c 1,34,-1
 134 11 l 1,35,36
 65 40 65 40 83 148 c 2,37,-1
 135 464 l 1,38,-1
 48 464 l 1,0,-1
EndSplineSet
Substitution2: "'locl' Localized Forms in Latin lookup 3 subtable" uni021B
Substitution2: "'locl' Localized Forms in Latin lookup 2 subtable" uni021B
Substitution2: "'aalt' Access All Alternates lookup 0 subtable" uni021B
EndChar

StartChar: tbar
Encoding: 359 359 297
Width: 337
GlyphClass: 2
Flags: W
LayerCount: 2
Fore
SplineSet
48 464 m 1,0,-1
 59 528 l 1,1,-1
 146 528 l 1,2,-1
 175 698 l 1,3,-1
 245 698 l 1,4,-1
 217 528 l 1,5,-1
 350 528 l 1,6,-1
 339 464 l 1,7,-1
 206 464 l 1,8,-1
 188 352 l 1,9,-1
 327 352 l 1,10,-1
 317 289 l 1,11,-1
 177 289 l 1,12,-1
 155 155 l 2,13,14
 147 107 147 107 162 86 c 128,-1,15
 177 65 177 65 216 65 c 2,16,-1
 274 65 l 1,17,-1
 263 0 l 1,18,-1
 196 0 l 2,19,20
 59 0 59 0 84 148 c 2,21,-1
 107 289 l 1,22,-1
 10 289 l 1,23,-1
 20 352 l 1,24,-1
 117 352 l 1,25,-1
 136 464 l 1,26,-1
 48 464 l 1,0,-1
EndSplineSet
EndChar

StartChar: longs
Encoding: 383 383 321
Width: 283
GlyphClass: 2
Flags: W
LayerCount: 2
Fore
SplineSet
33 0 m 1,0,-1
 134 608 l 2,1,2
 147 687 147 687 190 724.5 c 128,-1,3
 233 762 233 762 298 762 c 2,4,-1
 357 762 l 1,5,-1
 347 699 l 1,6,-1
 299 699 l 2,7,8
 220 699 220 699 204 599 c 2,9,-1
 105 0 l 1,10,-1
 33 0 l 1,0,-1
EndSplineSet
EndChar

StartChar: uni0180
Encoding: 384 384 322
Width: 551
GlyphClass: 2
Flags: W
LayerCount: 2
Fore
SplineSet
145 264 m 256,0,1
 129 165 129 165 161 105.5 c 128,-1,2
 193 46 193 46 254 46 c 0,3,4
 320 46 320 46 370 104.5 c 128,-1,5
 420 163 420 163 437 264 c 0,6,7
 453 363 453 363 423 422.5 c 128,-1,8
 393 482 393 482 327 482 c 0,9,10
 266 482 266 482 213.5 422.5 c 128,-1,11
 161 363 161 363 145 264 c 256,0,1
70 623 m 1,12,-1
 80 682 l 1,13,-1
 145 682 l 1,14,-1
 158 762 l 1,15,-1
 230 762 l 1,16,-1
 217 682 l 1,17,-1
 413 682 l 1,18,-1
 403 623 l 1,19,-1
 207 623 l 1,20,-1
 175 433 l 1,21,22
 195 474 195 474 242 510 c 128,-1,23
 289 546 289 546 347 546 c 0,24,25
 441 546 441 546 486 470 c 128,-1,26
 531 394 531 394 509 264 c 0,27,28
 497 191 497 191 468.5 135 c 128,-1,29
 440 79 440 79 403.5 47 c 128,-1,30
 367 15 367 15 328.5 -1.5 c 128,-1,31
 290 -18 290 -18 253 -18 c 0,32,33
 198 -18 198 -18 163.5 15 c 128,-1,34
 129 48 129 48 118 94 c 1,35,-1
 103 0 l 1,36,-1
 32 0 l 1,37,-1
 135 623 l 1,38,-1
 70 623 l 1,12,-1
EndSplineSet
EndChar

StartChar: uni0182
Encoding: 386 386 324
Width: 632
GlyphClass: 2
Flags: W
LayerCount: 2
Fore
SplineSet
134 67 m 1,0,-1
 325 67 l 2,1,2
 393 67 393 67 441.5 102.5 c 128,-1,3
 490 138 490 138 501 206 c 0,4,5
 511 269 511 269 475 309 c 128,-1,6
 439 349 439 349 368 349 c 2,7,-1
 181 349 l 1,8,-1
 134 67 l 1,0,-1
46 0 m 1,9,-1
 167 735 l 1,10,-1
 585 735 l 1,11,-1
 574 668 l 1,12,-1
 234 668 l 1,13,-1
 192 415 l 1,14,-1
 387 415 l 2,15,16
 492 415 492 415 543.5 356.5 c 128,-1,17
 595 298 595 298 580 206 c 0,18,19
 565 117 565 117 496 58.5 c 128,-1,20
 427 0 427 0 327 0 c 2,21,-1
 46 0 l 1,9,-1
EndSplineSet
EndChar

StartChar: uni0183
Encoding: 387 387 325
Width: 549
GlyphClass: 2
Flags: W
LayerCount: 2
Fore
SplineSet
143 264 m 0,0,1
 126 164 126 164 158 105 c 128,-1,2
 190 46 190 46 251 46 c 0,3,4
 317 46 317 46 367.5 104.5 c 128,-1,5
 418 163 418 163 434 264 c 0,6,7
 451 364 451 364 420.5 423 c 128,-1,8
 390 482 390 482 324 482 c 0,9,10
 263 482 263 482 211 422.5 c 128,-1,11
 159 363 159 363 143 264 c 0,0,1
29 0 m 1,12,-1
 156 762 l 1,13,-1
 495 762 l 1,14,-1
 485 700 l 1,15,-1
 217 700 l 1,16,-1
 173 434 l 1,17,18
 189 470 189 470 237.5 508 c 128,-1,19
 286 546 286 546 344 546 c 0,20,21
 437 546 437 546 482.5 470 c 128,-1,22
 528 394 528 394 507 264 c 0,23,24
 495 191 495 191 466 135 c 128,-1,25
 437 79 437 79 401 47 c 128,-1,26
 365 15 365 15 326.5 -1.5 c 128,-1,27
 288 -18 288 -18 251 -18 c 0,28,29
 196 -18 196 -18 160.5 15 c 128,-1,30
 125 48 125 48 116 94 c 1,31,-1
 100 0 l 1,32,-1
 29 0 l 1,12,-1
EndSplineSet
EndChar

StartChar: uni0184
Encoding: 388 388 326
Width: 644
GlyphClass: 2
Flags: W
LayerCount: 2
Fore
SplineSet
87 675 m 1,0,-1
 202 735 l 1,1,-1
 250 735 l 1,2,-1
 197 411 l 1,3,-1
 398 411 l 2,4,5
 504 411 504 411 555.5 353.5 c 128,-1,6
 607 296 607 296 592 206 c 0,7,8
 578 124 578 124 510.5 62 c 128,-1,9
 443 0 443 0 346 0 c 2,10,-1
 51 0 l 1,11,-1
 153 614 l 1,12,-1
 87 675 l 1,0,-1
140 67 m 1,13,-1
 340 67 l 2,14,15
 403 67 403 67 453 103.5 c 128,-1,16
 503 140 503 140 513 205 c 0,17,18
 523 264 523 264 488 305 c 128,-1,19
 453 346 453 346 383 346 c 2,20,-1
 186 346 l 1,21,-1
 140 67 l 1,13,-1
EndSplineSet
EndChar

StartChar: uni0185
Encoding: 389 389 327
Width: 552
GlyphClass: 2
Flags: W
LayerCount: 2
Fore
SplineSet
78 700 m 1,0,-1
 191 762 l 1,1,-1
 230 762 l 1,2,-1
 176 435 l 1,3,4
 208 492 208 492 257.5 519 c 128,-1,5
 307 546 307 546 347 546 c 0,6,7
 441 546 441 546 486 470 c 128,-1,8
 531 394 531 394 510 264 c 0,9,10
 498 192 498 192 469.5 136 c 128,-1,11
 441 80 441 80 405 47.5 c 128,-1,12
 369 15 369 15 330 -1.5 c 128,-1,13
 291 -18 291 -18 253 -18 c 0,14,15
 199 -18 199 -18 164.5 14.5 c 128,-1,16
 130 47 130 47 118 94 c 1,17,-1
 103 0 l 1,18,-1
 32 0 l 1,19,-1
 138 640 l 1,20,-1
 78 700 l 1,0,-1
146 264 m 0,21,22
 129 164 129 164 161 105 c 128,-1,23
 193 46 193 46 254 46 c 0,24,25
 320 46 320 46 370.5 104.5 c 128,-1,26
 421 163 421 163 437 264 c 0,27,28
 453 362 453 362 423.5 422 c 128,-1,29
 394 482 394 482 327 482 c 0,30,31
 266 482 266 482 214 422.5 c 128,-1,32
 162 363 162 363 146 264 c 0,21,22
EndSplineSet
EndChar

StartChar: uni0186
Encoding: 390 390 328
Width: 631
GlyphClass: 2
Flags: W
LayerCount: 2
Fore
SplineSet
2 155 m 1,0,-1
 76 178 l 1,1,2
 92 124 92 124 133.5 87 c 128,-1,3
 175 50 175 50 240 50 c 0,4,5
 342 50 342 50 418.5 135 c 128,-1,6
 495 220 495 220 520 367 c 0,7,8
 544 512 544 512 496.5 599 c 128,-1,9
 449 686 449 686 345 686 c 0,10,11
 240 686 240 686 156 568 c 1,12,-1
 94 592 l 1,13,14
 135 657 135 657 202.5 705 c 128,-1,15
 270 753 270 753 355 753 c 0,16,17
 491 753 491 753 560 650 c 128,-1,18
 629 547 629 547 599 367 c 256,19,20
 569 187 569 187 466 84.5 c 128,-1,21
 363 -18 363 -18 227 -18 c 0,22,23
 132 -18 132 -18 77.5 33 c 128,-1,24
 23 84 23 84 2 155 c 1,0,-1
EndSplineSet
EndChar

StartChar: uni018B
Encoding: 395 395 333
Width: 632
GlyphClass: 2
Flags: W
LayerCount: 2
Fore
SplineSet
106 206 m 0,0,1
 95 139 95 139 131 103 c 128,-1,2
 167 67 167 67 234 67 c 2,3,-1
 427 67 l 1,4,-1
 473 349 l 1,5,-1
 288 349 l 2,6,7
 217 349 217 349 167 309.5 c 128,-1,8
 117 270 117 270 106 206 c 0,0,1
26 206 m 0,9,10
 41 298 41 298 112.5 356.5 c 128,-1,11
 184 415 184 415 290 415 c 2,12,-1
 484 415 l 1,13,-1
 526 668 l 1,14,-1
 186 668 l 1,15,-1
 197 735 l 1,16,-1
 614 735 l 1,17,-1
 492 0 l 1,18,-1
 210 0 l 2,19,20
 112 0 112 0 61.5 58.5 c 128,-1,21
 11 117 11 117 26 206 c 0,9,10
EndSplineSet
EndChar

StartChar: uni018C
Encoding: 396 396 334
Width: 549
GlyphClass: 2
Flags: W
LayerCount: 2
Fore
SplineSet
108 264 m 0,0,1
 91 163 91 163 123 104.5 c 128,-1,2
 155 46 155 46 219 46 c 0,3,4
 281 46 281 46 332 105.5 c 128,-1,5
 383 165 383 165 400 264 c 256,6,7
 416 363 416 363 383.5 422.5 c 128,-1,8
 351 482 351 482 291 482 c 0,9,10
 225 482 225 482 175 423 c 128,-1,11
 125 364 125 364 108 264 c 0,0,1
36 264 m 0,12,13
 57 393 57 393 129.5 469.5 c 128,-1,14
 202 546 202 546 293 546 c 0,15,16
 352 546 352 546 386 509.5 c 128,-1,17
 420 473 420 473 426 436 c 1,18,-1
 470 700 l 1,19,-1
 197 700 l 1,20,-1
 207 762 l 1,21,-1
 551 762 l 1,22,-1
 425 0 l 1,23,-1
 356 0 l 1,24,-1
 372 95 l 1,25,26
 345 49 345 49 300 15.5 c 128,-1,27
 255 -18 255 -18 199 -18 c 0,28,29
 161 -18 161 -18 127.5 -1.5 c 128,-1,30
 94 15 94 15 68 47 c 128,-1,31
 42 79 42 79 33 135 c 128,-1,32
 24 191 24 191 36 264 c 0,12,13
EndSplineSet
EndChar

StartChar: uni018D
Encoding: 397 397 335
Width: 574
GlyphClass: 2
Flags: W
LayerCount: 2
Fore
SplineSet
117 317 m 0,0,1
 106 250 106 250 151.5 193 c 128,-1,2
 197 136 197 136 264 106 c 1,3,4
 345 141 345 141 401.5 198 c 128,-1,5
 458 255 458 255 469 317 c 0,6,7
 480 386 480 386 443 434 c 128,-1,8
 406 482 406 482 323 482 c 0,9,10
 244 482 244 482 186.5 436.5 c 128,-1,11
 129 391 129 391 117 317 c 0,0,1
44 314 m 0,12,13
 62 422 62 422 141 484 c 128,-1,14
 220 546 220 546 335 546 c 0,15,16
 448 546 448 546 503 481.5 c 128,-1,17
 558 417 558 417 542 320 c 0,18,19
 531 252 531 252 471 184 c 128,-1,20
 411 116 411 116 319 72 c 1,21,22
 422 4 422 4 409 -73 c 0,23,24
 398 -140 398 -140 339 -182.5 c 128,-1,25
 280 -225 280 -225 190 -225 c 0,26,27
 52 -225 52 -225 1 -111 c 1,28,-1
 60 -77 l 1,29,30
 76 -110 76 -110 112 -135 c 128,-1,31
 148 -160 148 -160 200 -160 c 0,32,33
 250 -160 250 -160 290 -136 c 128,-1,34
 330 -112 330 -112 336 -73 c 0,35,36
 338 -58 338 -58 331 -42.5 c 128,-1,37
 324 -27 324 -27 314 -16 c 128,-1,38
 304 -5 304 -5 281.5 10.5 c 128,-1,39
 259 26 259 26 243.5 35.5 c 128,-1,40
 228 45 228 45 198 62 c 0,41,42
 120 107 120 107 75.5 171.5 c 128,-1,43
 31 236 31 236 44 314 c 0,12,13
EndSplineSet
EndChar

StartChar: uni018E
Encoding: 398 398 336
Width: 586
GlyphClass: 2
Flags: W
LayerCount: 2
Fore
SplineSet
-12 0 m 1,0,-1
 0 67 l 1,1,-1
 382 67 l 1,2,-1
 428 347 l 1,3,-1
 90 347 l 1,4,-1
 101 413 l 1,5,-1
 439 413 l 1,6,-1
 481 668 l 1,7,-1
 108 668 l 1,8,-1
 119 735 l 1,9,-1
 569 735 l 1,10,-1
 447 0 l 1,11,-1
 -12 0 l 1,0,-1
EndSplineSet
EndChar

StartChar: uni018F
Encoding: 399 399 337
Width: 680
GlyphClass: 2
Flags: W
LayerCount: 2
Fore
SplineSet
52 341 m 0,0,1
 59 383 59 383 63 399 c 1,2,-1
 573 399 l 1,3,4
 589 532 589 532 544.5 609 c 128,-1,5
 500 686 500 686 395 686 c 0,6,7
 272 686 272 686 178 573 c 1,8,-1
 118 601 l 1,9,10
 167 673 167 673 242 713 c 128,-1,11
 317 753 317 753 407 753 c 0,12,13
 559 753 559 753 618.5 646 c 128,-1,14
 678 539 678 539 649 366 c 0,15,16
 619 186 619 186 517 84 c 128,-1,17
 415 -18 415 -18 281 -18 c 0,18,19
 186 -18 186 -18 128 33.5 c 128,-1,20
 70 85 70 85 53 164 c 128,-1,21
 36 243 36 243 52 341 c 0,0,1
131 332 m 1,22,23
 130 327 130 327 129.5 319.5 c 128,-1,24
 129 312 129 312 128 309 c 0,25,26
 121 260 121 260 125.5 217.5 c 128,-1,27
 130 175 130 175 146 135 c 128,-1,28
 162 95 162 95 200.5 72 c 128,-1,29
 239 49 239 49 294 49 c 0,30,31
 334 49 334 49 373.5 64.5 c 128,-1,32
 413 80 413 80 451.5 112 c 128,-1,33
 490 144 490 144 520 201 c 128,-1,34
 550 258 550 258 563 332 c 1,35,-1
 131 332 l 1,22,23
EndSplineSet
EndChar

StartChar: uni0190
Encoding: 400 400 338
Width: 584
GlyphClass: 2
Flags: W
LayerCount: 2
Fore
SplineSet
33 203 m 0,0,1
 46 280 46 280 99.5 327 c 128,-1,2
 153 374 153 374 216 391 c 1,3,4
 169 410 169 410 140 455.5 c 128,-1,5
 111 501 111 501 121 565 c 0,6,7
 135 647 135 647 204.5 700 c 128,-1,8
 274 753 274 753 378 753 c 0,9,10
 472 753 472 753 519.5 707 c 128,-1,11
 567 661 567 661 585 600 c 1,12,-1
 515 577 l 1,13,14
 477 689 477 689 371 689 c 0,15,16
 305 689 305 689 256.5 651.5 c 128,-1,17
 208 614 208 614 198 557 c 0,18,19
 187 493 187 493 231.5 454.5 c 128,-1,20
 276 416 276 416 343 416 c 0,21,22
 384 416 384 416 405 418 c 1,23,-1
 394 353 l 1,24,25
 372 355 372 355 330 355 c 0,26,27
 253 355 253 355 188.5 316 c 128,-1,28
 124 277 124 277 112 204 c 0,29,30
 99 127 99 127 146 87 c 128,-1,31
 193 47 193 47 269 47 c 0,32,33
 322 47 322 47 378 77 c 128,-1,34
 434 107 434 107 466 151 c 1,35,-1
 525 125 l 1,36,37
 484 60 484 60 410.5 21 c 128,-1,38
 337 -18 337 -18 255 -18 c 0,39,40
 143 -18 143 -18 79.5 41 c 128,-1,41
 16 100 16 100 33 203 c 0,0,1
EndSplineSet
EndChar

StartChar: uni0191
Encoding: 401 401 339
Width: 551
GlyphClass: 2
Flags: W
LayerCount: 2
Fore
SplineSet
-106 -164 m 1,0,1
 -74 -169 -74 -169 -59 -169 c 0,2,3
 -12 -169 -12 -169 13 -136 c 128,-1,4
 38 -103 38 -103 49 -36 c 2,5,-1
 177 735 l 1,6,-1
 614 735 l 1,7,-1
 603 668 l 1,8,-1
 243 668 l 1,9,-1
 200 403 l 1,10,-1
 522 403 l 1,11,-1
 511 338 l 1,12,-1
 189 338 l 1,13,-1
 127 -36 l 2,14,15
 110 -140 110 -140 60.5 -187.5 c 128,-1,16
 11 -235 11 -235 -57 -235 c 0,17,18
 -85 -235 -85 -235 -117 -229 c 1,19,-1
 -106 -164 l 1,0,1
EndSplineSet
EndChar

StartChar: florin
Encoding: 402 402 340
Width: 319
GlyphClass: 2
Flags: W
LayerCount: 2
Fore
SplineSet
-101 -165 m 1,0,1
 -83 -169 -83 -169 -54 -169 c 0,2,3
 34 -169 34 -169 57 -30 c 2,4,-1
 139 464 l 1,5,-1
 53 464 l 1,6,-1
 63 528 l 1,7,-1
 150 528 l 1,8,-1
 163 609 l 2,9,10
 176 688 176 688 218.5 725 c 128,-1,11
 261 762 261 762 327 762 c 2,12,-1
 393 762 l 1,13,-1
 383 700 l 1,14,-1
 326 700 l 2,15,16
 249 700 249 700 233 602 c 2,17,-1
 220 528 l 1,18,-1
 341 528 l 1,19,-1
 330 464 l 1,20,-1
 210 464 l 1,21,-1
 128 -32 l 2,22,23
 111 -137 111 -137 63 -186 c 128,-1,24
 15 -235 15 -235 -53 -235 c 0,25,26
 -65 -235 -65 -235 -111 -229 c 1,27,-1
 -101 -165 l 1,0,1
EndSplineSet
EndChar

StartChar: uni0194
Encoding: 404 404 342
Width: 594
GlyphClass: 2
Flags: W
LayerCount: 2
Fore
SplineSet
73 735 m 1,0,-1
 158 735 l 1,1,-1
 269 187 l 1,2,-1
 276 150 l 1,3,-1
 277 150 l 1,4,-1
 295 187 l 1,5,-1
 585 735 l 1,6,-1
 671 735 l 1,7,-1
 328 112 l 1,8,9
 361 57 361 57 376.5 11.5 c 128,-1,10
 392 -34 392 -34 384 -84 c 0,11,12
 374 -147 374 -147 325.5 -191 c 128,-1,13
 277 -235 277 -235 212 -235 c 0,14,15
 146 -235 146 -235 112 -193.5 c 128,-1,16
 78 -152 78 -152 89 -84 c 0,17,18
 94 -51 94 -51 116.5 -12.5 c 128,-1,19
 139 26 139 26 159 51 c 128,-1,20
 179 76 179 76 211 112 c 1,21,-1
 73 735 l 1,0,-1
167 -81 m 0,22,23
 161 -120 161 -120 176 -146 c 128,-1,24
 191 -172 191 -172 223 -172 c 0,25,26
 255 -172 255 -172 279 -145 c 128,-1,27
 303 -118 303 -118 309 -81 c 0,28,29
 320 -16 320 -16 262 70 c 1,30,31
 178 -12 178 -12 167 -81 c 0,22,23
EndSplineSet
EndChar

StartChar: uni0195
Encoding: 405 405 343
Width: 842
GlyphClass: 2
Flags: W
LayerCount: 2
Fore
SplineSet
29 0 m 1,0,-1
 156 762 l 1,1,-1
 227 762 l 1,2,-1
 174 444 l 1,3,-1
 175 444 l 1,4,5
 204 490 204 490 250 518 c 128,-1,6
 296 546 296 546 347 546 c 0,7,8
 510 546 510 546 476 341 c 2,9,-1
 448 175 l 2,10,11
 438 116 438 116 460.5 81 c 128,-1,12
 483 46 483 46 545 46 c 0,13,14
 666 46 666 46 687 179 c 2,15,-1
 745 528 l 1,16,-1
 817 528 l 1,17,-1
 757 169 l 2,18,19
 742 77 742 77 682.5 29.5 c 128,-1,20
 623 -18 623 -18 534 -18 c 0,21,22
 497 -18 497 -18 466.5 -9 c 128,-1,23
 436 0 436 0 411.5 19.5 c 128,-1,24
 387 39 387 39 376.5 75.5 c 128,-1,25
 366 112 366 112 375 162 c 2,26,-1
 402 329 l 2,27,28
 427 482 427 482 323 482 c 0,29,30
 265 482 265 482 214.5 432 c 128,-1,31
 164 382 164 382 153 316 c 0,32,33
 153 314 153 314 153 313 c 2,34,-1
 101 0 l 1,35,-1
 29 0 l 1,0,-1
EndSplineSet
EndChar

StartChar: uni0196
Encoding: 406 406 344
Width: 331
GlyphClass: 2
Flags: W
LayerCount: 2
Fore
SplineSet
72 160 m 2,0,-1
 167 735 l 1,1,-1
 245 735 l 1,2,-1
 150 163 l 2,3,4
 140 104 140 104 154 76.5 c 128,-1,5
 168 49 168 49 209 49 c 0,6,7
 244 49 244 49 280 55 c 1,8,-1
 269 -11 l 1,9,10
 216 -18 216 -18 185 -18 c 0,11,12
 120 -18 120 -18 88.5 25 c 128,-1,13
 57 68 57 68 72 160 c 2,0,-1
EndSplineSet
EndChar

StartChar: uni0197
Encoding: 407 407 345
Width: 272
GlyphClass: 2
Flags: W
LayerCount: 2
Fore
SplineSet
33 343 m 1,0,-1
 44 405 l 1,1,-1
 118 405 l 1,2,-1
 173 735 l 1,3,-1
 250 735 l 1,4,-1
 196 405 l 1,5,-1
 270 405 l 1,6,-1
 260 343 l 1,7,-1
 185 343 l 1,8,-1
 129 0 l 1,9,-1
 51 0 l 1,10,-1
 108 343 l 1,11,-1
 33 343 l 1,0,-1
EndSplineSet
EndChar

StartChar: uni0198
Encoding: 408 408 346
Width: 620
GlyphClass: 2
Flags: W
LayerCount: 2
Fore
SplineSet
46 0 m 1,0,-1
 167 735 l 1,1,-1
 245 735 l 1,2,-1
 181 346 l 1,3,-1
 182 346 l 1,4,-1
 534 696 l 2,5,6
 592 753 592 753 670 753 c 0,7,8
 709 753 709 753 739 745 c 1,9,-1
 727 677 l 1,10,11
 694 686 694 686 663 686 c 0,12,13
 625 686 625 686 597 657 c 2,14,-1
 349 417 l 1,15,-1
 570 0 l 1,16,-1
 473 0 l 1,17,-1
 291 360 l 1,18,-1
 162 235 l 1,19,-1
 123 0 l 1,20,-1
 46 0 l 1,0,-1
EndSplineSet
EndChar

StartChar: uni0199
Encoding: 409 409 347
Width: 478
GlyphClass: 2
Flags: W
LayerCount: 2
Fore
SplineSet
31 0 m 1,0,-1
 132 610 l 2,1,2
 145 686 145 686 195 727 c 128,-1,3
 245 768 245 768 316 768 c 0,4,5
 342 768 342 768 383 764 c 1,6,-1
 372 699 l 1,7,8
 339 703 339 703 317 703 c 0,9,10
 274 703 274 703 242 676 c 128,-1,11
 210 649 210 649 202 598 c 2,12,-1
 146 262 l 1,13,-1
 410 528 l 1,14,-1
 505 528 l 1,15,-1
 289 317 l 1,16,-1
 437 0 l 1,17,-1
 350 0 l 1,18,-1
 235 264 l 1,19,-1
 129 161 l 1,20,-1
 103 0 l 1,21,-1
 31 0 l 1,0,-1
EndSplineSet
EndChar

StartChar: uni019A
Encoding: 410 410 348
Width: 240
GlyphClass: 2
Flags: W
LayerCount: 2
Fore
SplineSet
22 371 m 1,0,-1
 32 433 l 1,1,-1
 110 433 l 1,2,-1
 164 762 l 1,3,-1
 236 762 l 1,4,-1
 181 433 l 1,5,-1
 259 433 l 1,6,-1
 249 371 l 1,7,-1
 171 371 l 1,8,-1
 110 0 l 1,9,-1
 38 0 l 1,10,-1
 100 371 l 1,11,-1
 22 371 l 1,0,-1
EndSplineSet
EndChar

StartChar: uni019B
Encoding: 411 411 349
Width: 468
GlyphClass: 2
Flags: W
LayerCount: 2
Fore
SplineSet
-41 0 m 1,0,-1
 244 535 l 1,1,-1
 236 585 l 1,2,-1
 106 498 l 1,3,-1
 79 545 l 1,4,-1
 224 638 l 1,5,6
 204 696 204 696 143 696 c 2,7,-1
 125 696 l 1,8,-1
 135 759 l 1,9,-1
 165 759 l 2,10,11
 251 759 251 759 283 677 c 1,12,-1
 386 750 l 1,13,-1
 413 703 l 1,14,-1
 298 624 l 1,15,-1
 414 0 l 1,16,-1
 331 0 l 1,17,-1
 284 309 l 2,18,19
 283 315 283 315 275.5 365.5 c 128,-1,20
 268 416 268 416 265 443 c 1,21,-1
 261 443 l 1,22,23
 244 401 244 401 198 309 c 2,24,-1
 43 0 l 1,25,-1
 -41 0 l 1,0,-1
EndSplineSet
EndChar

StartChar: uni019C
Encoding: 412 412 350
Width: 926
GlyphClass: 2
Flags: W
CounterMasks: 1 1c
LayerCount: 2
Fore
SplineSet
82 218 m 2,0,-1
 167 735 l 1,1,-1
 244 735 l 1,2,-1
 158 215 l 2,3,4
 130 48 130 48 237 48 c 0,5,6
 298 48 298 48 351 103.5 c 128,-1,7
 404 159 404 159 418 240 c 2,8,-1
 500 735 l 1,9,-1
 576 735 l 1,10,-1
 490 213 l 2,11,12
 477 133 477 133 498 91 c 128,-1,13
 519 49 519 49 572 49 c 0,14,15
 637 49 637 49 686.5 101.5 c 128,-1,16
 736 154 736 154 749 236 c 2,17,-1
 832 735 l 1,18,-1
 908 735 l 1,19,-1
 787 0 l 1,20,-1
 713 0 l 1,21,-1
 728 88 l 1,22,-1
 726 88 l 1,23,24
 708 49 708 49 657 15.5 c 128,-1,25
 606 -18 606 -18 545 -18 c 0,26,27
 424 -18 424 -18 414 105 c 1,28,29
 394 61 394 61 339 21.5 c 128,-1,30
 284 -18 284 -18 209 -18 c 0,31,32
 43 -18 43 -18 82 218 c 2,0,-1
EndSplineSet
EndChar

StartChar: uni019D
Encoding: 413 413 351
Width: 706
GlyphClass: 2
Flags: W
LayerCount: 2
Fore
SplineSet
177 735 m 1,0,-1
 265 735 l 1,1,-1
 477 209 l 1,2,-1
 513 111 l 1,3,-1
 518 111 l 1,4,5
 523 203 523 203 543 319 c 2,6,-1
 612 735 l 1,7,-1
 688 735 l 1,8,-1
 566 0 l 1,9,-1
 478 0 l 1,10,-1
 270 522 l 1,11,-1
 231 623 l 1,12,-1
 226 623 l 1,13,14
 220 528 220 528 201 416 c 2,15,-1
 129 -18 l 2,16,17
 93 -235 93 -235 -62 -235 c 0,18,19
 -83 -235 -83 -235 -111 -230 c 1,20,-1
 -100 -165 l 1,21,22
 -87 -168 -87 -168 -65 -168 c 0,23,24
 -11 -168 -11 -168 14.5 -130.5 c 128,-1,25
 40 -93 40 -93 52 -16 c 2,26,-1
 177 735 l 1,0,-1
EndSplineSet
EndChar

StartChar: uni019E
Encoding: 414 414 352
Width: 537
GlyphClass: 2
Flags: W
LayerCount: 2
Fore
SplineSet
25 0 m 1,0,-1
 112 528 l 1,1,-1
 181 528 l 1,2,-1
 166 439 l 1,3,-1
 167 439 l 1,4,5
 193 484 193 484 239 515 c 128,-1,6
 285 546 285 546 344 546 c 0,7,8
 413 546 413 546 451 499.5 c 128,-1,9
 489 453 489 453 470 341 c 2,10,-1
 376 -231 l 1,11,-1
 304 -231 l 1,12,-1
 397 329 l 2,13,14
 422 482 422 482 318 482 c 0,15,16
 260 482 260 482 209.5 432.5 c 128,-1,17
 159 383 159 383 148 315 c 2,18,-1
 95 0 l 1,19,-1
 25 0 l 1,0,-1
EndSplineSet
EndChar

StartChar: uni019F
Encoding: 415 415 353
Width: 691
GlyphClass: 2
Flags: W
LayerCount: 2
Fore
SplineSet
60 367 m 0,0,1
 89 540 89 540 188.5 646.5 c 128,-1,2
 288 753 288 753 424 753 c 0,3,4
 562 753 562 753 625 647 c 128,-1,5
 688 541 688 541 659 366 c 0,6,7
 630 189 630 189 531.5 85.5 c 128,-1,8
 433 -18 433 -18 296 -18 c 256,9,10
 160 -18 160 -18 95.5 86.5 c 128,-1,11
 31 191 31 191 60 367 c 0,0,1
574 335 m 1,12,-1
 134 335 l 1,13,14
 119 203 119 203 165.5 126.5 c 128,-1,15
 212 50 212 50 308 50 c 0,16,17
 402 50 402 50 473.5 125.5 c 128,-1,18
 545 201 545 201 574 335 c 1,12,-1
144 396 m 1,19,-1
 584 396 l 1,20,21
 600 529 600 529 555.5 607.5 c 128,-1,22
 511 686 511 686 413 686 c 0,23,24
 316 686 316 686 244 608 c 128,-1,25
 172 530 172 530 144 396 c 1,19,-1
EndSplineSet
EndChar

StartChar: uni01A2
Encoding: 418 418 356
Width: 947
GlyphClass: 2
Flags: W
LayerCount: 2
Fore
SplineSet
59 362 m 0,0,1
 89 544 89 544 189.5 648.5 c 128,-1,2
 290 753 290 753 416 753 c 0,3,4
 465 753 465 753 555.5 732.5 c 128,-1,5
 646 712 646 712 719 712 c 0,6,7
 793 712 793 712 930 735 c 1,8,-1
 808 0 l 1,9,-1
 732 0 l 1,10,-1
 841 658 l 1,11,12
 777 647 777 647 707 647 c 0,13,14
 645 647 645 647 588 656 c 1,15,-1
 489 55 l 1,16,17
 399 -18 399 -18 288 -18 c 0,18,19
 161 -18 161 -18 96 86.5 c 128,-1,20
 31 191 31 191 59 362 c 0,0,1
138 362 m 0,21,22
 114 217 114 217 161 133 c 128,-1,23
 208 49 208 49 300 49 c 0,24,25
 359 49 359 49 416 84 c 1,26,-1
 513 667 l 1,27,28
 506 669 506 669 492 673.5 c 128,-1,29
 478 678 478 678 470 680.5 c 128,-1,30
 462 683 462 683 445 685 c 128,-1,31
 428 687 428 687 405 687 c 0,32,33
 317 687 317 687 240.5 602 c 128,-1,34
 164 517 164 517 138 362 c 0,21,22
EndSplineSet
EndChar

StartChar: uni01A3
Encoding: 419 419 357
Width: 751
GlyphClass: 2
Flags: W
LayerCount: 2
Fore
SplineSet
36 264 m 256,0,1
 58 398 58 398 132.5 472 c 128,-1,2
 207 546 207 546 310 546 c 0,3,4
 354 546 354 546 427.5 530.5 c 128,-1,5
 501 515 501 515 559 515 c 0,6,7
 639 515 639 515 721 531 c 1,8,-1
 633 0 l 1,9,-1
 563 0 l 1,10,-1
 639 457 l 1,11,12
 605 452 605 452 548 452 c 0,13,14
 488 452 488 452 463 456 c 1,15,-1
 399 71 l 1,16,17
 323 -18 323 -18 216 -18 c 0,18,19
 116 -18 116 -18 65 56 c 128,-1,20
 14 130 14 130 36 264 c 256,0,1
108 264 m 0,21,22
 92 165 92 165 124.5 105.5 c 128,-1,23
 157 46 157 46 227 46 c 0,24,25
 284 46 284 46 335 105 c 1,26,-1
 395 467 l 1,27,28
 329 482 329 482 299 482 c 0,29,30
 223 482 223 482 173.5 421 c 128,-1,31
 124 360 124 360 108 264 c 0,21,22
EndSplineSet
EndChar

StartChar: uni01A5
Encoding: 421 421 359
Width: 549
GlyphClass: 2
Flags: W
LayerCount: 2
Fore
SplineSet
144 264 m 0,0,1
 127 162 127 162 157 104 c 128,-1,2
 187 46 187 46 251 46 c 0,3,4
 317 46 317 46 367.5 105 c 128,-1,5
 418 164 418 164 434 264 c 0,6,7
 450 362 450 362 419.5 422 c 128,-1,8
 389 482 389 482 323 482 c 0,9,10
 262 482 262 482 211 422.5 c 128,-1,11
 160 363 160 363 144 264 c 0,0,1
-9 -231 m 1,12,-1
 130 609 l 2,13,14
 144 692 144 692 195.5 730 c 128,-1,15
 247 768 247 768 310 768 c 0,16,17
 335 768 335 768 378 764 c 1,18,-1
 368 700 l 1,19,20
 340 703 340 703 310 703 c 0,21,22
 263 703 263 703 234 672.5 c 128,-1,23
 205 642 205 642 198 598 c 2,24,-1
 170 430 l 1,25,26
 188 470 188 470 236.5 508 c 128,-1,27
 285 546 285 546 344 546 c 0,28,29
 434 546 434 546 481 469.5 c 128,-1,30
 528 393 528 393 507 264 c 0,31,32
 495 191 495 191 466 135 c 128,-1,33
 437 79 437 79 401 47 c 128,-1,34
 365 15 365 15 326 -1.5 c 128,-1,35
 287 -18 287 -18 250 -18 c 0,36,37
 193 -18 193 -18 159 15 c 128,-1,38
 125 48 125 48 116 92 c 1,39,-1
 63 -231 l 1,40,-1
 -9 -231 l 1,12,-1
EndSplineSet
EndChar

StartChar: uni01A6
Encoding: 422 422 360
Width: 598
GlyphClass: 2
Flags: W
LayerCount: 2
Fore
SplineSet
159 297 m 1,0,-1
 315 297 l 2,1,2
 380 297 380 297 427 328 c 128,-1,3
 474 359 474 359 486 433 c 0,4,5
 507 557 507 557 361 557 c 2,6,-1
 202 557 l 1,7,-1
 159 297 l 1,0,-1
32 0 m 1,8,-1
 154 735 l 1,9,-1
 231 735 l 1,10,-1
 213 624 l 1,11,-1
 388 624 l 2,12,13
 493 624 493 624 535.5 571.5 c 128,-1,14
 578 519 578 519 564 439 c 0,15,16
 557 399 557 399 540 368 c 128,-1,17
 523 337 523 337 505.5 319.5 c 128,-1,18
 488 302 488 302 460 287 c 128,-1,19
 432 272 432 272 422 268.5 c 128,-1,20
 412 265 412 265 390 258 c 1,21,22
 425 237 425 237 438.5 208.5 c 128,-1,23
 452 180 452 180 458 128 c 0,24,25
 459 123 459 123 463.5 95 c 128,-1,26
 468 67 468 67 469 59 c 128,-1,27
 470 51 470 51 474.5 27.5 c 128,-1,28
 479 4 479 4 482 -9 c 128,-1,29
 485 -22 485 -22 491.5 -42 c 128,-1,30
 498 -62 498 -62 506 -80 c 1,31,-1
 422 -80 l 1,32,33
 410 -51 410 -51 402.5 -19 c 128,-1,34
 395 13 395 13 387 62.5 c 128,-1,35
 379 112 379 112 375 130 c 0,36,37
 366 182 366 182 345 207 c 128,-1,38
 324 232 324 232 276 232 c 2,39,-1
 148 232 l 1,40,-1
 110 0 l 1,41,-1
 32 0 l 1,8,-1
EndSplineSet
EndChar

StartChar: uni01A7
Encoding: 423 423 361
Width: 585
GlyphClass: 2
Flags: W
LayerCount: 2
Fore
SplineSet
21 192 m 0,0,1
 27 230 27 230 45 260 c 128,-1,2
 63 290 63 290 85 311 c 128,-1,3
 107 332 107 332 140.5 350 c 128,-1,4
 174 368 174 368 201.5 378.5 c 128,-1,5
 229 389 229 389 268 401 c 0,6,7
 382 438 382 438 420 459 c 0,8,9
 487 499 487 499 498 560 c 0,10,11
 507 617 507 617 470.5 651.5 c 128,-1,12
 434 686 434 686 359 686 c 0,13,14
 252 686 252 686 170 594 c 1,15,-1
 108 616 l 1,16,17
 148 674 148 674 217.5 713.5 c 128,-1,18
 287 753 287 753 368 753 c 0,19,20
 478 753 478 753 535.5 700.5 c 128,-1,21
 593 648 593 648 578 560 c 0,22,23
 573 532 573 532 560.5 507 c 128,-1,24
 548 482 548 482 535 464 c 128,-1,25
 522 446 522 446 497 429 c 128,-1,26
 472 412 472 412 456 402.5 c 128,-1,27
 440 393 440 393 406.5 380 c 128,-1,28
 373 367 373 367 358 362 c 128,-1,29
 343 357 343 357 306 345.5 c 128,-1,30
 269 334 269 334 247.5 326 c 128,-1,31
 226 318 226 318 196.5 303.5 c 128,-1,32
 167 289 167 289 149.5 274.5 c 128,-1,33
 132 260 132 260 118.5 238 c 128,-1,34
 105 216 105 216 100 189 c 0,35,36
 90 126 90 126 131.5 87.5 c 128,-1,37
 173 49 173 49 246 49 c 0,38,39
 306 49 306 49 366 81 c 128,-1,40
 426 113 426 113 463 161 c 1,41,-1
 525 134 l 1,42,43
 480 67 480 67 404 24.5 c 128,-1,44
 328 -18 328 -18 237 -18 c 0,45,46
 123 -18 123 -18 64 37.5 c 128,-1,47
 5 93 5 93 21 192 c 0,0,1
EndSplineSet
EndChar

StartChar: uni01A8
Encoding: 424 424 362
Width: 463
GlyphClass: 2
Flags: W
LayerCount: 2
Fore
SplineSet
6 131 m 0,0,1
 11 163 11 163 31 189.5 c 128,-1,2
 51 216 51 216 83 234 c 128,-1,3
 115 252 115 252 142 263 c 128,-1,4
 169 274 169 274 207 286 c 0,5,6
 241 296 241 296 260 303.5 c 128,-1,7
 279 311 279 311 305 324.5 c 128,-1,8
 331 338 331 338 344.5 355.5 c 128,-1,9
 358 373 358 373 362 396 c 0,10,11
 369 437 369 437 342.5 459.5 c 128,-1,12
 316 482 316 482 260 482 c 0,13,14
 214 482 214 482 174 456.5 c 128,-1,15
 134 431 134 431 108 397 c 1,16,-1
 66 431 l 1,17,18
 98 478 98 478 154.5 512 c 128,-1,19
 211 546 211 546 271 546 c 0,20,21
 355 546 355 546 400.5 506.5 c 128,-1,22
 446 467 446 467 435 397 c 0,23,24
 429 363 429 363 411 336.5 c 128,-1,25
 393 310 393 310 364.5 292 c 128,-1,26
 336 274 336 274 311.5 263.5 c 128,-1,27
 287 253 287 253 252 241 c 0,28,29
 244 238 244 238 223.5 232 c 128,-1,30
 203 226 203 226 193.5 223 c 128,-1,31
 184 220 184 220 166 213.5 c 128,-1,32
 148 207 148 207 139.5 202 c 128,-1,33
 131 197 131 197 118 189 c 128,-1,34
 105 181 105 181 98.5 173 c 128,-1,35
 92 165 92 165 86 154 c 128,-1,36
 80 143 80 143 78 131 c 0,37,38
 71 90 71 90 100.5 68 c 128,-1,39
 130 46 130 46 187 46 c 0,40,41
 233 46 233 46 276.5 70 c 128,-1,42
 320 94 320 94 352 137 c 1,43,-1
 401 104 l 1,44,45
 364 49 364 49 306 15.5 c 128,-1,46
 248 -18 248 -18 177 -18 c 0,47,48
 84 -18 84 -18 40 25.5 c 128,-1,49
 -4 69 -4 69 6 131 c 0,0,1
EndSplineSet
EndChar

StartChar: uni01A9
Encoding: 425 425 363
Width: 592
GlyphClass: 2
Flags: W
LayerCount: 2
Fore
SplineSet
30 0 m 1,0,-1
 39 53 l 1,1,-1
 359 368 l 1,2,-1
 143 682 l 1,3,-1
 152 735 l 1,4,-1
 602 735 l 1,5,-1
 591 667 l 1,6,-1
 247 667 l 1,7,-1
 446 368 l 1,8,-1
 147 67 l 1,9,-1
 497 67 l 1,10,-1
 486 0 l 1,11,-1
 30 0 l 1,0,-1
EndSplineSet
EndChar

StartChar: uni01AA
Encoding: 426 426 364
Width: 412
GlyphClass: 2
Flags: W
LayerCount: 2
Fore
SplineSet
81 609 m 0,0,1
 75 574 75 574 95.5 554 c 128,-1,2
 116 534 116 534 147 534 c 0,3,4
 205 534 205 534 244 566 c 1,5,6
 252 616 252 616 237.5 653 c 128,-1,7
 223 690 223 690 175 690 c 0,8,9
 142 690 142 690 114.5 666.5 c 128,-1,10
 87 643 87 643 81 609 c 0,0,1
9 606 m 0,11,12
 20 673 20 673 69.5 713 c 128,-1,13
 119 753 119 753 184 753 c 0,14,15
 262 753 262 753 295 701.5 c 128,-1,16
 328 650 328 650 313 559 c 2,17,-1
 209 -70 l 2,18,19
 201 -119 201 -119 215 -144 c 128,-1,20
 229 -169 229 -169 272 -169 c 0,21,22
 288 -169 288 -169 326 -164 c 1,23,-1
 316 -228 l 1,24,25
 252 -235 252 -235 248 -235 c 0,26,27
 182 -235 182 -235 152 -195 c 128,-1,28
 122 -155 122 -155 136 -74 c 2,29,-1
 231 499 l 1,30,31
 197 470 197 470 126 470 c 0,32,33
 65 470 65 470 32 508 c 128,-1,34
 -1 546 -1 546 9 606 c 0,11,12
EndSplineSet
EndChar

StartChar: uni01AB
Encoding: 427 427 365
Width: 337
GlyphClass: 2
Flags: W
LayerCount: 2
Fore
SplineSet
48 464 m 1,0,-1
 59 528 l 1,1,-1
 146 528 l 1,2,-1
 174 698 l 1,3,-1
 245 698 l 1,4,-1
 217 528 l 1,5,-1
 349 528 l 1,6,-1
 338 464 l 1,7,-1
 206 464 l 1,8,-1
 155 155 l 2,9,10
 147 107 147 107 162 86 c 128,-1,11
 177 65 177 65 216 65 c 0,12,13
 270 65 270 65 296 70 c 1,14,-1
 280 -24 l 2,15,16
 245 -235 245 -235 98 -235 c 0,17,18
 75 -235 75 -235 46 -229 c 1,19,-1
 57 -164 l 1,20,21
 86 -169 86 -169 101 -169 c 0,22,23
 187 -169 187 -169 210 -33 c 2,24,-1
 215 -1 l 1,25,26
 186 -1 186 -1 158 4 c 0,27,28
 63 22 63 22 83 148 c 2,29,-1
 135 464 l 1,30,-1
 48 464 l 1,0,-1
EndSplineSet
EndChar

StartChar: uni01AC
Encoding: 428 428 366
Width: 568
GlyphClass: 2
Flags: W
LayerCount: 2
Fore
SplineSet
31 600 m 0,0,1
 53 735 53 735 233 735 c 2,2,-1
 634 735 l 1,3,-1
 623 667 l 1,4,-1
 403 667 l 1,5,-1
 293 0 l 1,6,-1
 216 0 l 1,7,-1
 327 667 l 1,8,-1
 224 667 l 2,9,10
 112 667 112 667 100 594 c 0,11,12
 97 578 97 578 98 558 c 1,13,-1
 29 558 l 1,14,15
 28 580 28 580 31 600 c 0,0,1
EndSplineSet
EndChar

StartChar: uni01AD
Encoding: 429 429 367
Width: 338
GlyphClass: 2
Flags: W
LayerCount: 2
Fore
SplineSet
48 464 m 1,0,-1
 59 528 l 1,1,-1
 146 528 l 1,2,-1
 160 610 l 2,3,4
 173 686 173 686 222 727 c 128,-1,5
 271 768 271 768 343 768 c 0,6,7
 367 768 367 768 409 764 c 1,8,-1
 398 700 l 1,9,10
 374 703 374 703 343 703 c 0,11,12
 298 703 298 703 267.5 677 c 128,-1,13
 237 651 237 651 229 602 c 2,14,-1
 217 528 l 1,15,-1
 350 528 l 1,16,-1
 339 464 l 1,17,-1
 206 464 l 1,18,-1
 155 155 l 2,19,20
 147 107 147 107 162 86 c 128,-1,21
 177 65 177 65 216 65 c 2,22,-1
 274 65 l 1,23,-1
 263 0 l 1,24,-1
 196 0 l 2,25,26
 59 0 59 0 83 148 c 2,27,-1
 135 464 l 1,28,-1
 48 464 l 1,0,-1
EndSplineSet
EndChar

StartChar: uni01AE
Encoding: 430 430 368
Width: 535
GlyphClass: 2
Flags: W
LayerCount: 2
Fore
SplineSet
75 667 m 1,0,-1
 87 735 l 1,1,-1
 601 735 l 1,2,-1
 590 667 l 1,3,-1
 370 667 l 1,4,-1
 250 -58 l 2,5,6
 240 -117 240 -117 255 -143 c 128,-1,7
 270 -169 270 -169 316 -169 c 0,8,9
 328 -169 328 -169 364 -164 c 1,10,-1
 353 -229 l 1,11,12
 306 -235 306 -235 292 -235 c 0,13,14
 144 -235 144 -235 174 -57 c 2,15,-1
 294 667 l 1,16,-1
 75 667 l 1,0,-1
EndSplineSet
EndChar

StartChar: uni01B1
Encoding: 433 433 371
Width: 725
GlyphClass: 2
Flags: W
LayerCount: 2
Fore
SplineSet
50 303 m 0,0,1
 69 415 69 415 137.5 487.5 c 128,-1,2
 206 560 206 560 305 597 c 1,3,-1
 317 667 l 1,4,-1
 118 667 l 1,5,-1
 129 735 l 1,6,-1
 389 735 l 1,7,-1
 358 552 l 1,8,9
 261 525 261 525 202.5 458.5 c 128,-1,10
 144 392 144 392 129 303 c 0,11,12
 111 194 111 194 164.5 122.5 c 128,-1,13
 218 51 218 51 324 51 c 0,14,15
 430 51 430 51 507 122.5 c 128,-1,16
 584 194 584 194 602 303 c 0,17,18
 617 391 617 391 581.5 458 c 128,-1,19
 546 525 546 525 457 552 c 1,20,-1
 488 735 l 1,21,-1
 746 735 l 1,22,-1
 735 667 l 1,23,-1
 536 667 l 1,24,-1
 525 597 l 1,25,26
 612 562 612 562 656.5 489 c 128,-1,27
 701 416 701 416 683 303 c 0,28,29
 660 166 660 166 560.5 74 c 128,-1,30
 461 -18 461 -18 313 -18 c 0,31,32
 166 -18 166 -18 96.5 74 c 128,-1,33
 27 166 27 166 50 303 c 0,0,1
EndSplineSet
EndChar

StartChar: uni01B2
Encoding: 434 434 372
Width: 696
GlyphClass: 2
Flags: W
LayerCount: 2
Fore
SplineSet
86 244 m 2,0,-1
 167 735 l 1,1,-1
 245 735 l 1,2,-1
 164 249 l 2,3,4
 146 140 146 140 180.5 94.5 c 128,-1,5
 215 49 215 49 296 49 c 0,6,7
 397 49 397 49 480.5 151 c 128,-1,8
 564 253 564 253 591 414 c 0,9,10
 613 544 613 544 587.5 615 c 128,-1,11
 562 686 562 686 498 686 c 0,12,13
 469 686 469 686 433 677 c 1,14,-1
 445 746 l 1,15,16
 493 753 493 753 521 753 c 0,17,18
 614 753 614 753 655.5 668.5 c 128,-1,19
 697 584 697 584 669 416 c 0,20,21
 638 231 638 231 533.5 106.5 c 128,-1,22
 429 -18 429 -18 285 -18 c 0,23,24
 163 -18 163 -18 113 45 c 128,-1,25
 63 108 63 108 86 244 c 2,0,-1
EndSplineSet
EndChar

StartChar: uni01B3
Encoding: 435 435 373
Width: 583
GlyphClass: 2
Flags: W
LayerCount: 2
Fore
SplineSet
71 735 m 1,0,-1
 161 735 l 1,1,-1
 256 491 l 2,2,3
 290 410 290 410 303 371 c 1,4,-1
 306 371 l 1,5,6
 321 394 321 394 392 491 c 2,7,-1
 520 669 l 2,8,9
 579 753 579 753 657 753 c 0,10,11
 675 753 675 753 704 750 c 1,12,-1
 693 684 l 1,13,14
 676 687 676 687 654 687 c 0,15,16
 621 687 621 687 579 630 c 2,17,-1
 332 302 l 1,18,-1
 282 0 l 1,19,-1
 204 0 l 1,20,-1
 254 302 l 1,21,-1
 71 735 l 1,0,-1
EndSplineSet
EndChar

StartChar: uni01B4
Encoding: 436 436 374
Width: 471
GlyphClass: 2
Flags: W
LayerCount: 2
Fore
SplineSet
48 528 m 1,0,-1
 131 528 l 1,1,-1
 184 219 l 2,2,3
 191 181 191 181 202 85 c 1,4,-1
 206 85 l 1,5,6
 216 106 216 106 270 219 c 2,7,-1
 390 465 l 2,8,9
 427 542 427 542 515 542 c 0,10,11
 529 542 529 542 563 537 c 1,12,-1
 552 470 l 1,13,14
 532 475 532 475 516 475 c 0,15,16
 473 475 473 475 453 434 c 2,17,-1
 189 -79 l 2,18,19
 147 -161 147 -161 104.5 -196 c 128,-1,20
 62 -231 62 -231 9 -231 c 2,21,-1
 -22 -231 l 1,22,-1
 -11 -168 l 1,23,-1
 7 -168 l 2,24,25
 45 -168 45 -168 75.5 -140.5 c 128,-1,26
 106 -113 106 -113 135 -47 c 2,27,-1
 155 -7 l 1,28,-1
 48 528 l 1,0,-1
EndSplineSet
EndChar

StartChar: uni01B5
Encoding: 437 437 375
Width: 590
GlyphClass: 2
Flags: W
LayerCount: 2
Fore
SplineSet
108 333 m 1,0,-1
 118 394 l 1,1,-1
 284 394 l 1,2,-1
 511 668 l 1,3,-1
 137 668 l 1,4,-1
 148 735 l 1,5,-1
 615 735 l 1,6,-1
 606 676 l 1,7,-1
 372 394 l 1,8,-1
 502 394 l 1,9,-1
 492 333 l 1,10,-1
 320 333 l 1,11,-1
 98 67 l 1,12,-1
 516 67 l 1,13,-1
 505 0 l 1,14,-1
 -6 0 l 1,15,-1
 4 58 l 1,16,-1
 232 333 l 1,17,-1
 108 333 l 1,0,-1
EndSplineSet
EndChar

StartChar: uni01B6
Encoding: 438 438 376
Width: 450
GlyphClass: 2
Flags: W
LayerCount: 2
Fore
SplineSet
-19 0 m 1,0,-1
 -10 51 l 1,1,-1
 155 238 l 1,2,-1
 58 238 l 1,3,-1
 68 300 l 1,4,-1
 208 300 l 1,5,-1
 352 464 l 1,6,-1
 84 464 l 1,7,-1
 94 528 l 1,8,-1
 454 528 l 1,9,-1
 446 480 l 1,10,-1
 289 300 l 1,11,-1
 385 300 l 1,12,-1
 375 238 l 1,13,-1
 235 238 l 1,14,-1
 84 64 l 1,15,-1
 386 64 l 1,16,-1
 375 0 l 1,17,-1
 -19 0 l 1,0,-1
EndSplineSet
EndChar

StartChar: uni01B7
Encoding: 439 439 377
Width: 667
GlyphClass: 2
Flags: W
LayerCount: 2
Fore
SplineSet
-9 -51 m 1,0,-1
 61 -25 l 1,1,2
 75 -82 75 -82 121 -120.5 c 128,-1,3
 167 -159 167 -159 239 -159 c 0,4,5
 345 -159 345 -159 416 -93.5 c 128,-1,6
 487 -28 487 -28 505 80 c 0,7,8
 522 185 522 185 465.5 246 c 128,-1,9
 409 307 409 307 279 307 c 2,10,-1
 205 307 l 1,11,-1
 216 371 l 1,12,-1
 519 667 l 1,13,-1
 135 667 l 1,14,-1
 147 735 l 1,15,-1
 646 735 l 1,16,-1
 639 691 l 1,17,-1
 309 371 l 1,18,-1
 329 371 l 1,19,20
 470 362 470 362 538 286 c 128,-1,21
 606 210 606 210 584 81 c 0,22,23
 561 -58 561 -58 462.5 -141.5 c 128,-1,24
 364 -225 364 -225 229 -225 c 0,25,26
 130 -225 130 -225 69.5 -175 c 128,-1,27
 9 -125 9 -125 -9 -51 c 1,0,-1
EndSplineSet
EndChar

StartChar: uni01B8
Encoding: 440 440 378
Width: 667
GlyphClass: 2
Flags: W
LayerCount: 2
Fore
SplineSet
16 81 m 0,0,1
 37 209 37 209 136.5 290 c 128,-1,2
 236 371 236 371 367 371 c 2,3,-1
 388 371 l 1,4,-1
 164 691 l 1,5,-1
 172 735 l 1,6,-1
 671 735 l 1,7,-1
 659 667 l 1,8,-1
 275 667 l 1,9,-1
 481 371 l 1,10,-1
 470 307 l 1,11,-1
 398 307 l 2,12,13
 268 307 268 307 190 245.5 c 128,-1,14
 112 184 112 184 95 80 c 0,15,16
 77 -28 77 -28 127 -93.5 c 128,-1,17
 177 -159 177 -159 282 -159 c 0,18,19
 354 -159 354 -159 413 -120.5 c 128,-1,20
 472 -82 472 -82 505 -25 c 1,21,-1
 566 -51 l 1,22,23
 522 -125 522 -125 446 -175 c 128,-1,24
 370 -225 370 -225 271 -225 c 0,25,26
 136 -225 136 -225 64.5 -141.5 c 128,-1,27
 -7 -58 -7 -58 16 81 c 0,0,1
EndSplineSet
EndChar

StartChar: uni01B9
Encoding: 441 441 379
Width: 517
GlyphClass: 2
Flags: W
LayerCount: 2
Fore
SplineSet
-3 4 m 0,0,1
 14 105 14 105 88 169.5 c 128,-1,2
 162 234 162 234 260 234 c 2,3,-1
 285 234 l 1,4,-1
 103 480 l 1,5,-1
 111 528 l 1,6,-1
 493 528 l 1,7,-1
 482 464 l 1,8,-1
 203 464 l 1,9,-1
 374 229 l 1,10,-1
 365 177 l 1,11,-1
 286 177 l 2,12,13
 196 177 196 177 140 130 c 128,-1,14
 84 83 84 83 71 4 c 0,15,16
 58 -72 58 -72 90.5 -121.5 c 128,-1,17
 123 -171 123 -171 195 -171 c 0,18,19
 295 -171 295 -171 359 -65 c 1,20,-1
 418 -84 l 1,21,22
 382 -152 382 -152 321 -193.5 c 128,-1,23
 260 -235 260 -235 183 -235 c 0,24,25
 82 -235 82 -235 31 -168 c 128,-1,26
 -20 -101 -20 -101 -3 4 c 0,0,1
EndSplineSet
EndChar

StartChar: uni01BA
Encoding: 442 442 380
Width: 424
GlyphClass: 2
Flags: W
LayerCount: 2
Fore
SplineSet
-17 -70 m 0,0,1
 -11 -34 -11 -34 20 -4 c 128,-1,2
 51 26 51 26 91.5 47 c 128,-1,3
 132 68 132 68 172 88 c 128,-1,4
 212 108 212 108 242 133 c 128,-1,5
 272 158 272 158 276 185 c 0,6,7
 281 215 281 215 249 233.5 c 128,-1,8
 217 252 217 252 149 252 c 2,9,-1
 116 252 l 1,10,-1
 123 295 l 1,11,-1
 317 464 l 1,12,-1
 74 464 l 1,13,-1
 85 528 l 1,14,-1
 419 528 l 1,15,-1
 411 478 l 1,16,-1
 202 297 l 1,17,-1
 223 296 l 2,18,19
 291 294 291 294 324.5 266 c 128,-1,20
 358 238 358 238 349 188 c 0,21,22
 343 149 343 149 312 116.5 c 128,-1,23
 281 84 281 84 240.5 62.5 c 128,-1,24
 200 41 200 41 160 21.5 c 128,-1,25
 120 2 120 2 90.5 -19.5 c 128,-1,26
 61 -41 61 -41 57 -65 c 0,27,28
 47 -126 47 -126 131 -126 c 0,29,30
 168 -126 168 -126 226 -116 c 1,31,-1
 215 -180 l 1,32,33
 156 -189 156 -189 111 -189 c 0,34,35
 44 -189 44 -189 8.5 -158.5 c 128,-1,36
 -27 -128 -27 -128 -17 -70 c 0,0,1
EndSplineSet
EndChar

StartChar: uni01BB
Encoding: 443 443 381
Width: 535
GlyphClass: 2
Flags: W
LayerCount: 2
Fore
SplineSet
112 327 m 1,0,-1
 123 389 l 1,1,-1
 338 389 l 1,2,3
 425 468 425 468 439 551 c 0,4,5
 450 618 450 618 419 653.5 c 128,-1,6
 388 689 388 689 329 689 c 0,7,8
 218 689 218 689 156 551 c 1,9,-1
 94 569 l 1,10,11
 127 652 127 652 190.5 702.5 c 128,-1,12
 254 753 254 753 343 753 c 0,13,14
 435 753 435 753 484 698.5 c 128,-1,15
 533 644 533 644 518 549 c 0,16,17
 504 467 504 467 428 389 c 1,18,-1
 521 389 l 1,19,-1
 511 327 l 1,20,-1
 366 327 l 1,21,22
 352 315 352 315 316 284.5 c 128,-1,23
 280 254 280 254 267.5 243 c 128,-1,24
 255 232 255 232 228 208 c 128,-1,25
 201 184 201 184 188.5 171 c 128,-1,26
 176 158 176 158 158 138 c 128,-1,27
 140 118 140 118 128.5 100.5 c 128,-1,28
 117 83 117 83 107 65 c 1,29,-1
 435 65 l 1,30,-1
 425 0 l 1,31,-1
 4 0 l 1,32,33
 16 73 16 73 81.5 148 c 128,-1,34
 147 223 147 223 267 327 c 1,35,-1
 112 327 l 1,0,-1
EndSplineSet
EndChar

StartChar: uni01BC
Encoding: 444 444 382
Width: 540
GlyphClass: 2
Flags: W
LayerCount: 2
Fore
SplineSet
16 118 m 1,0,-1
 83 142 l 1,1,2
 110 47 110 47 217 47 c 0,3,4
 289 47 289 47 337 92.5 c 128,-1,5
 385 138 385 138 398 214 c 0,6,7
 410 284 410 284 368.5 334 c 128,-1,8
 327 384 327 384 227 384 c 0,9,10
 173 384 173 384 118 373 c 1,11,-1
 201 668 l 1,12,-1
 151 668 l 1,13,-1
 162 735 l 1,14,-1
 526 735 l 1,15,-1
 515 667 l 1,16,-1
 273 667 l 1,17,-1
 212 446 l 1,18,19
 229 448 229 448 266 448 c 0,20,21
 381 448 381 448 437.5 382 c 128,-1,22
 494 316 494 316 477 215 c 0,23,24
 460 113 460 113 389 47.5 c 128,-1,25
 318 -18 318 -18 209 -18 c 0,26,27
 127 -18 127 -18 79.5 20.5 c 128,-1,28
 32 59 32 59 16 118 c 1,0,-1
EndSplineSet
EndChar

StartChar: uni01BD
Encoding: 445 445 383
Width: 434
GlyphClass: 2
Flags: W
LayerCount: 2
Fore
SplineSet
9 87 m 1,0,-1
 71 116 l 1,1,2
 82 84 82 84 107.5 65 c 128,-1,3
 133 46 133 46 164 46 c 0,4,5
 216 46 216 46 249 75.5 c 128,-1,6
 282 105 282 105 290 152 c 0,7,8
 298 202 298 202 265.5 236.5 c 128,-1,9
 233 271 233 271 171 271 c 0,10,11
 133 271 133 271 88 264 c 1,12,-1
 151 464 l 1,13,-1
 109 464 l 1,14,-1
 119 528 l 1,15,-1
 396 528 l 1,16,-1
 386 464 l 1,17,-1
 212 464 l 1,18,-1
 172 335 l 1,19,-1
 197 335 l 2,20,21
 285 335 285 335 330 284 c 128,-1,22
 375 233 375 233 362 155 c 0,23,24
 350 80 350 80 296 31 c 128,-1,25
 242 -18 242 -18 153 -18 c 0,26,27
 46 -18 46 -18 9 87 c 1,0,-1
EndSplineSet
EndChar

StartChar: uni01BE
Encoding: 446 446 384
Width: 406
GlyphClass: 2
Flags: W
LayerCount: 2
Fore
SplineSet
61 464 m 1,0,-1
 71 528 l 1,1,-1
 145 528 l 1,2,-1
 172 692 l 1,3,-1
 242 692 l 1,4,-1
 215 528 l 1,5,-1
 339 528 l 1,6,-1
 329 464 l 1,7,-1
 204 464 l 1,8,-1
 193 397 l 2,9,10
 187 362 187 362 202 334 c 128,-1,11
 217 306 217 306 241 286.5 c 128,-1,12
 265 267 265 267 288.5 247 c 128,-1,13
 312 227 312 227 326 197 c 128,-1,14
 340 167 340 167 333 128 c 0,15,16
 322 64 322 64 275.5 23 c 128,-1,17
 229 -18 229 -18 147 -18 c 0,18,19
 39 -18 39 -18 2 82 c 1,20,-1
 59 114 l 1,21,22
 94 46 94 46 156 46 c 0,23,24
 201 46 201 46 228 67 c 128,-1,25
 255 88 255 88 261 126 c 0,26,27
 265 151 265 151 250 173 c 128,-1,28
 235 195 235 195 211 213.5 c 128,-1,29
 187 232 187 232 163.5 253.5 c 128,-1,30
 140 275 140 275 127 309.5 c 128,-1,31
 114 344 114 344 121 389 c 2,32,-1
 134 464 l 1,33,-1
 61 464 l 1,0,-1
EndSplineSet
EndChar

StartChar: uni01BF
Encoding: 447 447 385
Width: 541
GlyphClass: 2
Flags: W
LayerCount: 2
Fore
SplineSet
-9 -231 m 1,0,-1
 117 528 l 1,1,-1
 188 528 l 1,2,-1
 181 484 l 1,3,4
 263 546 263 546 344 546 c 0,5,6
 438 546 438 546 482 487.5 c 128,-1,7
 526 429 526 429 510 331 c 0,8,9
 464 52 464 52 101 1 c 1,10,-1
 63 -231 l 1,11,-1
 -9 -231 l 1,0,-1
111 63 m 1,12,13
 246 82 246 82 332.5 147 c 128,-1,14
 419 212 419 212 437 322 c 0,15,16
 450 401 450 401 418 441.5 c 128,-1,17
 386 482 386 482 324 482 c 0,18,19
 282 482 282 482 239.5 460 c 128,-1,20
 197 438 197 438 169 409 c 1,21,-1
 111 63 l 1,12,13
EndSplineSet
EndChar

StartChar: uni01C0
Encoding: 448 448 386
Width: 216
GlyphClass: 2
Flags: W
LayerCount: 2
Fore
SplineSet
-9 -214 m 1,0,-1
 162 818 l 1,1,-1
 231 818 l 1,2,-1
 60 -214 l 1,3,-1
 -9 -214 l 1,0,-1
EndSplineSet
EndChar

StartChar: uni01C1
Encoding: 449 449 387
Width: 378
GlyphClass: 2
Flags: W
LayerCount: 2
Fore
SplineSet
-9 -214 m 1,0,-1
 162 818 l 1,1,-1
 231 818 l 1,2,-1
 60 -214 l 1,3,-1
 -9 -214 l 1,0,-1
155 -214 m 1,4,-1
 326 818 l 1,5,-1
 394 818 l 1,6,-1
 224 -214 l 1,7,-1
 155 -214 l 1,4,-1
EndSplineSet
EndChar

StartChar: uni01C2
Encoding: 450 450 388
Width: 304
GlyphClass: 2
Flags: W
LayerCount: 2
Fore
SplineSet
41 422 m 1,0,-1
 50 476 l 1,1,-1
 152 476 l 1,2,-1
 209 818 l 1,3,-1
 276 818 l 1,4,-1
 220 476 l 1,5,-1
 319 476 l 1,6,-1
 310 422 l 1,7,-1
 211 422 l 1,8,-1
 184 259 l 1,9,-1
 283 259 l 1,10,-1
 274 205 l 1,11,-1
 175 205 l 1,12,-1
 105 -214 l 1,13,-1
 38 -214 l 1,14,-1
 107 205 l 1,15,-1
 5 205 l 1,16,-1
 14 259 l 1,17,-1
 116 259 l 1,18,-1
 143 422 l 1,19,-1
 41 422 l 1,0,-1
EndSplineSet
EndChar

StartChar: uni01DD
Encoding: 477 477 415
Width: 521
GlyphClass: 2
Flags: W
LayerCount: 2
Fore
SplineSet
32 249 m 0,0,1
 36 276 36 276 39 289 c 1,2,-1
 412 289 l 1,3,4
 425 367 425 367 392 424.5 c 128,-1,5
 359 482 359 482 285 482 c 0,6,7
 235 482 235 482 193.5 457 c 128,-1,8
 152 432 152 432 128 394 c 1,9,-1
 71 413 l 1,10,11
 104 470 104 470 160.5 508 c 128,-1,12
 217 546 217 546 297 546 c 0,13,14
 404 546 404 546 451.5 466.5 c 128,-1,15
 499 387 499 387 478 260 c 0,16,17
 457 135 457 135 381.5 58.5 c 128,-1,18
 306 -18 306 -18 207 -18 c 0,19,20
 107 -18 107 -18 59.5 56.5 c 128,-1,21
 12 131 12 131 32 249 c 0,0,1
101 231 m 1,22,23
 88 153 88 153 118.5 99.5 c 128,-1,24
 149 46 149 46 218 46 c 0,25,26
 284 46 284 46 334 99.5 c 128,-1,27
 384 153 384 153 402 231 c 1,28,-1
 101 231 l 1,22,23
EndSplineSet
EndChar

StartChar: uni01E4
Encoding: 484 484 422
Width: 702
GlyphClass: 2
Flags: W
LayerCount: 2
Fore
SplineSet
60 367 m 0,0,1
 88 536 88 536 189 644.5 c 128,-1,2
 290 753 290 753 439 753 c 0,3,4
 529 753 529 753 581.5 705 c 128,-1,5
 634 657 634 657 653 597 c 1,6,-1
 583 573 l 1,7,8
 571 597 571 597 562.5 611 c 128,-1,9
 554 625 554 625 535.5 645 c 128,-1,10
 517 665 517 665 490 675.5 c 128,-1,11
 463 686 463 686 428 686 c 0,12,13
 317 686 317 686 239.5 598.5 c 128,-1,14
 162 511 162 511 139 367 c 0,15,16
 115 221 115 221 163.5 135.5 c 128,-1,17
 212 50 212 50 317 50 c 0,18,19
 385 50 385 50 438.5 85.5 c 0,20,21
 491 121 491 121 521 182 c 1,22,-1
 324 182 l 1,23,-1
 332 236 l 1,24,-1
 542 236 l 1,25,26
 549 259 549 259 552 278 c 2,27,-1
 561 330 l 1,28,-1
 356 330 l 1,29,-1
 367 396 l 1,30,-1
 647 396 l 1,31,-1
 621 236 l 1,32,-1
 687 236 l 1,33,-1
 678 182 l 1,34,-1
 612 182 l 1,35,-1
 582 0 l 1,36,-1
 525 0 l 1,37,-1
 537 108 l 1,38,39
 502 52 502 52 443.5 17 c 128,-1,40
 385 -18 385 -18 306 -18 c 0,41,42
 167 -18 167 -18 99 85.5 c 128,-1,43
 31 189 31 189 60 367 c 0,0,1
EndSplineSet
EndChar

StartChar: uni01E5
Encoding: 485 485 423
Width: 544
GlyphClass: 2
Flags: W
LayerCount: 2
Fore
SplineSet
38 277 m 0,0,1
 57 394 57 394 127 470 c 128,-1,2
 197 546 197 546 289 546 c 0,3,4
 347 546 347 546 378.5 514 c 128,-1,5
 410 482 410 482 419 442 c 1,6,-1
 433 528 l 1,7,-1
 504 528 l 1,8,-1
 428 72 l 2,9,10
 417 6 417 6 404 -35 c 1,11,-1
 475 -35 l 1,12,-1
 467 -85 l 1,13,-1
 385 -85 l 1,14,15
 351 -159 351 -159 298.5 -197 c 128,-1,16
 246 -235 246 -235 165 -235 c 0,17,18
 46 -235 46 -235 -5 -138 c 1,19,-1
 50 -104 l 1,20,21
 94 -173 94 -173 177 -173 c 0,22,23
 262 -173 262 -173 311 -85 c 1,24,-1
 131 -85 l 1,25,-1
 139 -35 l 1,26,-1
 333 -35 l 1,27,28
 345 -1 345 -1 355 56 c 2,29,-1
 367 126 l 1,30,31
 341 81 341 81 298 53 c 128,-1,32
 255 25 255 25 202 25 c 0,33,34
 111 25 111 25 65 93 c 128,-1,35
 19 161 19 161 38 277 c 0,0,1
110 277 m 0,36,37
 95 187 95 187 127 137 c 128,-1,38
 159 87 159 87 218 87 c 0,39,40
 281 87 281 87 329 140.5 c 128,-1,41
 377 194 377 194 392 287 c 0,42,43
 407 375 407 375 377 428.5 c 128,-1,44
 347 482 347 482 287 482 c 0,45,46
 222 482 222 482 173.5 423.5 c 128,-1,47
 125 365 125 365 110 277 c 0,36,37
EndSplineSet
EndChar

StartChar: uni01EF
Encoding: 495 495 433
Width: 517
GlyphClass: 2
Flags: W
LayerCount: 2
Fore
SplineSet
152 788 m 1,0,-1
 225 788 l 1,1,-1
 312 672 l 1,2,-1
 439 788 l 1,3,-1
 512 788 l 1,4,-1
 337 629 l 1,5,-1
 273 629 l 1,6,-1
 152 788 l 1,0,-1
-24 -84 m 1,7,-1
 42 -65 l 1,8,9
 72 -171 72 -171 172 -171 c 0,10,11
 243 -171 243 -171 292 -121 c 128,-1,12
 341 -71 341 -71 355 9 c 0,13,14
 367 84 367 84 326 130.5 c 128,-1,15
 285 177 285 177 195 177 c 2,16,-1
 116 177 l 1,17,-1
 124 229 l 1,18,-1
 373 464 l 1,19,-1
 95 464 l 1,20,-1
 105 528 l 1,21,-1
 487 528 l 1,22,-1
 479 480 l 1,23,-1
 214 234 l 1,24,-1
 260 232 l 1,25,26
 347 220 347 220 394.5 160 c 128,-1,27
 442 100 442 100 427 9 c 0,28,29
 409 -100 409 -100 336.5 -167.5 c 128,-1,30
 264 -235 264 -235 163 -235 c 0,31,32
 85 -235 85 -235 37.5 -193.5 c 128,-1,33
 -10 -152 -10 -152 -24 -84 c 1,7,-1
EndSplineSet
EndChar

StartChar: uni01F6
Encoding: 502 502 440
Width: 986
GlyphClass: 2
Flags: W
LayerCount: 2
Fore
SplineSet
46 0 m 1,0,-1
 167 735 l 1,1,-1
 245 735 l 1,2,-1
 191 411 l 1,3,-1
 529 411 l 1,4,-1
 583 735 l 1,5,-1
 660 735 l 1,6,-1
 570 191 l 2,7,8
 558 117 558 117 589.5 81.5 c 128,-1,9
 621 46 621 46 679 46 c 0,10,11
 733 46 733 46 775 83.5 c 128,-1,12
 817 121 817 121 827 184 c 2,13,-1
 884 528 l 1,14,-1
 960 528 l 1,15,-1
 902 176 l 2,16,17
 886 82 886 82 819.5 32 c 128,-1,18
 753 -18 753 -18 668 -18 c 0,19,20
 579 -18 579 -18 526.5 29 c 128,-1,21
 474 76 474 76 490 176 c 2,22,-1
 518 345 l 1,23,-1
 180 345 l 1,24,-1
 123 0 l 1,25,-1
 46 0 l 1,0,-1
EndSplineSet
EndChar

StartChar: uni01F7
Encoding: 503 503 441
Width: 622
GlyphClass: 2
Flags: W
LayerCount: 2
Fore
SplineSet
9 -221 m 1,0,-1
 167 735 l 1,1,-1
 245 735 l 1,2,-1
 232 655 l 1,3,4
 344 753 344 753 449 753 c 0,5,6
 551 753 551 753 593 684 c 128,-1,7
 635 615 635 615 615 495 c 0,8,9
 602 419 602 419 562 349 c 128,-1,10
 522 279 522 279 472 228 c 128,-1,11
 422 177 422 177 356 130.5 c 128,-1,12
 290 84 290 84 236 55.5 c 128,-1,13
 182 27 182 27 124 2 c 1,14,-1
 87 -221 l 1,15,-1
 9 -221 l 1,0,-1
136 76 m 1,16,17
 182 97 182 97 224.5 121.5 c 128,-1,18
 267 146 267 146 321 186 c 128,-1,19
 375 226 375 226 417 269 c 128,-1,20
 459 312 459 312 492.5 370.5 c 128,-1,21
 526 429 526 429 536 491 c 0,22,23
 551 580 551 580 522.5 633.5 c 128,-1,24
 494 687 494 687 421 687 c 0,25,26
 372 687 372 687 314 652.5 c 128,-1,27
 256 618 256 618 218 574 c 1,28,-1
 136 76 l 1,16,17
EndSplineSet
EndChar

StartChar: Aringacute
Encoding: 506 506 444
Width: 625
GlyphClass: 2
Flags: W
LayerCount: 2
Fore
SplineSet
-51 0 m 1,0,-1
 341 735 l 1,1,-1
 435 735 l 1,2,-1
 582 0 l 1,3,-1
 497 0 l 1,4,-1
 460 212 l 1,5,-1
 142 212 l 1,6,-1
 34 0 l 1,7,-1
 -51 0 l 1,0,-1
278 876 m 0,8,9
 286 927 286 927 329 964 c 0,10,11
 360 990 360 990 399 998 c 1,12,-1
 491 1116 l 1,13,-1
 588 1116 l 1,14,-1
 467 996 l 1,15,16
 498 988 498 988 518 964 c 0,17,18
 549 927 549 927 540 876 c 0,19,20
 531 824 531 824 488 787.5 c 128,-1,21
 445 751 445 751 388 751 c 0,22,23
 333 751 333 751 301 787 c 128,-1,24
 269 823 269 823 278 876 c 0,8,9
176 275 m 1,25,-1
 447 275 l 1,26,-1
 403 522 l 2,27,28
 399 545 399 545 390.5 594.5 c 128,-1,29
 382 644 382 644 379 663 c 1,30,-1
 373 663 l 1,31,32
 313 543 313 543 302 522 c 2,33,-1
 176 275 l 1,25,-1
331 876 m 256,34,35
 326 844 326 844 344.5 821.5 c 128,-1,36
 363 799 363 799 396 799 c 256,37,38
 429 799 429 799 454.5 821 c 128,-1,39
 480 843 480 843 485 876 c 256,40,41
 490 909 490 909 473 931 c 128,-1,42
 456 953 456 953 422 953 c 256,43,44
 388 953 388 953 362 930.5 c 128,-1,45
 336 908 336 908 331 876 c 256,34,35
EndSplineSet
EndChar

StartChar: aringacute
Encoding: 507 507 445
Width: 517
GlyphClass: 2
Flags: W
LayerCount: 2
Fore
SplineSet
12 130 m 0,0,1
 36 277 36 277 257 312 c 0,2,3
 356 329 356 329 390 340 c 1,4,-1
 395 370 l 2,5,6
 403 419 403 419 375 451.5 c 128,-1,7
 347 484 347 484 286 484 c 0,8,9
 242 484 242 484 196.5 462 c 128,-1,10
 151 440 151 440 116 402 c 1,11,-1
 77 444 l 1,12,13
 121 489 121 489 178 517.5 c 128,-1,14
 235 546 235 546 294 546 c 0,15,16
 494 546 494 546 460 339 c 2,17,-1
 404 0 l 1,18,-1
 335 0 l 1,19,-1
 349 86 l 1,20,21
 328 44 328 44 276 13 c 128,-1,22
 224 -18 224 -18 162 -18 c 0,23,24
 79 -18 79 -18 40 23.5 c 128,-1,25
 1 65 1 65 12 130 c 0,0,1
197 726 m 0,26,27
 205 777 205 777 249 814 c 0,28,29
 279 840 279 840 316 848 c 1,30,-1
 405 966 l 1,31,-1
 499 966 l 1,32,-1
 381 846 l 1,33,34
 411 838 411 838 430 814 c 0,35,36
 460 777 460 777 452 726 c 0,37,38
 443 674 443 674 401 637.5 c 128,-1,39
 359 601 359 601 304 601 c 0,40,41
 251 601 251 601 219.5 637 c 128,-1,42
 188 673 188 673 197 726 c 0,26,27
85 135 m 0,43,44
 79 98 79 98 104.5 72 c 128,-1,45
 130 46 130 46 182 46 c 0,46,47
 247 46 247 46 301.5 91 c 128,-1,48
 356 136 356 136 367 206 c 2,49,-1
 380 280 l 1,50,51
 337 269 337 269 246 254 c 0,52,53
 171 240 171 240 132 212 c 128,-1,54
 93 184 93 184 85 135 c 0,43,44
249 726 m 256,55,56
 244 694 244 694 262 671.5 c 128,-1,57
 280 649 280 649 312 649 c 256,58,59
 344 649 344 649 368.5 671 c 128,-1,60
 393 693 393 693 399 726 c 256,61,62
 404 759 404 759 387.5 781 c 128,-1,63
 371 803 371 803 338 803 c 256,64,65
 305 803 305 803 279.5 780.5 c 128,-1,66
 254 758 254 758 249 726 c 256,55,56
EndSplineSet
EndChar

StartChar: uni021C
Encoding: 540 540 478
Width: 555
GlyphClass: 2
Flags: W
LayerCount: 2
Fore
SplineSet
-27 -141 m 1,0,1
 47 -156 47 -156 107 -156 c 0,2,3
 219 -156 219 -156 299 -95.5 c 128,-1,4
 379 -35 379 -35 396 69 c 0,5,6
 406 127 406 127 395.5 169.5 c 128,-1,7
 385 212 385 212 359.5 234 c 128,-1,8
 334 256 334 256 305 266 c 128,-1,9
 276 276 276 276 241 276 c 0,10,11
 199 276 199 276 142 254 c 1,12,-1
 153 323 l 1,13,-1
 249 346 l 2,14,15
 336 368 336 368 392.5 419 c 128,-1,16
 449 470 449 470 460 539 c 0,17,18
 471 607 471 607 436 646 c 128,-1,19
 401 685 401 685 326 685 c 0,20,21
 226 685 226 685 158 585 c 1,22,-1
 100 613 l 1,23,24
 139 675 139 675 199.5 714 c 128,-1,25
 260 753 260 753 336 753 c 0,26,27
 455 753 455 753 506 697 c 128,-1,28
 557 641 557 641 541 547 c 0,29,30
 527 461 527 461 467 401 c 128,-1,31
 407 341 407 341 340 318 c 1,32,-1
 340 317 l 1,33,34
 408 300 408 300 451 239 c 128,-1,35
 494 178 494 178 476 69 c 0,36,37
 454 -64 454 -64 350 -144.5 c 128,-1,38
 246 -225 246 -225 97 -225 c 0,39,40
 30 -225 30 -225 -39 -214 c 1,41,-1
 -27 -141 l 1,0,1
EndSplineSet
EndChar

StartChar: uni021D
Encoding: 541 541 479
Width: 422
GlyphClass: 2
Flags: W
LayerCount: 2
Fore
SplineSet
-33 -160 m 1,0,1
 15 -171 15 -171 63 -171 c 0,2,3
 139 -171 139 -171 192.5 -125.5 c 128,-1,4
 246 -80 246 -80 259 2 c 0,5,6
 271 75 271 75 240.5 116 c 128,-1,7
 210 157 210 157 159 157 c 0,8,9
 131 157 131 157 92 145 c 1,10,-1
 102 207 l 1,11,-1
 167 223 l 2,12,13
 226 237 226 237 265 278.5 c 128,-1,14
 304 320 304 320 313 371 c 0,15,16
 321 419 321 419 301.5 450.5 c 128,-1,17
 282 482 282 482 230 482 c 0,18,19
 164 482 164 482 120 410 c 1,20,-1
 68 438 l 1,21,22
 94 486 94 486 141.5 516 c 128,-1,23
 189 546 189 546 245 546 c 0,24,25
 327 546 327 546 361.5 496.5 c 128,-1,26
 396 447 396 447 385 381 c 0,27,28
 374 313 374 313 334 266 c 128,-1,29
 294 219 294 219 241 196 c 1,30,31
 287 182 287 182 315.5 132.5 c 128,-1,32
 344 83 344 83 331 4 c 0,33,34
 312 -109 312 -109 238 -172 c 128,-1,35
 164 -235 164 -235 54 -235 c 0,36,37
 8 -235 8 -235 -44 -227 c 1,38,-1
 -33 -160 l 1,0,1
EndSplineSet
EndChar

StartChar: uni0220
Encoding: 544 544 482
Width: 688
GlyphClass: 2
Flags: W
LayerCount: 2
Fore
SplineSet
46 0 m 1,0,-1
 167 735 l 1,1,-1
 242 735 l 1,2,-1
 227 643 l 1,3,-1
 228 643 l 1,4,5
 248 666 248 666 274.5 687.5 c 128,-1,6
 301 709 301 709 353 731 c 128,-1,7
 405 753 405 753 460 753 c 0,8,9
 676 753 676 753 633 499 c 2,10,-1
 512 -231 l 1,11,-1
 435 -231 l 1,12,-1
 554 490 l 2,13,14
 571 590 571 590 542 638 c 128,-1,15
 513 686 513 686 432 686 c 0,16,17
 361 686 361 686 288.5 624.5 c 128,-1,18
 216 563 216 563 205 494 c 2,19,-1
 123 0 l 1,20,-1
 46 0 l 1,0,-1
EndSplineSet
EndChar

StartChar: uni0221
Encoding: 545 545 483
Width: 715
GlyphClass: 2
Flags: W
LayerCount: 2
Fore
SplineSet
421 -109 m 1,0,1
 425 -136 425 -136 447 -154 c 128,-1,2
 469 -172 469 -172 502 -172 c 0,3,4
 531 -172 531 -172 549.5 -157 c 128,-1,5
 568 -142 568 -142 571 -118 c 0,6,7
 575 -91 575 -91 561 -74 c 128,-1,8
 547 -57 547 -57 520 -57 c 0,9,10
 468 -57 468 -57 421 -109 c 1,0,1
36 264 m 0,11,12
 58 394 58 394 130 470 c 128,-1,13
 202 546 202 546 293 546 c 0,14,15
 348 546 348 546 382.5 513 c 128,-1,16
 417 480 417 480 426 436 c 1,17,-1
 480 762 l 1,18,-1
 551 762 l 1,19,-1
 429 26 l 2,20,21
 420 -27 420 -27 421 -38 c 1,22,23
 439 -21 439 -21 470 -7 c 128,-1,24
 501 7 501 7 532 7 c 0,25,26
 595 7 595 7 623.5 -28.5 c 128,-1,27
 652 -64 652 -64 643 -115 c 0,28,29
 634 -168 634 -168 592.5 -201.5 c 128,-1,30
 551 -235 551 -235 492 -235 c 0,31,32
 449 -235 449 -235 420.5 -214 c 128,-1,33
 392 -193 392 -193 379 -166 c 1,34,35
 357 -195 357 -195 339 -230 c 1,36,-1
 283 -211 l 1,37,38
 316 -145 316 -145 350 -106 c 1,39,40
 343 -78 343 -78 357 8 c 2,41,-1
 372 95 l 1,42,43
 346 48 346 48 300.5 15 c 128,-1,44
 255 -18 255 -18 199 -18 c 0,45,46
 161 -18 161 -18 128 -2 c 128,-1,47
 95 14 95 14 69 46 c 128,-1,48
 43 78 43 78 33.5 134 c 128,-1,49
 24 190 24 190 36 264 c 0,11,12
108 264 m 0,50,51
 92 165 92 165 123 105.5 c 128,-1,52
 154 46 154 46 219 46 c 0,53,54
 280 46 280 46 331.5 105 c 128,-1,55
 383 164 383 164 400 264 c 0,56,57
 416 363 416 363 383.5 422.5 c 128,-1,58
 351 482 351 482 291 482 c 0,59,60
 225 482 225 482 174.5 422 c 128,-1,61
 124 362 124 362 108 264 c 0,50,51
EndSplineSet
EndChar

StartChar: uni0222
Encoding: 546 546 484
Width: 661
GlyphClass: 2
Flags: W
LayerCount: 2
Fore
SplineSet
32 236 m 0,0,1
 45 314 45 314 100 376 c 128,-1,2
 155 438 155 438 232 467 c 1,3,4
 177 489 177 489 148 537 c 128,-1,5
 119 585 119 585 132 659 c 0,6,7
 140 706 140 706 153 735 c 1,8,-1
 227 735 l 1,9,10
 214 686 214 686 211 664 c 0,11,12
 200 596 200 596 241.5 546.5 c 128,-1,13
 283 497 283 497 366 497 c 0,14,15
 444 497 444 497 504.5 545 c 128,-1,16
 565 593 565 593 576 664 c 0,17,18
 580 691 580 691 582 735 c 1,19,-1
 658 735 l 1,20,21
 662 707 662 707 654 659 c 0,22,23
 641 583 641 583 594.5 535.5 c 128,-1,24
 548 488 548 488 487 467 c 1,25,26
 556 441 556 441 591 377.5 c 128,-1,27
 626 314 626 314 613 236 c 0,28,29
 596 134 596 134 509 58 c 128,-1,30
 422 -18 422 -18 281 -18 c 256,31,32
 140 -18 140 -18 77.5 57.5 c 128,-1,33
 15 133 15 133 32 236 c 0,0,1
112 236 m 0,34,35
 98 153 98 153 148.5 101 c 128,-1,36
 199 49 199 49 292 49 c 0,37,38
 382 49 382 49 450.5 101 c 128,-1,39
 519 153 519 153 533 236 c 0,40,41
 546 317 546 317 495.5 373 c 128,-1,42
 445 429 445 429 355 429 c 0,43,44
 267 429 267 429 196.5 375 c 128,-1,45
 126 321 126 321 112 236 c 0,34,35
EndSplineSet
EndChar

StartChar: uni0223
Encoding: 547 547 485
Width: 522
GlyphClass: 2
Flags: W
LayerCount: 2
Fore
SplineSet
32 241 m 0,0,1
 47 332 47 332 98 396.5 c 128,-1,2
 149 461 149 461 209 482 c 1,3,4
 160 500 160 500 136.5 548 c 128,-1,5
 113 596 113 596 126 673 c 0,6,7
 134 720 134 720 148 753 c 1,8,-1
 216 753 l 1,9,10
 202 704 202 704 198 678 c 0,11,12
 186 607 186 607 211 558.5 c 128,-1,13
 236 510 236 510 299 510 c 0,14,15
 358 510 358 510 400.5 557.5 c 128,-1,16
 443 605 443 605 455 678 c 0,17,18
 459 703 459 703 461 753 c 1,19,-1
 530 753 l 1,20,21
 533 723 533 723 525 673 c 0,22,23
 513 599 513 599 473 549 c 128,-1,24
 433 499 433 499 379 482 c 1,25,26
 434 463 434 463 463 397.5 c 128,-1,27
 492 332 492 332 477 241 c 0,28,29
 459 134 459 134 389.5 58 c 128,-1,30
 320 -18 320 -18 211 -18 c 0,31,32
 103 -18 103 -18 58.5 57 c 128,-1,33
 14 132 14 132 32 241 c 0,0,1
104 241 m 0,34,35
 90 156 90 156 122 101.5 c 128,-1,36
 154 47 154 47 222 47 c 0,37,38
 287 47 287 47 339 100 c 128,-1,39
 391 153 391 153 405 241 c 0,40,41
 419 328 419 328 385.5 387 c 128,-1,42
 352 446 352 446 288 446 c 0,43,44
 226 446 226 446 172.5 388.5 c 128,-1,45
 119 331 119 331 104 241 c 0,34,35
EndSplineSet
EndChar

StartChar: uni0224
Encoding: 548 548 486
Width: 594
GlyphClass: 2
Flags: W
LayerCount: 2
Fore
SplineSet
-6 0 m 1,0,-1
 4 58 l 1,1,-1
 511 668 l 1,2,-1
 137 668 l 1,3,-1
 148 735 l 1,4,-1
 615 735 l 1,5,-1
 606 676 l 1,6,-1
 98 67 l 1,7,-1
 404 67 l 2,8,9
 486 67 486 67 517.5 25.5 c 128,-1,10
 549 -16 549 -16 534 -105 c 0,11,12
 524 -167 524 -167 489 -231 c 1,13,-1
 418 -231 l 1,14,15
 455 -166 455 -166 464 -114 c 0,16,17
 473 -60 473 -60 453.5 -30 c 128,-1,18
 434 0 434 0 371 0 c 2,19,-1
 -6 0 l 1,0,-1
EndSplineSet
EndChar

StartChar: uni0225
Encoding: 549 549 487
Width: 452
GlyphClass: 2
Flags: W
LayerCount: 2
Fore
SplineSet
-19 0 m 1,0,-1
 -10 51 l 1,1,-1
 352 468 l 1,2,-1
 84 468 l 1,3,-1
 95 532 l 1,4,-1
 455 532 l 1,5,-1
 447 484 l 1,6,-1
 84 64 l 1,7,-1
 315 64 l 2,8,9
 385 64 385 64 413 23.5 c 128,-1,10
 441 -17 441 -17 427 -102 c 0,11,12
 414 -181 414 -181 387 -231 c 1,13,-1
 324 -231 l 1,14,15
 351 -179 351 -179 362 -113 c 0,16,17
 372 -55 372 -55 354.5 -27.5 c 128,-1,18
 337 0 337 0 287 0 c 2,19,-1
 -19 0 l 1,0,-1
EndSplineSet
EndChar

StartChar: uni0234
Encoding: 564 564 502
Width: 384
GlyphClass: 2
Flags: W
LayerCount: 2
Fore
SplineSet
100 -109 m 1,0,1
 103 -136 103 -136 125.5 -154 c 128,-1,2
 148 -172 148 -172 180 -172 c 0,3,4
 208 -172 208 -172 227 -157 c 128,-1,5
 246 -142 246 -142 250 -118 c 0,6,7
 254 -91 254 -91 240 -74 c 128,-1,8
 226 -57 226 -57 198 -57 c 0,9,10
 148 -57 148 -57 100 -109 c 1,0,1
-39 -211 m 1,11,12
 -2 -140 -2 -140 27 -106 c 1,13,14
 19 -75 19 -75 34 15 c 2,15,-1
 158 762 l 1,16,-1
 229 762 l 1,17,-1
 108 28 l 2,18,19
 99 -26 99 -26 100 -38 c 1,20,21
 120 -20 120 -20 150.5 -6.5 c 128,-1,22
 181 7 181 7 211 7 c 0,23,24
 273 7 273 7 301 -28.5 c 128,-1,25
 329 -64 329 -64 321 -115 c 0,26,27
 312 -168 312 -168 270.5 -201.5 c 128,-1,28
 229 -235 229 -235 171 -235 c 0,29,30
 128 -235 128 -235 99.5 -214 c 128,-1,31
 71 -193 71 -193 57 -166 c 1,32,33
 33 -199 33 -199 17 -230 c 1,34,-1
 -39 -211 l 1,11,12
EndSplineSet
EndChar

StartChar: uni0235
Encoding: 565 565 503
Width: 696
GlyphClass: 2
Flags: W
LayerCount: 2
Fore
SplineSet
409 -109 m 1,0,1
 413 -136 413 -136 436 -154 c 128,-1,2
 459 -172 459 -172 491 -172 c 0,3,4
 519 -172 519 -172 537.5 -156.5 c 128,-1,5
 556 -141 556 -141 560 -118 c 0,6,7
 564 -93 564 -93 550.5 -75 c 128,-1,8
 537 -57 537 -57 509 -57 c 0,9,10
 458 -57 458 -57 409 -109 c 1,0,1
25 0 m 1,11,-1
 112 528 l 1,12,-1
 181 528 l 1,13,-1
 166 438 l 1,14,-1
 167 438 l 1,15,16
 183 473 183 473 232 509.5 c 128,-1,17
 281 546 281 546 344 546 c 0,18,19
 413 546 413 546 451 499.5 c 128,-1,20
 489 453 489 453 470 341 c 2,21,-1
 419 29 l 2,22,23
 410 -26 410 -26 410 -38 c 1,24,25
 429 -19 429 -19 460 -6 c 128,-1,26
 491 7 491 7 521 7 c 0,27,28
 581 7 581 7 610.5 -28 c 128,-1,29
 640 -63 640 -63 632 -115 c 0,30,31
 623 -168 623 -168 581 -201.5 c 128,-1,32
 539 -235 539 -235 481 -235 c 0,33,34
 437 -235 437 -235 409 -214 c 128,-1,35
 381 -193 381 -193 368 -166 c 1,36,37
 344 -200 344 -200 328 -230 c 1,38,-1
 271 -211 l 1,39,40
 301 -149 301 -149 338 -106 c 1,41,42
 330 -76 330 -76 345 18 c 2,43,-1
 397 329 l 2,44,45
 422 482 422 482 318 482 c 0,46,47
 260 482 260 482 209.5 432.5 c 128,-1,48
 159 383 159 383 148 315 c 2,49,-1
 95 0 l 1,50,-1
 25 0 l 1,11,-1
EndSplineSet
EndChar

StartChar: uni0236
Encoding: 566 566 504
Width: 411
GlyphClass: 2
Flags: W
LayerCount: 2
Fore
SplineSet
125 -109 m 1,0,1
 129 -136 129 -136 152 -154 c 128,-1,2
 175 -172 175 -172 206 -172 c 256,3,4
 237 -172 237 -172 254.5 -156 c 128,-1,5
 272 -140 272 -140 276 -118 c 0,6,7
 280 -94 280 -94 267 -75.5 c 128,-1,8
 254 -57 254 -57 224 -57 c 0,9,10
 173 -57 173 -57 125 -109 c 1,0,1
48 464 m 1,11,-1
 59 528 l 1,12,-1
 146 528 l 1,13,-1
 174 698 l 1,14,-1
 245 698 l 1,15,-1
 217 528 l 1,16,-1
 350 528 l 1,17,-1
 339 464 l 1,18,-1
 206 464 l 1,19,-1
 133 26 l 2,20,21
 124 -26 124 -26 126 -38 c 1,22,23
 146 -19 146 -19 176.5 -6 c 128,-1,24
 207 7 207 7 236 7 c 0,25,26
 299 7 299 7 327.5 -28.5 c 128,-1,27
 356 -64 356 -64 348 -115 c 0,28,29
 339 -168 339 -168 297 -201.5 c 128,-1,30
 255 -235 255 -235 196 -235 c 0,31,32
 153 -235 153 -235 124.5 -214 c 128,-1,33
 96 -193 96 -193 84 -166 c 1,34,35
 55 -206 55 -206 43 -230 c 1,36,-1
 -12 -211 l 1,37,38
 26 -135 26 -135 54 -106 c 1,39,40
 46 -75 46 -75 62 20 c 2,41,-1
 135 464 l 1,42,-1
 48 464 l 1,11,-1
EndSplineSet
EndChar

StartChar: uni0237
Encoding: 567 567 505
Width: 252
GlyphClass: 2
Flags: W
LayerCount: 2
Fore
SplineSet
-86 -167 m 1,0,-1
 -64 -167 l 2,1,2
 20 -167 20 -167 40 -45 c 2,3,-1
 135 528 l 1,4,-1
 206 528 l 1,5,-1
 111 -49 l 2,6,7
 96 -138 96 -138 51 -184.5 c 128,-1,8
 6 -231 6 -231 -62 -231 c 2,9,-1
 -96 -231 l 1,10,-1
 -86 -167 l 1,0,-1
EndSplineSet
EndChar

StartChar: uni0238
Encoding: 568 568 506
Width: 873
GlyphClass: 2
Flags: W
LayerCount: 2
Fore
SplineSet
36 264 m 0,0,1
 58 395 58 395 131 470.5 c 128,-1,2
 204 546 204 546 293 546 c 0,3,4
 348 546 348 546 382.5 513 c 128,-1,5
 417 480 417 480 426 436 c 1,6,-1
 480 762 l 1,7,-1
 551 762 l 1,8,-1
 497 434 l 1,9,10
 517 475 517 475 565 510.5 c 128,-1,11
 613 546 613 546 668 546 c 0,12,13
 762 546 762 546 807 470.5 c 128,-1,14
 852 395 852 395 831 264 c 0,15,16
 819 190 819 190 790.5 134 c 128,-1,17
 762 78 762 78 725.5 46 c 128,-1,18
 689 14 689 14 651 -2 c 128,-1,19
 613 -18 613 -18 574 -18 c 0,20,21
 519 -18 519 -18 484 15 c 128,-1,22
 449 48 449 48 439 94 c 1,23,-1
 424 0 l 1,24,-1
 356 0 l 1,25,-1
 372 95 l 1,26,27
 344 46 344 46 298.5 14 c 128,-1,28
 253 -18 253 -18 199 -18 c 0,29,30
 162 -18 162 -18 129.5 -2.5 c 128,-1,31
 97 13 97 13 70.5 44.5 c 128,-1,32
 44 76 44 76 34 132.5 c 128,-1,33
 24 189 24 189 36 264 c 0,0,1
108 264 m 256,34,35
 91 163 91 163 122.5 104.5 c 128,-1,36
 154 46 154 46 219 46 c 0,37,38
 282 46 282 46 333 106 c 128,-1,39
 384 166 384 166 399 259 c 2,40,-1
 400 267 l 2,41,42
 415 360 415 360 383.5 421 c 128,-1,43
 352 482 352 482 289 482 c 0,44,45
 226 482 226 482 175.5 423.5 c 128,-1,46
 125 365 125 365 108 264 c 256,34,35
467 259 m 2,47,48
 452 168 452 168 482 107 c 128,-1,49
 512 46 512 46 576 46 c 0,50,51
 641 46 641 46 691.5 104 c 128,-1,52
 742 162 742 162 759 264 c 0,53,54
 776 364 776 364 745 423 c 128,-1,55
 714 482 714 482 649 482 c 0,56,57
 585 482 585 482 534 420.5 c 128,-1,58
 483 359 483 359 468 267 c 2,59,-1
 467 259 l 2,47,48
EndSplineSet
EndChar

StartChar: uni0239
Encoding: 569 569 507
Width: 874
GlyphClass: 2
Flags: W
LayerCount: 2
Fore
SplineSet
36 264 m 0,0,1
 57 393 57 393 129 469.5 c 128,-1,2
 201 546 201 546 293 546 c 0,3,4
 397 546 397 546 428 433 c 1,5,-1
 444 528 l 1,6,-1
 512 528 l 1,7,-1
 496 433 l 1,8,9
 525 482 525 482 573 514 c 128,-1,10
 621 546 621 546 673 546 c 0,11,12
 764 546 764 546 809 469.5 c 128,-1,13
 854 393 854 393 833 264 c 0,14,15
 810 128 810 128 737 55 c 128,-1,16
 664 -18 664 -18 579 -18 c 0,17,18
 523 -18 523 -18 487 14.5 c 128,-1,19
 451 47 451 47 440 93 c 1,20,-1
 387 -231 l 1,21,-1
 316 -231 l 1,22,-1
 369 91 l 1,23,24
 342 45 342 45 297.5 13.5 c 128,-1,25
 253 -18 253 -18 200 -18 c 0,26,27
 115 -18 115 -18 64 55 c 128,-1,28
 13 128 13 128 36 264 c 0,0,1
108 264 m 0,29,30
 91 163 91 163 122.5 104.5 c 128,-1,31
 154 46 154 46 218 46 c 0,32,33
 282 46 282 46 332.5 106 c 128,-1,34
 383 166 383 166 399 264 c 2,35,-1
 400 271 l 2,36,37
 415 363 415 363 384.5 422.5 c 128,-1,38
 354 482 354 482 292 482 c 0,39,40
 222 482 222 482 173 420.5 c 128,-1,41
 124 359 124 359 108 264 c 0,29,30
469 264 m 2,42,43
 453 165 453 165 484.5 105.5 c 128,-1,44
 516 46 516 46 581 46 c 256,45,46
 646 46 646 46 695 104.5 c 128,-1,47
 744 163 744 163 761 264 c 0,48,49
 777 359 777 359 749 420.5 c 128,-1,50
 721 482 721 482 653 482 c 0,51,52
 593 482 593 482 539.5 422.5 c 128,-1,53
 486 363 486 363 471 271 c 2,54,-1
 469 264 l 2,42,43
EndSplineSet
EndChar

StartChar: uni023A
Encoding: 570 570 508
Width: 625
GlyphClass: 2
Flags: W
LayerCount: 2
Fore
SplineSet
-51 0 m 1,0,-1
 341 735 l 1,1,-1
 436 735 l 1,2,-1
 467 579 l 1,3,-1
 616 771 l 1,4,-1
 678 771 l 1,5,-1
 480 516 l 1,6,-1
 582 0 l 1,7,-1
 497 0 l 1,8,-1
 460 212 l 1,9,-1
 244 212 l 1,10,-1
 10 -89 l 1,11,-1
 -54 -89 l 1,12,-1
 16 0 l 1,13,-1
 -51 0 l 1,0,-1
176 275 m 1,14,-1
 230 275 l 1,15,-1
 407 502 l 1,16,-1
 403 522 l 2,17,18
 402 523 402 523 379 663 c 1,19,-1
 374 663 l 1,20,21
 304 524 304 524 302 522 c 2,22,-1
 176 275 l 1,14,-1
293 275 m 1,23,-1
 448 275 l 1,24,-1
 419 437 l 1,25,-1
 293 275 l 1,23,-1
143 212 m 1,26,-1
 71 71 l 1,27,-1
 180 212 l 1,28,-1
 143 212 l 1,26,-1
EndSplineSet
EndChar

StartChar: uni023B
Encoding: 571 571 509
Width: 632
GlyphClass: 2
Flags: W
LayerCount: 2
Fore
SplineSet
60 367 m 0,0,1
 90 547 90 547 193 650 c 128,-1,2
 296 753 296 753 432 753 c 0,3,4
 492 753 492 753 535 728 c 1,5,-1
 570 794 l 1,6,-1
 629 794 l 1,7,-1
 578 698 l 1,8,9
 621 656 621 656 638 592 c 1,10,-1
 570 568 l 1,11,12
 555 605 555 605 539 626 c 1,13,-1
 237 67 l 1,14,15
 272 50 272 50 314 50 c 0,16,17
 379 50 379 50 433 87 c 128,-1,18
 487 124 487 124 520 178 c 1,19,-1
 586 155 l 1,20,21
 543 84 543 84 470.5 33 c 128,-1,22
 398 -18 398 -18 304 -18 c 0,23,24
 248 -18 248 -18 202 2 c 1,25,-1
 163 -70 l 1,26,-1
 105 -70 l 1,27,-1
 157 26 l 1,28,29
 93 71 93 71 66.5 158.5 c 128,-1,30
 40 246 40 246 60 367 c 0,0,1
194 95 m 1,31,-1
 499 663 l 1,32,33
 466 686 466 686 420 686 c 0,34,35
 316 686 316 686 239.5 599 c 128,-1,36
 163 512 163 512 139 367 c 0,37,38
 107 180 107 180 194 95 c 1,31,-1
EndSplineSet
EndChar

StartChar: uni023C
Encoding: 572 572 510
Width: 474
GlyphClass: 2
Flags: W
LayerCount: 2
Fore
SplineSet
36 264 m 0,0,1
 56 387 56 387 129 466.5 c 128,-1,2
 202 546 202 546 309 546 c 0,3,4
 348 546 348 546 376 530 c 1,5,-1
 411 600 l 1,6,-1
 463 600 l 1,7,-1
 414 503 l 1,8,9
 452 470 452 470 461 409 c 1,10,-1
 397 390 l 1,11,12
 389 420 389 420 381 435 c 1,13,-1
 188 51 l 1,14,15
 201 46 201 46 224 46 c 0,16,17
 270 46 270 46 307 76 c 128,-1,18
 344 106 344 106 369 145 c 1,19,-1
 427 125 l 1,20,21
 398 69 398 69 341 25.5 c 128,-1,22
 284 -18 284 -18 214 -18 c 0,23,24
 181 -18 181 -18 157 -11 c 1,25,-1
 130 -66 l 1,26,-1
 77 -66 l 1,27,-1
 114 8 l 1,28,29
 61 40 61 40 41.5 108.5 c 128,-1,30
 22 177 22 177 36 264 c 0,0,1
148 75 m 1,31,-1
 345 468 l 1,32,33
 326 482 326 482 296 482 c 0,34,35
 226 482 226 482 175 420 c 128,-1,36
 124 358 124 358 108 264 c 0,37,38
 97 199 97 199 108 149 c 128,-1,39
 119 99 119 99 148 75 c 1,31,-1
EndSplineSet
EndChar

StartChar: uni023D
Encoding: 573 573 511
Width: 525
GlyphClass: 2
Flags: W
LayerCount: 2
Fore
SplineSet
31 387 m 1,0,-1
 41 448 l 1,1,-1
 126 448 l 1,2,-1
 174 735 l 1,3,-1
 251 735 l 1,4,-1
 203 448 l 1,5,-1
 401 448 l 1,6,-1
 391 387 l 1,7,-1
 193 387 l 1,8,-1
 140 67 l 1,9,-1
 482 67 l 1,10,-1
 471 0 l 1,11,-1
 52 0 l 1,12,-1
 116 387 l 1,13,-1
 31 387 l 1,0,-1
EndSplineSet
EndChar

StartChar: uni023E
Encoding: 574 574 512
Width: 536
GlyphClass: 2
Flags: W
LayerCount: 2
Fore
SplineSet
369 668 m 1,0,-1
 337 469 l 1,1,-1
 477 668 l 1,2,-1
 369 668 l 1,0,-1
75 668 m 1,3,-1
 86 735 l 1,4,-1
 525 735 l 1,5,-1
 566 794 l 1,6,-1
 624 794 l 1,7,-1
 582 735 l 1,8,-1
 600 735 l 1,9,-1
 589 668 l 1,10,-1
 535 668 l 1,11,-1
 319 361 l 1,12,-1
 259 0 l 1,13,-1
 182 0 l 1,14,-1
 219 219 l 1,15,-1
 38 -38 l 1,16,-1
 -21 -38 l 1,17,-1
 237 327 l 1,18,-1
 293 668 l 1,19,-1
 75 668 l 1,3,-1
EndSplineSet
EndChar

StartChar: uni023F
Encoding: 575 575 513
Width: 463
GlyphClass: 2
Flags: W
LayerCount: 2
Fore
SplineSet
2 104 m 1,0,-1
 61 137 l 1,1,2
 100 46 100 46 196 46 c 0,3,4
 254 46 254 46 291 68.5 c 128,-1,5
 328 91 328 91 334 131 c 0,6,7
 339 159 339 159 319.5 180.5 c 128,-1,8
 300 202 300 202 281.5 210 c 128,-1,9
 263 218 263 218 215 235 c 0,10,11
 203 239 203 239 197 241 c 0,12,13
 128 266 128 266 92 301 c 128,-1,14
 56 336 56 336 66 397 c 0,15,16
 77 466 77 466 136 506 c 128,-1,17
 195 546 195 546 278 546 c 0,18,19
 340 546 340 546 384.5 513 c 128,-1,20
 429 480 429 480 445 431 c 1,21,-1
 392 397 l 1,22,23
 376 435 376 435 343.5 458.5 c 128,-1,24
 311 482 311 482 268 482 c 0,25,26
 209 482 209 482 177 459 c 128,-1,27
 145 436 145 436 138 396 c 0,28,29
 134 373 134 373 142.5 355 c 128,-1,30
 151 337 151 337 171.5 323.5 c 128,-1,31
 192 310 192 310 210 302 c 128,-1,32
 228 294 228 294 257 286 c 0,33,34
 290 275 290 275 315.5 263 c 128,-1,35
 341 251 341 251 365.5 233 c 128,-1,36
 390 215 390 215 400.5 189 c 128,-1,37
 411 163 411 163 406 131 c 0,38,39
 396 69 396 69 336.5 25.5 c 128,-1,40
 277 -18 277 -18 185 -18 c 0,41,42
 122 -18 122 -18 84 7 c 1,43,44
 93 -93 93 -93 106 -125 c 0,45,46
 129 -180 129 -180 190 -180 c 0,47,48
 222 -180 222 -180 237 -177 c 1,49,-1
 228 -230 l 1,50,51
 194 -235 194 -235 179 -235 c 0,52,53
 141 -235 141 -235 114 -220.5 c 128,-1,54
 87 -206 87 -206 72 -187 c 128,-1,55
 57 -168 57 -168 47.5 -132 c 128,-1,56
 38 -96 38 -96 35 -71 c 128,-1,57
 32 -46 32 -46 28 -2 c 0,58,59
 25 71 25 71 2 104 c 1,0,-1
EndSplineSet
EndChar

StartChar: uni0240
Encoding: 576 576 514
Width: 450
GlyphClass: 2
Flags: W
LayerCount: 2
Fore
SplineSet
-19 0 m 1,0,-1
 -10 51 l 1,1,-1
 352 464 l 1,2,-1
 84 464 l 1,3,-1
 94 528 l 1,4,-1
 454 528 l 1,5,-1
 446 480 l 1,6,-1
 72 51 l 1,7,8
 107 46 107 46 135 21.5 c 128,-1,9
 163 -3 163 -3 180 -34.5 c 128,-1,10
 197 -66 197 -66 213 -97.5 c 128,-1,11
 229 -129 229 -129 251 -150 c 128,-1,12
 273 -171 273 -171 302 -171 c 0,13,14
 329 -171 329 -171 349 -167 c 1,15,-1
 338 -229 l 1,16,17
 315 -235 315 -235 287 -235 c 0,18,19
 247 -235 247 -235 218.5 -211 c 128,-1,20
 190 -187 190 -187 171 -154 c 128,-1,21
 152 -121 152 -121 134 -86.5 c 128,-1,22
 116 -52 116 -52 89.5 -27 c 128,-1,23
 63 -2 63 -2 27 0 c 2,24,-1
 -19 0 l 1,0,-1
EndSplineSet
EndChar

StartChar: uni0241
Encoding: 577 577 515
Width: 540
GlyphClass: 2
Flags: W
LayerCount: 2
Fore
SplineSet
109 593 m 1,0,1
 145 667 145 667 210 710 c 128,-1,2
 275 753 275 753 351 753 c 0,3,4
 442 753 442 753 488 698.5 c 128,-1,5
 534 644 534 644 519 553 c 0,6,7
 512 508 512 508 488 471.5 c 128,-1,8
 464 435 464 435 434 409.5 c 128,-1,9
 404 384 404 384 374.5 359 c 128,-1,10
 345 334 345 334 321.5 299.5 c 128,-1,11
 298 265 298 265 291 223 c 2,12,-1
 254 0 l 1,13,-1
 178 0 l 1,14,-1
 216 229 l 2,15,16
 224 276 224 276 247.5 314 c 128,-1,17
 271 352 271 352 301 378 c 128,-1,18
 331 404 331 404 360 428.5 c 128,-1,19
 389 453 389 453 412 485 c 128,-1,20
 435 517 435 517 441 555 c 0,21,22
 451 614 451 614 424 650.5 c 128,-1,23
 397 687 397 687 341 687 c 0,24,25
 290 687 290 687 246 655 c 128,-1,26
 202 623 202 623 172 570 c 1,27,-1
 109 593 l 1,0,1
EndSplineSet
EndChar

StartChar: uni0250
Encoding: 592 592 516
Width: 518
GlyphClass: 2
Flags: W
LayerCount: 2
Fore
SplineSet
132 248 m 1,0,1
 168 258 168 258 267 274 c 0,2,3
 342 288 342 288 380.5 316 c 128,-1,4
 419 344 419 344 428 393 c 0,5,6
 434 431 434 431 408 456.5 c 128,-1,7
 382 482 382 482 330 482 c 0,8,9
 264 482 264 482 210 437 c 128,-1,10
 156 392 156 392 144 322 c 2,11,-1
 132 248 l 1,0,1
52 190 m 2,12,-1
 108 528 l 1,13,-1
 176 528 l 1,14,-1
 162 442 l 1,15,16
 184 484 184 484 235 515 c 128,-1,17
 286 546 286 546 350 546 c 0,18,19
 430 546 430 546 470.5 505.5 c 128,-1,20
 511 465 511 465 500 398 c 0,21,22
 488 325 488 325 428.5 280.5 c 128,-1,23
 369 236 369 236 256 217 c 0,24,25
 171 203 171 203 121 188 c 0,26,27
 120 184 120 184 118.5 172.5 c 128,-1,28
 117 161 117 161 117 157 c 0,29,30
 109 108 109 108 138 76 c 128,-1,31
 167 44 167 44 227 44 c 0,32,33
 270 44 270 44 315.5 65.5 c 128,-1,34
 361 87 361 87 397 126 c 1,35,-1
 437 84 l 1,36,37
 391 37 391 37 333 9.5 c 128,-1,38
 275 -18 275 -18 218 -18 c 0,39,40
 18 -18 18 -18 52 190 c 2,12,-1
EndSplineSet
EndChar

StartChar: uni0251
Encoding: 593 593 517
Width: 543
GlyphClass: 2
Flags: W
LayerCount: 2
Fore
SplineSet
108 264 m 0,0,1
 91 163 91 163 123.5 104.5 c 128,-1,2
 156 46 156 46 219 46 c 0,3,4
 276 46 276 46 329 102.5 c 128,-1,5
 382 159 382 159 400 264 c 0,6,7
 416 363 416 363 383.5 422.5 c 128,-1,8
 351 482 351 482 291 482 c 0,9,10
 225 482 225 482 175 423 c 128,-1,11
 125 364 125 364 108 264 c 0,0,1
36 264 m 0,12,13
 57 393 57 393 129.5 469.5 c 128,-1,14
 202 546 202 546 293 546 c 0,15,16
 348 546 348 546 384 510.5 c 128,-1,17
 420 475 420 475 426 436 c 1,18,-1
 442 528 l 1,19,-1
 512 528 l 1,20,-1
 425 0 l 1,21,-1
 356 0 l 1,22,-1
 372 95 l 1,23,24
 346 49 346 49 299.5 15.5 c 128,-1,25
 253 -18 253 -18 200 -18 c 0,26,27
 117 -18 117 -18 65 53 c 128,-1,28
 13 124 13 124 36 264 c 0,12,13
EndSplineSet
EndChar

StartChar: uni0252
Encoding: 594 594 518
Width: 543
GlyphClass: 2
Flags: W
LayerCount: 2
Fore
SplineSet
25 0 m 1,0,-1
 112 528 l 1,1,-1
 183 528 l 1,2,-1
 167 434 l 1,3,4
 187 475 187 475 234.5 510.5 c 128,-1,5
 282 546 282 546 338 546 c 0,6,7
 431 546 431 546 477 470 c 128,-1,8
 523 394 523 394 501 264 c 0,9,10
 489 190 489 190 461 134 c 128,-1,11
 433 78 433 78 396 46 c 128,-1,12
 359 14 359 14 321 -2 c 128,-1,13
 283 -18 283 -18 245 -18 c 0,14,15
 190 -18 190 -18 154.5 15 c 128,-1,16
 119 48 119 48 110 94 c 1,17,-1
 94 0 l 1,18,-1
 25 0 l 1,0,-1
137 264 m 0,19,20
 120 164 120 164 152.5 105 c 128,-1,21
 185 46 185 46 246 46 c 0,22,23
 312 46 312 46 362 104.5 c 128,-1,24
 412 163 412 163 429 264 c 0,25,26
 446 364 446 364 415 423 c 128,-1,27
 384 482 384 482 319 482 c 0,28,29
 258 482 258 482 205.5 422.5 c 128,-1,30
 153 363 153 363 137 264 c 0,19,20
EndSplineSet
EndChar

StartChar: uni0253
Encoding: 595 595 519
Width: 546
GlyphClass: 2
Flags: W
LayerCount: 2
Fore
SplineSet
140 264 m 0,0,1
 124 167 124 167 155 106.5 c 128,-1,2
 186 46 186 46 248 46 c 0,3,4
 314 46 314 46 364.5 105 c 128,-1,5
 415 164 415 164 432 264 c 0,6,7
 448 361 448 361 418.5 421.5 c 128,-1,8
 389 482 389 482 321 482 c 0,9,10
 257 482 257 482 206.5 421 c 128,-1,11
 156 360 156 360 140 264 c 0,0,1
27 0 m 1,12,-1
 117 543 l 2,13,14
 135 650 135 650 191.5 709 c 128,-1,15
 248 768 248 768 333 768 c 0,16,17
 383 768 383 768 441 755 c 1,18,-1
 427 690 l 1,19,20
 364 703 364 703 333 703 c 0,21,22
 272 703 272 703 235.5 657 c 128,-1,23
 199 611 199 611 186 530 c 2,24,-1
 170 434 l 1,25,26
 196 481 196 481 241 513.5 c 128,-1,27
 286 546 286 546 341 546 c 0,28,29
 437 546 437 546 481 468.5 c 128,-1,30
 525 391 525 391 504 264 c 0,31,32
 482 131 482 131 409 56.5 c 128,-1,33
 336 -18 336 -18 248 -18 c 0,34,35
 189 -18 189 -18 156.5 16.5 c 128,-1,36
 124 51 124 51 113 94 c 1,37,-1
 97 0 l 1,38,-1
 27 0 l 1,12,-1
EndSplineSet
EndChar

StartChar: uni0254
Encoding: 596 596 520
Width: 473
GlyphClass: 2
Flags: W
LayerCount: 2
Fore
SplineSet
-4 125 m 1,0,-1
 59 145 l 1,1,2
 68 106 68 106 99 76 c 128,-1,3
 130 46 130 46 173 46 c 0,4,5
 238 46 238 46 290.5 105 c 128,-1,6
 343 164 343 164 360 264 c 0,7,8
 376 358 376 358 344.5 420 c 128,-1,9
 313 482 313 482 245 482 c 0,10,11
 204 482 204 482 168.5 455.5 c 128,-1,12
 133 429 133 429 112 390 c 1,13,-1
 55 409 l 1,14,15
 80 465 80 465 134.5 505.5 c 128,-1,16
 189 546 189 546 256 546 c 0,17,18
 359 546 359 546 405.5 468 c 128,-1,19
 452 390 452 390 431 264 c 0,20,21
 410 135 410 135 336.5 58.5 c 128,-1,22
 263 -18 263 -18 163 -18 c 0,23,24
 94 -18 94 -18 49.5 24.5 c 128,-1,25
 5 67 5 67 -4 125 c 1,0,-1
EndSplineSet
EndChar

StartChar: uni0255
Encoding: 597 597 521
Width: 473
GlyphClass: 2
Flags: W
LayerCount: 2
Fore
SplineSet
185 56 m 1,0,1
 218 46 218 46 250 46 c 0,2,3
 289 46 289 46 315.5 62.5 c 128,-1,4
 342 79 342 79 346 101 c 0,5,6
 352 139 352 139 303 139 c 0,7,8
 269 139 269 139 236.5 114 c 128,-1,9
 204 89 204 89 185 56 c 1,0,1
36 268 m 0,10,11
 56 386 56 386 128.5 466 c 128,-1,12
 201 546 201 546 306 546 c 0,13,14
 373 546 373 546 412.5 504.5 c 128,-1,15
 452 463 452 463 460 409 c 1,16,-1
 396 390 l 1,17,18
 390 426 390 426 363.5 454 c 128,-1,19
 337 482 337 482 296 482 c 0,20,21
 226 482 226 482 175 420.5 c 128,-1,22
 124 359 124 359 108 264 c 0,23,24
 89 150 89 150 137 91 c 1,25,26
 211 203 211 203 315 203 c 0,27,28
 372 203 372 203 398 172.5 c 128,-1,29
 424 142 424 142 417 101 c 0,30,31
 409 50 409 50 360 16 c 128,-1,32
 311 -18 311 -18 236 -18 c 0,33,34
 182 -18 182 -18 150 -6 c 1,35,36
 128 -49 128 -49 122 -65 c 1,37,-1
 63 -49 l 1,38,39
 71 -22 71 -22 98 25 c 1,40,41
 8 100 8 100 36 268 c 0,10,11
EndSplineSet
EndChar

StartChar: uni0256
Encoding: 598 598 522
Width: 555
GlyphClass: 2
Flags: W
LayerCount: 2
Fore
SplineSet
36 264 m 0,0,1
 58 395 58 395 131 470.5 c 128,-1,2
 204 546 204 546 293 546 c 0,3,4
 348 546 348 546 382.5 513 c 128,-1,5
 417 480 417 480 426 436 c 1,6,-1
 480 762 l 1,7,-1
 551 762 l 1,8,-1
 419 -35 l 2,9,10
 407 -107 407 -107 423.5 -138 c 128,-1,11
 440 -169 440 -169 481 -169 c 0,12,13
 513 -169 513 -169 545 -163 c 1,14,-1
 534 -228 l 1,15,16
 485 -235 485 -235 459 -235 c 0,17,18
 393 -235 393 -235 362.5 -191 c 128,-1,19
 332 -147 332 -147 350 -40 c 2,20,-1
 372 95 l 1,21,22
 344 46 344 46 298.5 14 c 128,-1,23
 253 -18 253 -18 199 -18 c 0,24,25
 161 -18 161 -18 128 -2 c 128,-1,26
 95 14 95 14 69 46 c 128,-1,27
 43 78 43 78 33.5 134 c 128,-1,28
 24 190 24 190 36 264 c 0,0,1
108 264 m 0,29,30
 92 166 92 166 123 106 c 128,-1,31
 154 46 154 46 219 46 c 0,32,33
 280 46 280 46 331.5 105.5 c 128,-1,34
 383 165 383 165 400 264 c 256,35,36
 416 363 416 363 383.5 422.5 c 128,-1,37
 351 482 351 482 291 482 c 0,38,39
 227 482 227 482 176 423 c 128,-1,40
 125 364 125 364 108 264 c 0,29,30
EndSplineSet
EndChar

StartChar: uni0257
Encoding: 599 599 523
Width: 555
GlyphClass: 2
Flags: W
LayerCount: 2
Fore
SplineSet
36 265 m 0,0,1
 58 396 58 396 130.5 471 c 128,-1,2
 203 546 203 546 293 546 c 0,3,4
 347 546 347 546 382 512 c 128,-1,5
 417 478 417 478 426 434 c 1,6,-1
 456 617 l 2,7,8
 468 691 468 691 518.5 729.5 c 128,-1,9
 569 768 569 768 639 768 c 0,10,11
 665 768 665 768 706 764 c 1,12,-1
 695 698 l 1,13,14
 674 701 674 701 639 701 c 0,15,16
 594 701 594 701 563 675.5 c 128,-1,17
 532 650 532 650 524 601 c 2,18,-1
 425 0 l 1,19,-1
 356 0 l 1,20,-1
 372 97 l 1,21,22
 347 49 347 49 300.5 15.5 c 128,-1,23
 254 -18 254 -18 199 -18 c 0,24,25
 161 -18 161 -18 127.5 -1.5 c 128,-1,26
 94 15 94 15 68 47 c 128,-1,27
 42 79 42 79 33 135.5 c 128,-1,28
 24 192 24 192 36 265 c 0,0,1
108 265 m 0,29,30
 91 164 91 164 122.5 105 c 128,-1,31
 154 46 154 46 219 46 c 0,32,33
 279 46 279 46 331 104.5 c 128,-1,34
 383 163 383 163 400 265 c 0,35,36
 416 364 416 364 383.5 423 c 128,-1,37
 351 482 351 482 291 482 c 0,38,39
 225 482 225 482 174.5 423 c 128,-1,40
 124 364 124 364 108 265 c 0,29,30
EndSplineSet
EndChar

StartChar: uni0258
Encoding: 600 600 524
Width: 521
GlyphClass: 2
Flags: W
LayerCount: 2
Fore
SplineSet
31 239 m 1,0,1
 32 252 32 252 36 279 c 0,2,3
 56 398 56 398 129 472 c 128,-1,4
 202 546 202 546 300 546 c 0,5,6
 400 546 400 546 450.5 470 c 128,-1,7
 501 394 501 394 480 268 c 0,8,9
 458 136 458 136 381 59 c 128,-1,10
 304 -18 304 -18 202 -18 c 0,11,12
 124 -18 124 -18 79.5 19.5 c 128,-1,13
 35 57 35 57 20 114 c 1,14,-1
 85 134 l 1,15,16
 97 94 97 94 130.5 70 c 128,-1,17
 164 46 164 46 213 46 c 0,18,19
 285 46 285 46 337 102 c 128,-1,20
 389 158 389 158 403 239 c 1,21,-1
 31 239 l 1,0,1
112 297 m 1,22,-1
 413 297 l 1,23,24
 421 374 421 374 389 428 c 128,-1,25
 357 482 357 482 290 482 c 256,26,27
 223 482 223 482 174.5 428.5 c 128,-1,28
 126 375 126 375 112 297 c 1,22,-1
EndSplineSet
EndChar

StartChar: uni025A
Encoding: 602 602 526
Width: 613
GlyphClass: 2
Flags: W
LayerCount: 2
Fore
SplineSet
27 225 m 1,0,-1
 407 391 l 1,1,2
 377 482 377 482 284 482 c 0,3,4
 236 482 236 482 194.5 458 c 128,-1,5
 153 434 153 434 127 394 c 1,6,-1
 69 413 l 1,7,8
 104 473 104 473 162 509.5 c 128,-1,9
 220 546 220 546 295 546 c 0,10,11
 430 546 430 546 471 420 c 1,12,-1
 549 459 l 1,13,14
 561 391 561 391 618 391 c 0,15,16
 641 391 641 391 652 394 c 1,17,-1
 643 335 l 1,18,19
 620 329 620 329 603 329 c 0,20,21
 572 329 572 329 549 343.5 c 128,-1,22
 526 358 526 358 519 379 c 1,23,-1
 483 360 l 1,24,25
 487 320 487 320 478 263 c 0,26,27
 458 141 458 141 384.5 61.5 c 128,-1,28
 311 -18 311 -18 205 -18 c 0,29,30
 105 -18 105 -18 60.5 52 c 128,-1,31
 16 122 16 122 27 225 c 1,0,-1
97 194 m 1,32,33
 96 124 96 124 128.5 85 c 128,-1,34
 161 46 161 46 216 46 c 0,35,36
 284 46 284 46 337 104 c 128,-1,37
 390 162 390 162 405 256 c 0,38,39
 413 305 413 305 414 329 c 1,40,-1
 97 194 l 1,32,33
EndSplineSet
EndChar

StartChar: uni025B
Encoding: 603 603 527
Width: 441
GlyphClass: 2
Flags: W
LayerCount: 2
Fore
SplineSet
16 142 m 0,0,1
 25 195 25 195 61 230.5 c 128,-1,2
 97 266 97 266 143 280 c 1,3,-1
 143 281 l 1,4,5
 64 315 64 315 78 400 c 0,6,7
 89 464 89 464 141.5 505 c 128,-1,8
 194 546 194 546 276 546 c 0,9,10
 390 546 390 546 432 440 c 1,11,-1
 369 412 l 1,12,13
 355 443 355 443 329 462.5 c 128,-1,14
 303 482 303 482 267 482 c 0,15,16
 216 482 216 482 185.5 459 c 128,-1,17
 155 436 155 436 149 396 c 0,18,19
 143 357 143 357 168.5 331 c 128,-1,20
 194 305 194 305 257 305 c 2,21,-1
 297 305 l 1,22,-1
 288 248 l 1,23,-1
 248 248 l 2,24,25
 173 248 173 248 134 217 c 128,-1,26
 95 186 95 186 88 143 c 0,27,28
 81 98 81 98 111.5 72 c 128,-1,29
 142 46 142 46 196 46 c 0,30,31
 235 46 235 46 275 67.5 c 128,-1,32
 315 89 315 89 338 118 c 1,33,-1
 389 88 l 1,34,35
 354 40 354 40 299.5 11 c 128,-1,36
 245 -18 245 -18 185 -18 c 0,37,38
 98 -18 98 -18 51 24.5 c 128,-1,39
 4 67 4 67 16 142 c 0,0,1
EndSplineSet
EndChar

StartChar: uni025C
Encoding: 604 604 528
Width: 442
GlyphClass: 2
Flags: W
LayerCount: 2
Fore
SplineSet
-11 88 m 1,0,-1
 49 118 l 1,1,2
 63 89 63 89 95.5 67.5 c 128,-1,3
 128 46 128 46 167 46 c 0,4,5
 221 46 221 46 261 72 c 128,-1,6
 301 98 301 98 308 143 c 0,7,8
 315 186 315 186 286.5 217 c 128,-1,9
 258 248 258 248 183 248 c 2,10,-1
 142 248 l 1,11,-1
 152 305 l 1,12,-1
 193 305 l 2,13,14
 257 305 257 305 291 331 c 128,-1,15
 325 357 325 357 331 396 c 0,16,17
 338 436 338 436 315.5 459 c 128,-1,18
 293 482 293 482 242 482 c 0,19,20
 207 482 207 482 173.5 462.5 c 128,-1,21
 140 443 140 443 116 412 c 1,22,-1
 62 440 l 1,23,24
 139 546 139 546 253 546 c 0,25,26
 335 546 335 546 374.5 505 c 128,-1,27
 414 464 414 464 403 400 c 0,28,29
 389 315 389 315 298 281 c 1,30,-1
 299 280 l 1,31,32
 340 266 340 266 364.5 230.5 c 128,-1,33
 389 195 389 195 380 142 c 0,34,35
 368 67 368 67 306.5 24.5 c 128,-1,36
 245 -18 245 -18 158 -18 c 0,37,38
 98 -18 98 -18 53 11 c 128,-1,39
 8 40 8 40 -11 88 c 1,0,-1
EndSplineSet
EndChar

StartChar: uni025D
Encoding: 605 605 529
Width: 501
GlyphClass: 2
Flags: W
LayerCount: 2
Fore
SplineSet
-11 88 m 1,0,-1
 49 118 l 1,1,2
 61 91 61 91 93.5 68.5 c 128,-1,3
 126 46 126 46 165 46 c 0,4,5
 225 46 225 46 263 73 c 128,-1,6
 301 100 301 100 308 144 c 0,7,8
 315 187 315 187 285.5 217.5 c 128,-1,9
 256 248 256 248 182 248 c 2,10,-1
 142 248 l 1,11,-1
 152 305 l 1,12,-1
 192 305 l 2,13,14
 256 305 256 305 290.5 331 c 128,-1,15
 325 357 325 357 331 396 c 0,16,17
 338 436 338 436 315.5 459 c 128,-1,18
 293 482 293 482 242 482 c 0,19,20
 170 482 170 482 116 412 c 1,21,-1
 62 440 l 1,22,23
 139 546 139 546 253 546 c 256,24,25
 367 546 367 546 398 467 c 1,26,-1
 473 506 l 1,27,28
 479 474 479 474 498.5 453 c 128,-1,29
 518 432 518 432 546 432 c 0,30,31
 567 432 567 432 579 436 c 1,32,-1
 569 375 l 1,33,34
 549 370 549 370 530 370 c 0,35,36
 497 370 497 370 473.5 387 c 128,-1,37
 450 404 450 404 443 426 c 1,38,-1
 404 406 l 1,39,40
 401 389 401 389 399 381 c 0,41,42
 389 345 389 345 359.5 318 c 128,-1,43
 330 291 330 291 299 281 c 1,44,-1
 299 280 l 1,45,46
 339 266 339 266 364 231 c 128,-1,47
 389 196 389 196 380 143 c 0,48,49
 367 67 367 67 306.5 24.5 c 128,-1,50
 246 -18 246 -18 155 -18 c 0,51,52
 95 -18 95 -18 50.5 12.5 c 128,-1,53
 6 43 6 43 -11 88 c 1,0,-1
EndSplineSet
EndChar

StartChar: uni025E
Encoding: 606 606 530
Width: 520
GlyphClass: 2
Flags: W
LayerCount: 2
Fore
SplineSet
36 265 m 0,0,1
 57 392 57 392 131 469 c 128,-1,2
 205 546 205 546 316 546 c 0,3,4
 397 546 397 546 443.5 506 c 128,-1,5
 490 466 490 466 478 396 c 0,6,7
 471 351 471 351 443.5 319.5 c 128,-1,8
 416 288 416 288 380 274 c 1,9,-1
 380 273 l 1,10,11
 418 260 418 260 440.5 227 c 128,-1,12
 463 194 463 194 455 141 c 0,13,14
 442 64 442 64 379.5 23 c 128,-1,15
 317 -18 317 -18 223 -18 c 0,16,17
 119 -18 119 -18 66.5 56.5 c 128,-1,18
 14 131 14 131 36 265 c 0,0,1
108 265 m 0,19,20
 98 203 98 203 106 158.5 c 128,-1,21
 114 114 114 114 135.5 90.5 c 128,-1,22
 157 67 157 67 182 56.5 c 128,-1,23
 207 46 207 46 234 46 c 0,24,25
 300 46 300 46 338 71 c 128,-1,26
 376 96 376 96 383 139 c 0,27,28
 390 179 390 179 363.5 209 c 128,-1,29
 337 239 337 239 266 239 c 2,30,-1
 232 239 l 1,31,-1
 242 299 l 1,32,-1
 276 299 l 2,33,34
 337 299 337 299 368 326.5 c 128,-1,35
 399 354 399 354 405 391 c 0,36,37
 412 435 412 435 385 458.5 c 128,-1,38
 358 482 358 482 305 482 c 0,39,40
 238 482 238 482 182 427.5 c 128,-1,41
 126 373 126 373 108 265 c 0,19,20
EndSplineSet
EndChar

StartChar: uni025F
Encoding: 607 607 531
Width: 261
GlyphClass: 2
Flags: W
LayerCount: 2
Fore
SplineSet
-12 269 m 1,0,-1
 -2 331 l 1,1,-1
 105 331 l 1,2,-1
 138 528 l 1,3,-1
 209 528 l 1,4,-1
 177 331 l 1,5,-1
 274 331 l 1,6,-1
 264 269 l 1,7,-1
 166 269 l 1,8,-1
 114 -49 l 2,9,10
 99 -138 99 -138 54 -184.5 c 128,-1,11
 9 -231 9 -231 -60 -231 c 2,12,-1
 -93 -231 l 1,13,-1
 -83 -167 l 1,14,-1
 -61 -167 l 2,15,16
 23 -167 23 -167 43 -45 c 2,17,-1
 95 269 l 1,18,-1
 -12 269 l 1,0,-1
EndSplineSet
EndChar

StartChar: uni0260
Encoding: 608 608 532
Width: 543
GlyphClass: 2
Flags: W
LayerCount: 2
Fore
SplineSet
37 274 m 0,0,1
 57 395 57 395 127.5 470.5 c 128,-1,2
 198 546 198 546 289 546 c 0,3,4
 346 546 346 546 377.5 515 c 128,-1,5
 409 484 409 484 419 442 c 1,6,-1
 448 617 l 2,7,8
 460 689 460 689 511 728.5 c 128,-1,9
 562 768 562 768 630 768 c 0,10,11
 656 768 656 768 697 764 c 1,12,-1
 686 700 l 1,13,14
 664 703 664 703 631 703 c 0,15,16
 588 703 588 703 556 676.5 c 128,-1,17
 524 650 524 650 516 601 c 2,18,-1
 426 62 l 2,19,20
 415 -3 415 -3 398.5 -51.5 c 128,-1,21
 382 -100 382 -100 353 -143.5 c 128,-1,22
 324 -187 324 -187 276.5 -211 c 128,-1,23
 229 -235 229 -235 164 -235 c 0,24,25
 44 -235 44 -235 -5 -138 c 1,26,-1
 50 -104 l 1,27,28
 66 -125 66 -125 78.5 -137 c 128,-1,29
 91 -149 91 -149 117.5 -161 c 128,-1,30
 144 -173 144 -173 177 -173 c 0,31,32
 249 -173 249 -173 292.5 -113.5 c 128,-1,33
 336 -54 336 -54 350 33 c 2,34,-1
 363 103 l 1,35,36
 337 58 337 58 295.5 30 c 128,-1,37
 254 2 254 2 201 2 c 0,38,39
 108 2 108 2 62.5 76.5 c 128,-1,40
 17 151 17 151 37 274 c 0,0,1
110 274 m 0,41,42
 94 177 94 177 124.5 121.5 c 128,-1,43
 155 66 155 66 217 66 c 0,44,45
 283 66 283 66 329 121.5 c 128,-1,46
 375 177 375 177 391 275 c 0,47,48
 407 369 407 369 378.5 425.5 c 128,-1,49
 350 482 350 482 287 482 c 0,50,51
 223 482 223 482 174 424.5 c 128,-1,52
 125 367 125 367 110 274 c 0,41,42
EndSplineSet
EndChar

StartChar: uni0262
Encoding: 610 610 534
Width: 537
GlyphClass: 2
Flags: W
LayerCount: 2
Fore
SplineSet
36 263 m 0,0,1
 57 391 57 391 133.5 468.5 c 128,-1,2
 210 546 210 546 322 546 c 0,3,4
 445 546 445 546 490 426 c 1,5,-1
 426 399 l 1,6,7
 389 481 389 481 311 481 c 0,8,9
 234 481 234 481 179.5 422 c 128,-1,10
 125 363 125 363 108 263 c 256,11,12
 91 163 91 163 126.5 105 c 128,-1,13
 162 47 162 47 238 47 c 0,14,15
 304 47 304 47 348 89 c 128,-1,16
 392 131 392 131 402 189 c 2,17,-1
 408 226 l 1,18,-1
 257 226 l 1,19,-1
 267 288 l 1,20,-1
 484 288 l 1,21,-1
 436 0 l 1,22,-1
 382 0 l 1,23,-1
 391 71 l 1,24,25
 370 35 370 35 325 8.5 c 128,-1,26
 280 -18 280 -18 223 -18 c 0,27,28
 118 -18 118 -18 66 56.5 c 128,-1,29
 14 131 14 131 36 263 c 0,0,1
EndSplineSet
EndChar

StartChar: uni0263
Encoding: 611 611 535
Width: 469
GlyphClass: 2
Flags: W
LayerCount: 2
Fore
SplineSet
48 528 m 1,0,-1
 127 528 l 1,1,-1
 199 139 l 1,2,-1
 204 108 l 1,3,-1
 205 108 l 1,4,-1
 221 137 l 1,5,-1
 423 528 l 1,6,-1
 502 528 l 1,7,-1
 244 56 l 1,8,9
 303 -32 303 -32 292 -103 c 0,10,11
 283 -160 283 -160 242 -197.5 c 128,-1,12
 201 -235 201 -235 148 -235 c 0,13,14
 97 -235 97 -235 69 -199 c 128,-1,15
 41 -163 41 -163 51 -103 c 0,16,17
 62 -37 62 -37 148 54 c 1,18,-1
 48 528 l 1,0,-1
110 -104 m 0,19,20
 105 -135 105 -135 117.5 -158 c 128,-1,21
 130 -181 130 -181 157 -181 c 0,22,23
 185 -181 185 -181 205.5 -158 c 128,-1,24
 226 -135 226 -135 231 -104 c 0,25,26
 240 -48 240 -48 191 24 c 1,27,28
 120 -42 120 -42 110 -104 c 0,19,20
EndSplineSet
Substitution2: "'sups' Superscript lookup 5 subtable" uni02E0
Substitution2: "'aalt' Access All Alternates lookup 0 subtable" uni02E0
EndChar

StartChar: uni0264
Encoding: 612 612 536
Width: 449
GlyphClass: 2
Flags: W
LayerCount: 2
Fore
SplineSet
234 344 m 1,0,1
 189 295 189 295 162.5 252 c 128,-1,2
 136 209 136 209 127 153 c 0,3,4
 119 106 119 106 135 76.5 c 128,-1,5
 151 47 151 47 188 47 c 0,6,7
 223 47 223 47 248 78.5 c 128,-1,8
 273 110 273 110 280 153 c 0,9,10
 289 208 289 208 277 250 c 128,-1,11
 265 292 265 292 234 344 c 1,0,1
57 476 m 1,12,-1
 68 539 l 1,13,14
 96 546 96 546 117 546 c 0,15,16
 163 546 163 546 191.5 522.5 c 128,-1,17
 220 499 220 499 252 451 c 1,18,19
 299 499 299 499 337.5 522.5 c 128,-1,20
 376 546 376 546 419 546 c 0,21,22
 444 546 444 546 466 540 c 1,23,-1
 456 475 l 1,24,25
 435 481 435 481 410 481 c 0,26,27
 379 481 379 481 351 461 c 128,-1,28
 323 441 323 441 287 401 c 1,29,30
 329 332 329 332 346.5 278 c 128,-1,31
 364 224 364 224 352 152 c 0,32,33
 340 78 340 78 292.5 30 c 128,-1,34
 245 -18 245 -18 177 -18 c 0,35,36
 105 -18 105 -18 73.5 30.5 c 128,-1,37
 42 79 42 79 54 152 c 0,38,39
 62 203 62 203 88.5 252 c 128,-1,40
 115 301 115 301 137 328.5 c 128,-1,41
 159 356 159 356 202 401 c 1,42,43
 181 441 181 441 159 461 c 128,-1,44
 137 481 137 481 104 481 c 0,45,46
 96 481 96 481 57 476 c 1,12,-1
EndSplineSet
EndChar

StartChar: uni0265
Encoding: 613 613 537
Width: 532
GlyphClass: 2
Flags: W
LayerCount: 2
Fore
SplineSet
51 186 m 2,0,-1
 108 528 l 1,1,-1
 178 528 l 1,2,-1
 124 198 l 2,3,4
 99 46 99 46 205 46 c 0,5,6
 261 46 261 46 311.5 96.5 c 128,-1,7
 362 147 362 147 373 215 c 2,8,-1
 425 528 l 1,9,-1
 497 528 l 1,10,-1
 371 -231 l 1,11,-1
 300 -231 l 1,12,-1
 352 85 l 1,13,-1
 351 85 l 1,14,15
 327 44 327 44 280.5 13 c 128,-1,16
 234 -18 234 -18 179 -18 c 0,17,18
 110 -18 110 -18 71 28 c 128,-1,19
 32 74 32 74 51 186 c 2,0,-1
EndSplineSet
EndChar

StartChar: uni0266
Encoding: 614 614 538
Width: 532
GlyphClass: 2
Flags: W
LayerCount: 2
Fore
SplineSet
29 0 m 1,0,-1
 129 602 l 2,1,2
 142 682 142 682 195 725 c 128,-1,3
 248 768 248 768 319 768 c 0,4,5
 365 768 365 768 413 761 c 1,6,-1
 402 697 l 1,7,8
 364 703 364 703 319 703 c 0,9,10
 270 703 270 703 238 668 c 128,-1,11
 206 633 206 633 198 589 c 2,12,-1
 174 443 l 1,13,-1
 175 443 l 1,14,15
 201 485 201 485 247 515.5 c 128,-1,16
 293 546 293 546 347 546 c 0,17,18
 510 546 510 546 476 341 c 2,19,-1
 419 0 l 1,20,-1
 348 0 l 1,21,-1
 402 329 l 2,22,23
 427 482 427 482 323 482 c 0,24,25
 265 482 265 482 214.5 432 c 128,-1,26
 164 382 164 382 153 313 c 2,27,-1
 101 0 l 1,28,-1
 29 0 l 1,0,-1
EndSplineSet
Substitution2: "'sups' Superscript lookup 5 subtable" uni02B1
Substitution2: "'aalt' Access All Alternates lookup 0 subtable" uni02B1
EndChar

StartChar: uni0267
Encoding: 615 615 539
Width: 537
GlyphClass: 2
Flags: W
LayerCount: 2
Fore
SplineSet
29 0 m 1,0,-1
 129 601 l 2,1,2
 142 682 142 682 195 725 c 128,-1,3
 248 768 248 768 319 768 c 0,4,5
 365 768 365 768 413 761 c 1,6,-1
 402 697 l 1,7,8
 364 703 364 703 319 703 c 0,9,10
 269 703 269 703 237.5 668 c 128,-1,11
 206 633 206 633 198 585 c 2,12,-1
 174 443 l 1,13,-1
 175 443 l 1,14,15
 201 485 201 485 247 515.5 c 128,-1,16
 293 546 293 546 347 546 c 0,17,18
 510 546 510 546 476 341 c 2,19,-1
 411 -49 l 2,20,21
 396 -141 396 -141 352.5 -188 c 128,-1,22
 309 -235 309 -235 228 -235 c 0,23,24
 219 -235 219 -235 208 -234.5 c 128,-1,25
 197 -234 197 -234 183.5 -233 c 128,-1,26
 170 -232 170 -232 162 -232 c 1,27,-1
 173 -169 l 1,28,29
 210 -171 210 -171 226 -171 c 0,30,31
 274 -171 274 -171 301.5 -143.5 c 128,-1,32
 329 -116 329 -116 340 -46 c 2,33,-1
 402 329 l 2,34,35
 427 482 427 482 323 482 c 0,36,37
 266 482 266 482 215 431 c 128,-1,38
 164 380 164 380 153 313 c 2,39,-1
 101 0 l 1,40,-1
 29 0 l 1,0,-1
EndSplineSet
EndChar

StartChar: uni0268
Encoding: 616 616 540
Width: 254
GlyphClass: 2
Flags: W
LayerCount: 2
Fore
SplineSet
142 647 m 1,0,-1
 158 745 l 1,1,-1
 250 745 l 1,2,-1
 233 647 l 1,3,-1
 142 647 l 1,0,-1
8 262 m 1,4,-1
 18 323 l 1,5,-1
 99 323 l 1,6,-1
 133 528 l 1,7,-1
 204 528 l 1,8,-1
 170 323 l 1,9,-1
 249 323 l 1,10,-1
 239 262 l 1,11,-1
 160 262 l 1,12,-1
 117 0 l 1,13,-1
 45 0 l 1,14,-1
 89 262 l 1,15,-1
 8 262 l 1,4,-1
EndSplineSet
EndChar

StartChar: uni0269
Encoding: 617 617 541
Width: 305
GlyphClass: 2
Flags: W
LayerCount: 2
Fore
SplineSet
47 145 m 2,0,-1
 110 528 l 1,1,-1
 181 528 l 1,2,-1
 118 149 l 2,3,4
 101 49 101 49 179 49 c 0,5,6
 217 49 217 49 247 54 c 1,7,-1
 236 -11 l 1,8,9
 183 -18 183 -18 155 -18 c 0,10,11
 92 -18 92 -18 63 23 c 128,-1,12
 34 64 34 64 47 145 c 2,0,-1
EndSplineSet
EndChar

StartChar: uni026B
Encoding: 619 619 543
Width: 238
GlyphClass: 2
Flags: W
LayerCount: 2
Fore
SplineSet
-1 365 m 1,0,-1
 9 429 l 1,1,2
 51 444 51 444 79 444 c 0,3,4
 93 444 93 444 109 440 c 1,5,-1
 162 762 l 1,6,-1
 234 762 l 1,7,-1
 178 425 l 1,8,9
 195 422 195 422 213 422 c 0,10,11
 218 422 218 422 222 422 c 0,12,13
 251 423 251 423 279 436 c 1,14,-1
 268 371 l 1,15,16
 242 359 242 359 213 358 c 0,17,18
 210 358 210 358 206 358 c 0,19,20
 189 358 189 358 168 362 c 1,21,-1
 108 0 l 1,22,-1
 36 0 l 1,23,-1
 99 376 l 1,24,25
 84 380 84 380 69 380 c 0,26,27
 41 380 41 380 -1 365 c 1,0,-1
EndSplineSet
EndChar

StartChar: uni026C
Encoding: 620 620 544
Width: 413
GlyphClass: 2
Flags: W
LayerCount: 2
Fore
SplineSet
58 415 m 0,0,1
 66 461 66 461 101.5 494.5 c 128,-1,2
 137 528 137 528 189 528 c 0,3,4
 221 528 221 528 245.5 512 c 128,-1,5
 270 496 270 496 281 475 c 1,6,-1
 329 762 l 1,7,-1
 400 762 l 1,8,-1
 331 348 l 1,9,-1
 432 348 l 1,10,-1
 422 288 l 1,11,-1
 322 288 l 1,12,-1
 274 0 l 1,13,-1
 202 0 l 1,14,-1
 250 288 l 1,15,-1
 189 288 l 2,16,17
 125 288 125 288 86.5 322 c 128,-1,18
 48 356 48 356 58 415 c 0,0,1
130 415 m 0,19,20
 125 386 125 386 146 367 c 128,-1,21
 167 348 167 348 198 348 c 2,22,-1
 259 348 l 1,23,-1
 262 372 l 2,24,25
 267 409 267 409 242 436.5 c 128,-1,26
 217 464 217 464 185 464 c 0,27,28
 164 464 164 464 148.5 450 c 128,-1,29
 133 436 133 436 130 415 c 0,19,20
EndSplineSet
EndChar

StartChar: uni026D
Encoding: 621 621 545
Width: 313
GlyphClass: 2
Flags: W
LayerCount: 2
Fore
SplineSet
19 -73 m 2,0,-1
 157 762 l 1,1,-1
 229 762 l 1,2,-1
 91 -70 l 2,3,4
 75 -169 75 -169 150 -169 c 0,5,6
 183 -169 183 -169 219 -163 c 1,7,-1
 208 -228 l 1,8,9
 155 -235 155 -235 128 -235 c 0,10,11
 65 -235 65 -235 35.5 -194.5 c 128,-1,12
 6 -154 6 -154 19 -73 c 2,0,-1
EndSplineSet
EndChar

StartChar: uni026E
Encoding: 622 622 546
Width: 605
GlyphClass: 2
Flags: W
LayerCount: 2
Fore
SplineSet
67 -137 m 1,0,-1
 132 -113 l 1,1,2
 170 -171 170 -171 244 -171 c 0,3,4
 326 -171 326 -171 378.5 -122 c 128,-1,5
 431 -73 431 -73 443 3 c 0,6,7
 456 82 456 82 415 130 c 128,-1,8
 374 178 374 178 284 178 c 2,9,-1
 205 178 l 1,10,-1
 214 229 l 1,11,-1
 463 464 l 1,12,-1
 178 464 l 1,13,-1
 101 0 l 1,14,-1
 29 0 l 1,15,-1
 156 762 l 1,16,-1
 227 762 l 1,17,-1
 188 528 l 1,18,-1
 576 528 l 1,19,-1
 568 480 l 1,20,-1
 305 232 l 1,21,-1
 317 232 l 2,22,23
 420 232 420 232 476.5 169 c 128,-1,24
 533 106 533 106 516 3 c 0,25,26
 499 -102 499 -102 422 -168.5 c 128,-1,27
 345 -235 345 -235 235 -235 c 0,28,29
 110 -235 110 -235 67 -137 c 1,0,-1
EndSplineSet
EndChar

StartChar: uni026F
Encoding: 623 623 547
Width: 783
GlyphClass: 2
Flags: W
LayerCount: 2
Fore
SplineSet
50 185 m 2,0,-1
 107 528 l 1,1,-1
 177 528 l 1,2,-1
 122 192 l 2,3,4
 109 116 109 116 122.5 81 c 128,-1,5
 136 46 136 46 188 46 c 0,6,7
 242 46 242 46 286 93 c 128,-1,8
 330 140 330 140 342 213 c 2,9,-1
 394 528 l 1,10,-1
 464 528 l 1,11,-1
 408 190 l 2,12,13
 384 46 384 46 477 46 c 0,14,15
 533 46 533 46 574.5 91 c 128,-1,16
 616 136 616 136 628 209 c 2,17,-1
 681 528 l 1,18,-1
 752 528 l 1,19,-1
 665 0 l 1,20,-1
 596 0 l 1,21,-1
 609 79 l 1,22,-1
 608 79 l 1,23,24
 600 66 600 66 589 51.5 c 128,-1,25
 578 37 578 37 559 20 c 128,-1,26
 540 3 540 3 512 -7.5 c 128,-1,27
 484 -18 484 -18 452 -18 c 0,28,29
 358 -18 358 -18 341 100 c 1,30,31
 339 91 339 91 326.5 74.5 c 128,-1,32
 314 58 314 58 292.5 36 c 128,-1,33
 271 14 271 14 235.5 -2 c 128,-1,34
 200 -18 200 -18 161 -18 c 0,35,36
 82 -18 82 -18 58 34.5 c 128,-1,37
 34 87 34 87 50 185 c 2,0,-1
EndSplineSet
EndChar

StartChar: uni0270
Encoding: 624 624 548
Width: 804
GlyphClass: 2
Flags: W
LayerCount: 2
Fore
SplineSet
50 185 m 2,0,-1
 107 528 l 1,1,-1
 177 528 l 1,2,-1
 122 192 l 2,3,4
 110 120 110 120 123 83 c 128,-1,5
 136 46 136 46 187 46 c 0,6,7
 242 46 242 46 286 93.5 c 128,-1,8
 330 141 330 141 342 213 c 2,9,-1
 394 528 l 1,10,-1
 464 528 l 1,11,-1
 408 190 l 2,12,13
 384 46 384 46 477 46 c 0,14,15
 533 46 533 46 574.5 91 c 128,-1,16
 616 136 616 136 628 209 c 2,17,-1
 681 528 l 1,18,-1
 752 528 l 1,19,-1
 627 -231 l 1,20,-1
 557 -231 l 1,21,-1
 609 79 l 1,22,-1
 608 79 l 1,23,24
 585 40 585 40 546 11 c 128,-1,25
 507 -18 507 -18 452 -18 c 0,26,27
 358 -18 358 -18 341 100 c 1,28,29
 323 61 323 61 275 21.5 c 128,-1,30
 227 -18 227 -18 161 -18 c 0,31,32
 16 -18 16 -18 50 185 c 2,0,-1
EndSplineSet
EndChar

